<?xml version="1.0" standalone="no"?>
<!DOCTYPE svg PUBLIC "-//W3C//DTD SVG 1.1//EN" "http://www.w3.org/Graphics/SVG/1.1/DTD/svg11.dtd" >
<svg xmlns="http://www.w3.org/2000/svg">
<metadata></metadata>
<defs>
<font id="px_grotesk_regularregular" horiz-adv-x="1228" >
<font-face units-per-em="2048" ascent="1649" descent="-399" />
<missing-glyph horiz-adv-x="520" />
<glyph unicode="&#xfb01;" horiz-adv-x="1245" d="M1075 1208h-184v185h184v-185zM1075 0h-184v887h-463v-887h-182v887h-176v157h176v349h422v-158h-240v-191h647v-1044z" />
<glyph unicode="&#xfb02;" horiz-adv-x="1249" d="M428 1235v-191h219v-157h-219v-887h-182v887h-176v157h176v349h829v-1393h-184v1235h-463z" />
<glyph horiz-adv-x="0" />
<glyph unicode="&#xd;" horiz-adv-x="0" />
<glyph horiz-adv-x="0" />
<glyph horiz-adv-x="0" />
<glyph unicode=" "  horiz-adv-x="520" />
<glyph unicode="&#x09;" horiz-adv-x="520" />
<glyph unicode="&#xa0;" horiz-adv-x="520" />
<glyph unicode="!" horiz-adv-x="569" d="M397 0h-225v225h225v-225zM233 365l-40 305v723h184v-723l-41 -305h-103z" />
<glyph unicode="&#x22;" horiz-adv-x="790" d="M629 887h-156v536h156v-536zM317 887h-155v536h155v-536z" />
<glyph unicode="#" horiz-adv-x="1259" d="M481 492h236l55 407h-235zM1100 344h-254l-49 -344h-154l49 344h-235l-49 -344h-154l49 344h-190v148h213l59 407h-227v145h248l51 349h153l-51 -349h236l51 349h153l-51 -349h201v-145h-221l-60 -407h232v-148z" />
<glyph unicode="$" horiz-adv-x="1187" d="M655 786l84 -20q76 -18 140.5 -50t112.5 -80t75 -113.5t27 -153.5t-36 -159t-95.5 -121t-139.5 -81t-168 -37v-166h-135v170q-84 8 -157.5 39t-131 84.5t-93.5 129t-44 178.5h185q10 -121 76.5 -185.5t164.5 -81.5v496l-63 16q-154 41 -239 142.5t-85 255.5q0 72 31 136 t83 113.5t122.5 81t150.5 39.5v168h135v-170q76 -10 143.5 -38.5t120 -78t85 -121t38.5 -165.5h-184q-10 117 -68.5 169t-134.5 66v-463zM655 602v-465q104 14 177 71.5t73 156.5q0 178 -215 229zM520 1253q-82 -14 -142.5 -63t-60.5 -133q0 -174 203 -236v432z" />
<glyph unicode="%" horiz-adv-x="1652" d="M1276 98q61 0 95 32t34 93v271q0 61 -34 92.5t-95 31.5t-95 -31.5t-34 -92.5v-271q0 -61 34 -93t95 -32zM1559 358q0 -80 -14.5 -148.5t-47.5 -118.5t-87 -78.5t-134 -28.5t-134.5 28.5t-87 78.5t-47 119t-14.5 148q0 80 14.5 148.5t47 119t87 79t134.5 28.5t134 -28.5 t87 -79t47.5 -119t14.5 -148.5zM379 774q61 0 95 32t34 93v270q0 61 -34 93t-95 32t-95 -31.5t-34 -93.5v-270q0 -61 34 -93t95 -32zM662 1034q0 -80 -14.5 -148.5t-47.5 -118.5t-87 -79t-134 -29t-134.5 29t-87 79t-47 118.5t-14.5 148.5t14.5 148.5t47 119t87 79 t134.5 28.5t134 -28.5t87 -79t47.5 -119t14.5 -148.5zM1186 1393h155l-872 -1393h-156z" />
<glyph unicode="&#x26;" horiz-adv-x="1263" d="M543 879q80 61 130 119.5t50 136.5q0 61 -41 98t-117 37q-72 0 -118 -41t-46 -103q0 -59 41.5 -118t100.5 -129zM313 295q0 -43 18.5 -74t49.5 -51t69.5 -30.5t77.5 -10.5q90 0 159 23.5t128 87.5l-307 397l-119 -92q-33 -25 -54.5 -53.5t-21.5 -75.5v-121zM862 461v282 h178v-507l185 -236h-219l-88 113q-78 -68 -168.5 -103t-219.5 -35q-193 0 -302 95.5t-109 273.5q0 121 50 203t136 147l98 76q-88 106 -137 183t-49 161q0 66 26.5 122t74 98t112 65.5t139.5 23.5q160 0 249 -81.5t89 -219.5q0 -104 -71.5 -197.5t-190.5 -181.5l213 -282h4z " />
<glyph unicode="'" horiz-adv-x="479" d="M317 887h-155v536h155v-536z" />
<glyph unicode="(" horiz-adv-x="645" d="M301 344q0 -170 77 -344t208 -348h-164q-70 90 -126 186t-96 206t-61.5 237t-21.5 278q0 152 21.5 279t61.5 236.5t96 205.5t126 186h164q-139 -188 -212 -355t-73 -337v-430z" />
<glyph unicode=")" horiz-adv-x="645" d="M344 774q0 170 -72.5 337t-212.5 355h164q70 -90 126.5 -186t96 -205.5t61 -236.5t21.5 -279t-21.5 -278.5t-61 -236.5t-96 -206t-126.5 -186h-164q131 174 208 348t77 344v430z" />
<glyph unicode="*" horiz-adv-x="937" d="M193 825l-52 90l224 129l-224 130l52 90l225 -131v260h102v-260l225 131l52 -90l-226 -130l226 -129l-52 -90l-225 129v-258h-102v258z" />
<glyph unicode="+" d="M92 449v147h445v448h155v-448h445v-147h-445v-449h-155v449h-445z" />
<glyph unicode="," horiz-adv-x="536" d="M381 0l-127 -225h-98l120 225h-120v225h225v-225z" />
<glyph unicode="-" horiz-adv-x="884" d="M156 639h573v-168h-573v168z" />
<glyph unicode="." horiz-adv-x="536" d="M381 0h-225v225h225v-225z" />
<glyph unicode="/" horiz-adv-x="933" d="M242 0h-189l639 1393h189z" />
<glyph unicode="0" horiz-adv-x="1245" d="M623 133q127 0 207.5 76t80.5 215v545q0 139 -80.5 215t-207.5 76t-208 -76t-81 -215v-545q0 -139 81 -215t208 -76zM1116 696q0 -158 -22.5 -291t-77.5 -229t-150.5 -151.5t-242.5 -55.5t-242.5 55.5t-151 151.5t-78 229.5t-22.5 290.5q0 156 22.5 290t78 230.5 t150.5 151.5t243 55q147 0 242.5 -55t150.5 -151.5t77.5 -230.5t22.5 -290z" />
<glyph unicode="1" horiz-adv-x="817" d="M627 0h-185v1069h-358v162h358v162h185v-1393z" />
<glyph unicode="2" horiz-adv-x="1167" d="M358 162h695v-162h-936v162l557 547q41 41 72.5 76.5t53 70.5t33 73t11.5 85q0 117 -71 181.5t-183 64.5q-123 0 -201 -69t-78 -208h-188q0 104 36 185t99.5 138.5t149.5 87t186 29.5t181 -28.5t138.5 -83t88 -130t30.5 -167.5q0 -68 -18.5 -127.5t-48 -109.5t-68.5 -95 t-82 -84l-457 -432v-4z" />
<glyph unicode="3" horiz-adv-x="1206" d="M410 633v162h290q74 0 114 42t40 107v127q0 45 -20.5 81t-55.5 59.5t-81 36t-97 12.5q-125 0 -193.5 -65t-76.5 -169h-189q0 76 32 147.5t90.5 127t143.5 89t193 33.5q104 0 188 -27.5t143.5 -77.5t91.5 -120t32 -151q0 -127 -50.5 -206t-125.5 -120q96 -43 149 -122 t53 -210q0 -100 -36.5 -178t-101 -132t-155 -82t-196.5 -28q-102 0 -190.5 27t-154 81t-103.5 136t-38 193h189q10 -145 92 -209t205 -64q63 0 116.5 17.5t91.5 46t59.5 66.5t21.5 79v139q0 66 -40 109t-114 43h-317z" />
<glyph unicode="4" horiz-adv-x="1161" d="M262 498h430v630zM692 0v336h-614v162l612 895h187v-895h200v-162h-200v-336h-185z" />
<glyph unicode="5" horiz-adv-x="1181" d="M135 610l53 783h805v-162h-635l-32 -432q47 66 126.5 101.5t170.5 35.5q104 0 188 -34t143.5 -96.5t91 -150.5t31.5 -194q0 -111 -33.5 -202t-97 -155.5t-154 -99.5t-200.5 -35q-217 0 -340 108.5t-139 307.5h188q14 -129 88 -190.5t197 -61.5q125 0 205.5 62.5 t80.5 175.5v182q0 111 -77.5 167t-204.5 56q-96 0 -160.5 -44t-105.5 -122h-189z" />
<glyph unicode="6" horiz-adv-x="1232" d="M627 133q66 0 120 20.5t92 56.5t59.5 84t21.5 103v115q0 111 -79 177.5t-212 66.5t-215 -66.5t-82 -177.5v-115q0 -55 21.5 -103t60.5 -84t93 -56.5t120 -20.5zM627 -31q-139 0 -234.5 44t-154 132t-85 217.5t-26.5 299.5q0 172 27.5 313t89 240.5t157 153.5t230.5 54 q219 0 327.5 -98t126.5 -278h-188q-12 102 -77.5 157.5t-188.5 55.5q-139 0 -219 -96.5t-80 -254.5v-137q57 72 142 107.5t183 35.5q111 0 197 -32.5t146.5 -92t92 -143.5t31.5 -186q0 -88 -30.5 -176t-93 -158t-155.5 -114t-218 -44z" />
<glyph unicode="7" horiz-adv-x="1064" d="M428 0h-209l586 1231h-729v162h928v-160z" />
<glyph unicode="8" horiz-adv-x="1245" d="M326 332q0 -92 80.5 -145.5t216.5 -53.5q135 0 216 53.5t81 145.5v106q0 92 -81 146.5t-216 54.5t-216 -54.5t-81 -146.5v-106zM883 1073q0 45 -20.5 81t-56.5 58.5t-83 35t-100 12.5t-101.5 -12.5t-83.5 -35t-55.5 -58.5t-20.5 -81v-88q0 -47 20.5 -82t55.5 -57.5 t83 -34.5t102 -12q53 0 100 12t83 34.5t56.5 57.5t20.5 82v88zM623 -31q-104 0 -195.5 24.5t-159 74t-107.5 125t-40 180.5q0 129 67.5 219t186.5 133q-213 92 -213 322q0 88 35.5 157.5t98 118.5t146.5 74.5t181 25.5q96 0 180 -25.5t146.5 -74.5t98 -118.5t35.5 -157.5 q0 -229 -213 -322q119 -43 186.5 -133t67.5 -219q0 -104 -40 -180t-107.5 -125.5t-158.5 -74t-195 -24.5z" />
<glyph unicode="9" horiz-adv-x="1234" d="M606 1260q-66 0 -120 -20.5t-93 -56.5t-59.5 -84t-20.5 -104v-114q0 -111 79 -177.5t212 -66.5t215 66.5t82 177.5v114q0 55 -21.5 103.5t-60.5 84.5t-93 56.5t-120 20.5zM606 1423q137 0 233.5 -44t155 -132t85 -217t26.5 -299q0 -174 -27.5 -315.5t-89 -240.5 t-157 -152.5t-230.5 -53.5q-219 0 -327.5 98.5t-127.5 278.5h189q12 -102 77.5 -157.5t188.5 -55.5q139 0 219 96.5t80 253.5v138q-57 -72 -142 -108t-184 -36q-111 0 -196.5 33t-146 92.5t-92 143t-31.5 186.5q0 88 30.5 176t93 157.5t155.5 113.5t218 44z" />
<glyph unicode=":" horiz-adv-x="536" d="M381 819h-225v225h225v-225zM381 0h-225v225h225v-225z" />
<glyph unicode=";" horiz-adv-x="536" d="M381 0l-127 -225h-98l120 225h-120v225h225v-225zM381 819h-225v225h225v-225z" />
<glyph unicode="&#x3c;" d="M1118 885l-844 -363l844 -362v-160l-1044 449v147l1044 448v-159z" />
<glyph unicode="=" d="M92 238v147h1045v-147h-1045zM92 659v148h1045v-148h-1045z" />
<glyph unicode="&#x3e;" d="M111 1044l1044 -448v-147l-1044 -449v160l843 362l-843 363v159z" />
<glyph unicode="?" horiz-adv-x="1030" d="M600 0h-225v225h225v-225zM758 1047q0 104 -66.5 161.5t-169.5 57.5q-111 0 -180.5 -61.5t-79.5 -178.5h-184q6 92 44 166t98.5 125t138 78.5t165.5 27.5q90 0 167 -26.5t132.5 -75.5t87 -117.5t31.5 -152.5q0 -68 -13.5 -120t-37 -94t-55 -77t-66.5 -66 q-45 -41 -80 -71.5t-59.5 -59t-37.5 -61.5t-13 -76v-61h-185v61q0 59 12.5 104t37 84t62.5 75t87 77q86 70 125 132.5t39 148.5z" />
<glyph unicode="@" horiz-adv-x="1718" d="M582 158v729h553v-572h184v729h-922v-1044h738v-158h-922v1360h1290v-1044h-921zM766 315h184v414h-184v-414z" />
<glyph unicode="A" horiz-adv-x="1292" d="M422 504h444l-217 672h-8zM918 344h-547l-115 -344h-201l482 1393h217l483 -1393h-205z" />
<glyph unicode="B" horiz-adv-x="1327" d="M993 494q0 70 -43 104.5t-116 34.5h-451v-459h438q78 0 125 37t47 115v168zM956 725q111 -31 176.5 -112t65.5 -207q0 -203 -106 -302q-59 -53 -146.5 -78.5t-204.5 -25.5h-553v1393h543q104 0 180 -14.5t136 -57.5q121 -86 120 -266q0 -119 -56.5 -206t-154.5 -124z M383 1219v-412h428q78 0 115 41t37 106v125q0 139 -152 140h-428z" />
<glyph unicode="C" horiz-adv-x="1314" d="M696 -31q-139 0 -245.5 50.5t-178 144.5t-109.5 225t-38 295q0 170 35 307t106.5 233.5t180 147.5t253.5 51q100 0 187.5 -29.5t153 -85t105.5 -134t46 -177.5h-195q-14 123 -96 189.5t-219 66.5q-74 0 -136.5 -25.5t-108.5 -70.5t-71.5 -107.5t-25.5 -138.5v-430 q0 -74 27.5 -136t76 -108.5t113 -72t137.5 -25.5q139 0 225.5 62.5t100.5 204.5h194q-6 -98 -48 -179.5t-110.5 -137.5t-161 -88t-198.5 -32z" />
<glyph unicode="D" horiz-adv-x="1366" d="M383 1219v-1045h256q197 0 290 82t93 236v409q0 154 -93 236t-290 82h-256zM639 1393q315 0 456.5 -173t141.5 -524q0 -350 -141.5 -523t-456.5 -173h-451v1393h451z" />
<glyph unicode="E" horiz-adv-x="1232" d="M188 1393h924v-174h-729v-422h635v-174h-635v-449h729v-174h-924v1393z" />
<glyph unicode="F" horiz-adv-x="1136" d="M188 1393h854v-174h-659v-422h610v-174h-610v-623h-195v1393z" />
<glyph unicode="G" horiz-adv-x="1376" d="M125 684q0 174 36 311.5t107.5 232.5t182 145t260.5 50q104 0 193 -29.5t154.5 -85t106.5 -134t47 -177.5h-194q-14 123 -97 189.5t-229 66.5q-78 0 -142.5 -25.5t-110.5 -70.5t-72.5 -107.5t-26.5 -138.5v-430q0 -74 27.5 -136t76 -108.5t115 -72t143.5 -25.5 q162 0 250 86t88 250v94h-315v174h510v-743h-186l-9 147q-53 -80 -137 -129t-217 -49t-237.5 50.5t-176 143.5t-109.5 225t-38 296z" />
<glyph unicode="H" horiz-adv-x="1423" d="M1040 629h-657v-629h-195v1393h195v-590h657v590h195v-1393h-195v629z" />
<glyph unicode="I" horiz-adv-x="571" d="M188 1393h195v-1393h-195v1393z" />
<glyph unicode="J" horiz-adv-x="870" d="M682 0h-643v174h448v1219h195v-1393z" />
<glyph unicode="K" horiz-adv-x="1288" d="M387 743l578 650h237l-588 -650l639 -743h-237zM383 0h-195v1393h195v-1393z" />
<glyph unicode="L" horiz-adv-x="1050" d="M188 1393h195v-1219h631v-174h-826v1393z" />
<glyph unicode="M" horiz-adv-x="1705" d="M860 317l354 1076h304v-1393h-183v1186h-8l-395 -1186h-156l-397 1186h-8v-1186h-183v1393h308l356 -1076h8z" />
<glyph unicode="N" horiz-adv-x="1423" d="M1047 236v1157h188v-1393h-274l-576 1163h-8v-1163h-189v1393h275l575 -1157h9z" />
<glyph unicode="O" horiz-adv-x="1445" d="M723 139q80 0 149.5 23.5t122 68.5t82 107.5t29.5 142.5v430q0 80 -29.5 142.5t-82 107.5t-122 68.5t-149.5 23.5t-149.5 -23.5t-122 -68.5t-82 -107.5t-29.5 -142.5v-430q0 -80 29.5 -142.5t82 -107.5t122 -68.5t149.5 -23.5zM1321 696q0 -164 -35 -298t-107.5 -229 t-185 -147.5t-270.5 -52.5t-270.5 52.5t-185 147.5t-107.5 229t-35 298t35 298t107.5 229.5t185 147.5t270.5 52t270.5 -52t185 -147.5t107.5 -229.5t35 -298z" />
<glyph unicode="P" horiz-adv-x="1234" d="M791 705q70 0 112.5 45t42.5 114v203q0 70 -41 111t-114 41h-408v-514h408zM383 530v-530h-195v1393h527q125 0 203.5 -23.5t134.5 -81.5q53 -55 75.5 -138t22.5 -181q0 -96 -27.5 -181.5t-87.5 -144.5q-115 -113 -319 -113h-334z" />
<glyph unicode="Q" horiz-adv-x="1458" d="M723 139q80 0 149.5 23.5t122 68.5t82 107.5t29.5 142.5v430q0 80 -29.5 142.5t-82 107.5t-122 68.5t-149.5 23.5t-149.5 -23.5t-122 -68.5t-82 -107.5t-29.5 -142.5v-430q0 -80 29.5 -142.5t82 -107.5t122 -68.5t149.5 -23.5zM1083 72q-135 -102 -360 -103 q-158 0 -270.5 51.5t-185 146.5t-107.5 229t-35 300t35 300t107.5 229.5t185 146.5t270.5 51t270.5 -51t185 -146.5t107.5 -229.5t35 -300q0 -147 -27.5 -271t-89.5 -220l211 -205l-127 -127z" />
<glyph unicode="R" horiz-adv-x="1275" d="M784 754q78 0 119 47t41 112v154q0 72 -43 112t-117 40h-401v-465h401zM383 588v-588h-195v1393h525q109 0 192.5 -25t138.5 -76t80 -125.5t25 -173.5q0 -92 -23.5 -166.5t-76.5 -128.5q-41 -41 -95.5 -67.5t-136.5 -36.5l344 -594h-223l-326 588h-229z" />
<glyph unicode="S" horiz-adv-x="1261" d="M621 1253q-133 0 -210 -53t-77 -145q0 -98 53 -145.5t170 -80.5l223 -61q90 -25 161 -57.5t119 -80.5t72.5 -111.5t24.5 -149.5q0 -92 -42 -166t-112.5 -126t-165 -80t-198.5 -28t-198.5 25.5t-168 79t-121 135.5t-55.5 197h195q16 -141 110.5 -204t233.5 -63 q70 0 129 14.5t103 43t70 70.5t26 98q0 90 -50.5 141t-160.5 82l-273 76q-172 47 -254 142t-82 249q0 78 34 145.5t97.5 116.5t150.5 77.5t196 28.5q100 0 187 -23.5t153.5 -73.5t108.5 -128t52 -184h-194q-6 70 -34 116t-70 73.5t-94 38.5t-109 11z" />
<glyph unicode="T" horiz-adv-x="1107" d="M41 1393h1026v-174h-416v-1219h-194v1219h-416v174z" />
<glyph unicode="U" horiz-adv-x="1400" d="M1032 1393h193v-897q0 -123 -37 -220.5t-105.5 -165t-166 -104.5t-216.5 -37t-216 37t-165.5 104.5t-105.5 165t-37 220.5v897h195v-912q0 -160 85 -251t244 -91q160 0 246 91.5t86 250.5v912z" />
<glyph unicode="V" horiz-adv-x="1261" d="M635 229l346 1164h209l-451 -1393h-217l-450 1393h209l346 -1164h8z" />
<glyph unicode="W" horiz-adv-x="1908" d="M1335 219h8l273 1174h207l-361 -1393h-243l-261 1120h-8l-260 -1120h-244l-360 1393h207l272 -1174h8l273 1174h217z" />
<glyph unicode="X" horiz-adv-x="1200" d="M498 715l-420 678h213l309 -514l315 514h213l-423 -678l440 -715h-217l-328 545l-332 -545h-215z" />
<glyph unicode="Y" horiz-adv-x="1206" d="M43 1393h213l348 -648l354 648h207l-465 -840v-553h-194v555z" />
<glyph unicode="Z" horiz-adv-x="1214" d="M1100 1219l-776 -1045h774v-174h-998v174l779 1045h-746v174h967v-174z" />
<glyph unicode="[" horiz-adv-x="710" d="M614 1466v-151h-256v-1512h256v-151h-430v1814h430z" />
<glyph unicode="\" horiz-adv-x="933" d="M53 1393h189l639 -1393h-189z" />
<glyph unicode="]" horiz-adv-x="710" d="M526 1466v-1814h-430v151h256v1512h-256v151h430z" />
<glyph unicode="^" d="M537 1393h155l424 -795h-172l-332 619l-325 -619h-174z" />
<glyph unicode="_" horiz-adv-x="1269" d="M154 -113h962v-123h-962v123z" />
<glyph unicode="`" horiz-adv-x="614" d="M391 1174h-160l-217 249h215z" />
<glyph unicode="a" horiz-adv-x="1128" d="M487 123q125 0 197 89t72 230v47l-371 -34q-57 -4 -71.5 -30t-14.5 -71v-92q0 -72 50 -105.5t138 -33.5zM1092 158v-158h-312l-4 193h-8q-43 -111 -127 -164.5t-201 -53.5q-78 0 -141 24t-109 71q-41 41 -63.5 98t-22.5 119q0 123 78 211t234 102l340 31v84 q0 61 -15.5 101t-44 63.5t-68.5 33t-89 9.5q-98 0 -156.5 -44t-58.5 -145h-185q0 74 32 135.5t86 106.5t127 69.5t157 24.5t156.5 -21.5t126 -64.5t83 -110.5t29.5 -159.5v-555h156z" />
<glyph unicode="b" horiz-adv-x="1218" d="M170 0v1393h184v-519q49 94 132 144.5t202 50.5q104 0 182 -43t129.5 -116.5t77 -174t25.5 -213.5q0 -115 -25.5 -214t-77 -173t-129 -117t-182.5 -43q-119 0 -202 50.5t-132 144.5v-170h-184zM354 434q0 -135 74 -223t213 -88q117 0 191.5 65.5t74.5 171.5v324 q0 106 -74.5 172t-191.5 66q-139 0 -213 -88.5t-74 -223.5v-176z" />
<glyph unicode="c" horiz-adv-x="1093" d="M117 514q0 125 29.5 228.5t87 175t141.5 111.5t190 40q82 0 155 -21.5t128 -66.5t90 -114.5t43 -164.5h-184q-6 63 -26.5 105.5t-53.5 68t-75 36t-87 10.5q-47 0 -90 -15.5t-78 -46.5t-55.5 -77t-20.5 -107v-307q0 -55 19.5 -101.5t53.5 -78t78 -49t95 -17.5 q102 0 170 55t78 172h184q-10 -96 -49 -166.5t-96.5 -117t-130 -69t-152.5 -22.5q-115 0 -197.5 40t-138 113t-82 171t-26.5 215z" />
<glyph unicode="d" horiz-adv-x="1218" d="M864 0v170q-49 -94 -131 -144.5t-198 -50.5q-106 0 -184.5 43t-130.5 117t-77.5 173.5t-25.5 213.5q0 113 25.5 213.5t76.5 174t129 116.5t182 43q117 0 201 -50t133 -145v519h185v-1393h-185zM864 610q0 135 -73.5 223.5t-212.5 88.5q-57 0 -105.5 -17.5t-84.5 -48.5 t-56.5 -75t-20.5 -97v-324q0 -53 20.5 -97t56.5 -74.5t84 -48t106 -17.5q139 0 212.5 88t73.5 223v176z" />
<glyph unicode="e" horiz-adv-x="1122" d="M115 522q0 119 29.5 220.5t88 173t141.5 112.5t191 41q113 0 197 -39t139 -106.5t83 -158.5t28 -196v-98h-703v-111q0 -57 21.5 -101t58.5 -74.5t83 -46t95 -15.5q98 0 170 50t82 159h185q-6 -84 -44 -149.5t-98.5 -111.5t-136.5 -71t-160 -25q-113 0 -197.5 41t-141 113 t-84 172t-27.5 221zM309 618h512v58q0 57 -20.5 103t-56 78t-82 48.5t-97.5 16.5t-97 -16.5t-82 -48.5t-56.5 -78t-20.5 -103v-58z" />
<glyph unicode="f" horiz-adv-x="710" d="M428 1044h219v-157h-219v-887h-182v887h-176v157h176v349h422v-158h-240v-191z" />
<glyph unicode="g" horiz-adv-x="1218" d="M1049 20q0 -109 -39 -187.5t-102.5 -130.5t-144.5 -76.5t-165 -24.5q-82 0 -156.5 16t-135 54t-100.5 100.5t-52 156.5h184q10 -90 76.5 -135t175.5 -45q53 0 103 15.5t88 49t60.5 87t22.5 129.5v141q-49 -94 -131 -144.5t-198 -50.5q-106 0 -184.5 43t-130.5 117 t-77.5 173.5t-25.5 213.5q0 113 25.5 213.5t76.5 174t129 116.5t182 43q117 0 201 -50t133 -145v170h185v-1024zM864 610q0 135 -73.5 223.5t-212.5 88.5q-57 0 -105.5 -17.5t-84.5 -48.5t-56.5 -75t-20.5 -97v-324q0 -53 20.5 -97t56.5 -74.5t84 -48t106 -17.5 q139 0 212.5 88t73.5 223v176z" />
<glyph unicode="h" horiz-adv-x="1167" d="M354 872q43 92 118 144.5t194 52.5q76 0 138 -20.5t107 -65.5t70 -115.5t25 -171.5v-696h-185v676q0 115 -44 180.5t-163 65.5q-57 0 -104 -22.5t-82 -64.5t-54.5 -99.5t-19.5 -125.5v-610h-184v1393h184v-521z" />
<glyph unicode="i" horiz-adv-x="524" d="M358 1200h-192v193h192v-193zM170 0v1044h184v-1044h-184z" />
<glyph unicode="j" horiz-adv-x="548" d="M383 1200h-193v193h193v-193zM195 1044h184v-1392h-426v158h242v1234z" />
<glyph unicode="k" horiz-adv-x="1069" d="M354 0h-184v1393h184v-1393zM356 584l410 460h223l-420 -460l449 -584h-211z" />
<glyph unicode="l" horiz-adv-x="532" d="M174 0v1393h184v-1393h-184z" />
<glyph unicode="m" horiz-adv-x="1736" d="M944 854q33 92 112 153.5t195 61.5q68 0 127.5 -20.5t103.5 -65.5t68.5 -115.5t24.5 -171.5v-696h-184v676q0 115 -44 180.5t-147 65.5q-49 0 -91 -22.5t-75 -64.5t-51 -99.5t-18 -125.5v-610h-185v676q0 115 -44 180.5t-146 65.5q-49 0 -91 -22.5t-75 -64.5t-51.5 -99.5 t-18.5 -125.5v-610h-184v1044h184v-172q35 86 108 141.5t183 55.5q104 0 184 -52t115 -163z" />
<glyph unicode="n" horiz-adv-x="1167" d="M354 872q43 92 118 144.5t194 52.5q76 0 138 -20.5t107 -65.5t70 -115.5t25 -171.5v-696h-185v676q0 115 -44 180.5t-163 65.5q-57 0 -104 -22.5t-82 -64.5t-54.5 -99.5t-19.5 -125.5v-610h-184v1044h184v-172z" />
<glyph unicode="o" horiz-adv-x="1167" d="M1053 522q0 -121 -29 -221t-87 -172t-146.5 -113t-206.5 -41q-119 0 -207 41t-146.5 113t-87 172t-28.5 221q0 119 28.5 220.5t87 173t146.5 112.5t207 41t207 -41t146 -112.5t87 -173t29 -220.5zM858 684q0 53 -22.5 97t-59.5 75t-87 48.5t-105 17.5t-105.5 -17.5 t-87.5 -48.5t-59.5 -75t-22.5 -97v-324q0 -53 22.5 -97t59.5 -74.5t87 -48t106 -17.5q55 0 105 17.5t87 48t59.5 74.5t22.5 97v324z" />
<glyph unicode="p" horiz-adv-x="1218" d="M170 -348v1392h184v-170q49 94 132 144.5t202 50.5q104 0 182 -43t129.5 -116.5t77 -174t25.5 -213.5q0 -115 -25.5 -214t-77 -173t-129 -117t-182.5 -43q-119 0 -202 50.5t-132 144.5v-518h-184zM354 434q0 -135 74 -223t213 -88q117 0 191.5 65.5t74.5 171.5v324 q0 106 -74.5 172t-191.5 66q-139 0 -213 -88.5t-74 -223.5v-176z" />
<glyph unicode="q" horiz-adv-x="1218" d="M864 -348v518q-49 -94 -131 -144.5t-198 -50.5q-106 0 -184.5 43t-130.5 117t-77.5 173.5t-25.5 213.5q0 113 25.5 213.5t76.5 174t129 116.5t182 43q117 0 201 -50t133 -145v170h185v-1392h-185zM864 610q0 135 -73.5 223.5t-212.5 88.5q-57 0 -105.5 -17.5t-84.5 -48.5 t-56.5 -75t-20.5 -97v-324q0 -53 20.5 -97t56.5 -74.5t84 -48t106 -17.5q139 0 212.5 88t73.5 223v176z" />
<glyph unicode="r" horiz-adv-x="731" d="M170 1044h502v-159h-318v-885h-184v1044z" />
<glyph unicode="s" horiz-adv-x="1042" d="M633 592q156 -33 231.5 -106.5t75.5 -200.5q0 -66 -29.5 -122.5t-85 -97t-131.5 -65.5t-168 -25q-88 0 -164.5 22.5t-134 67t-90.5 111t-35 154.5h185q4 -104 74.5 -155.5t166.5 -51.5q92 0 160 41t68 119q0 63 -41 101t-146 58l-172 35q-129 27 -198.5 99.5t-69.5 195.5 q0 61 27.5 115.5t79 94.5t121 63.5t155.5 23.5q74 0 144.5 -19.5t126 -60.5t89 -104.5t35.5 -151.5h-184q-4 104 -64.5 146.5t-144.5 42.5q-86 0 -145.5 -41t-59.5 -107q0 -61 35 -95t113 -50z" />
<glyph unicode="t" horiz-adv-x="753" d="M428 158h240v-158h-422v887h-176v157h176v349h182v-349h240v-157h-240v-729z" />
<glyph unicode="u" horiz-adv-x="1159" d="M805 172q-43 -92 -115 -144.5t-190 -52.5q-72 0 -134.5 20.5t-107.5 65.5t-70.5 116t-25.5 171v696h184v-675q0 -113 44 -179.5t161 -66.5t185.5 87t68.5 224v610h184v-1044h-184v172z" />
<glyph unicode="v" horiz-adv-x="1040" d="M526 219l267 825h190l-375 -1044h-176l-375 1044h199l262 -825h8z" />
<glyph unicode="w" horiz-adv-x="1533" d="M762 846l-199 -846h-190l-305 1044h186l207 -817h8l184 817h224l192 -817h8l209 817h180l-305 -1044h-194l-197 846h-8z" />
<glyph unicode="x" horiz-adv-x="1040" d="M412 541l-328 503h205l229 -364l234 364h200l-327 -491l362 -553h-207l-262 414l-260 -414h-205z" />
<glyph unicode="y" horiz-adv-x="1067" d="M541 227l280 817h191l-512 -1392h-357v158h240l66 190l-388 1044h199l272 -817h9z" />
<glyph unicode="z" horiz-adv-x="995" d="M885 158v-158h-787v158l561 729h-520v157h733v-157l-561 -729h574z" />
<glyph unicode="{" horiz-adv-x="790" d="M264 481h-194v156h194v-156zM438 637h-174v829h430v-151h-256v-678zM438 481v-678h256v-151h-430v829h174z" />
<glyph unicode="|" horiz-adv-x="538" d="M182 1741h174v-2089h-174v2089z" />
<glyph unicode="}" horiz-adv-x="790" d="M526 481v-829h-430v151h256v678h174zM526 637h-174v678h-256v151h430v-829h195v-156h-195v156z" />
<glyph unicode="~" d="M1139 614q0 -113 -76 -184.5t-195 -71.5q-37 0 -67.5 6.5t-64.5 18.5t-72.5 30.5t-90.5 45.5q-47 25 -77.5 41t-54 26.5t-44 14.5t-45.5 4q-51 0 -78.5 -32t-27.5 -85h-154q0 113 76 184.5t194 71.5q37 0 68 -6t64.5 -18.5t72.5 -31t90 -44.5q45 -25 77 -41.5t55.5 -26.5 t44 -14t45.5 -4q51 0 78.5 31.5t27.5 84.5h154z" />
<glyph unicode="&#xa1;" horiz-adv-x="540" d="M383 819h-225v225h225v-225zM322 680l40 -305v-723h-184v723l41 305h103z" />
<glyph unicode="&#xa2;" d="M698 -188h-135v168q-96 12 -167.5 56t-118 114.5t-69 163t-22.5 200.5q0 231 97.5 377.5t279.5 171.5v170h135v-168q143 -16 240.5 -103.5t112.5 -259.5h-185q-10 100 -56 148.5t-112 62.5v-784q74 16 121 70.5t55 150.5h185q-10 -86 -42 -151.5t-80 -111.5t-109.5 -72.5 t-129.5 -34.5v-168zM563 913q-76 -16 -129 -76.5t-53 -160.5v-307q0 -94 52 -156.5t130 -83.5v784z" />
<glyph unicode="&#xa3;" d="M1092 162v-162h-981v162h184v485h-184v162h184v221q0 76 25.5 146.5t77 126t129 88t180.5 32.5q102 0 180 -32.5t129 -88t76.5 -128t25.5 -150.5h-184q0 117 -55.5 178.5t-171.5 61.5q-117 0 -172.5 -61.5t-55.5 -178.5v-215h334v-162h-334v-485h613z" />
<glyph unicode="&#xa4;" d="M295 598q0 -66 24.5 -124t67.5 -101t101.5 -67.5t123.5 -24.5q66 0 124.5 24.5t101.5 67.5t67.5 101t24.5 124t-24.5 124t-67.5 101t-101.5 67.5t-124.5 24.5t-124 -24.5t-101 -67.5t-67.5 -101t-24.5 -124zM227 324q-86 121 -86 274q0 78 23.5 146.5t64.5 125.5 l-112 115l110 111l113 -115q59 41 127 64.5t145 23.5q76 0 144.5 -23.5t128.5 -64.5l114 115l111 -111l-115 -115q41 -59 64.5 -127.5t23.5 -144.5q0 -78 -23.5 -145.5t-64.5 -126.5l115 -113l-111 -109l-112 111q-59 -41 -128 -64.5t-147 -23.5q-154 0 -274 86l-111 -111 l-110 111z" />
<glyph unicode="&#xa5;" d="M174 475h348v121h-348v121h266l-336 676h201l309 -635l314 635h198l-340 -676h267v-121h-346v-121h346v-121h-346v-354h-185v354h-348v121z" />
<glyph unicode="&#xa6;" horiz-adv-x="546" d="M186 1741h174v-854h-174v854zM186 506h174v-854h-174v854z" />
<glyph unicode="&#xa7;" horiz-adv-x="1198" d="M399 293h461v461h-461v-461zM215 133v1260h827v-160h-643v-320h645v-1259h-831v160h647v319h-645z" />
<glyph unicode="&#xa8;" horiz-adv-x="679" d="M578 1212h-181v181h181v-181zM217 1212h-180v181h180v-181z" />
<glyph unicode="&#xa9;" horiz-adv-x="1691" d="M252 696q0 -125 46 -233.5t126 -188t188.5 -126t233.5 -46.5t233.5 46.5t188.5 126t126 188t46 233.5t-46 233.5t-126 188.5t-188.5 126t-233.5 46t-233.5 -46t-188.5 -126t-126 -188.5t-46 -233.5zM119 696q0 150 57 283t155.5 231.5t230.5 155.5t284 57q150 0 283 -57 t231 -155.5t155.5 -231.5t57.5 -283q0 -152 -57.5 -283.5t-155.5 -230t-231.5 -156t-282.5 -57.5q-152 0 -284 57.5t-230.5 156t-155.5 230t-57 283.5zM539 690q0 172 83 275.5t230 103.5q113 0 192.5 -62.5t90.5 -187.5h-136q-8 80 -52 109.5t-103 29.5q-31 0 -59.5 -10 t-51 -30.5t-37 -49t-14.5 -67.5v-209q0 -72 49 -115t115 -43q63 0 108 36t52 110h135q-8 -66 -36 -114t-68 -80t-90 -47t-101 -15q-76 0 -133.5 27.5t-96 76.5t-58 115.5t-19.5 146.5z" />
<glyph unicode="&#xaa;" horiz-adv-x="817" d="M459 1012v35q0 41 -21.5 59t-58.5 18q-39 0 -63.5 -17t-24.5 -58h-137q4 90 67.5 135t161.5 45t154.5 -47t56.5 -140v-260h92v-106h-219l-2 80h-6q-51 -92 -152 -92q-78 0 -125 46t-47 117q0 72 44 116t132 54zM344 768q53 0 84 34t31 97v14l-142 -12q-41 -2 -41 -43v-47 q0 -43 68 -43z" />
<glyph unicode="&#xab;" horiz-adv-x="1017" d="M338 145l-219 381l219 381h164l-199 -381l199 -381h-164zM721 145l-219 381l219 381h164l-199 -381l199 -381h-164z" />
<glyph unicode="&#xac;" d="M977 659h-893v148h1044v-561h-151v413z" />
<glyph unicode="&#xad;" horiz-adv-x="884" d="M156 639h573v-168h-573v168z" />
<glyph unicode="&#xae;" horiz-adv-x="1691" d="M252 696q0 -125 46 -233.5t126 -188t188.5 -126t233.5 -46.5t233.5 46.5t188.5 126t126 188t46 233.5t-46 233.5t-126 188.5t-188.5 126t-233.5 46t-233.5 -46t-188.5 -126t-126 -188.5t-46 -233.5zM913 711q39 0 57.5 23.5t18.5 56.5v69q0 76 -76 76h-194v-225h194z M719 604v-256h-133v696h319q106 0 163.5 -57t57.5 -164q0 -92 -44 -144t-107 -69l153 -262h-147l-143 256h-119zM119 696q0 150 57 283t155.5 231.5t230.5 155.5t284 57q150 0 283 -57t231 -155.5t155.5 -231.5t57.5 -283q0 -152 -57.5 -283.5t-155.5 -230t-231.5 -156 t-282.5 -57.5q-152 0 -284 57.5t-230.5 156t-155.5 230t-57 283.5z" />
<glyph unicode="&#xaf;" horiz-adv-x="614" d="M10 1372h592v-121h-592v121z" />
<glyph unicode="&#xb0;" horiz-adv-x="806" d="M219 1137q0 -78 53.5 -131.5t130.5 -53.5q78 0 131.5 53.5t53.5 131.5t-53.5 131t-131.5 53t-131 -53t-53 -131zM117 1137q0 59 22.5 111t61.5 91t91 61.5t111 22.5t111.5 -22.5t91.5 -61.5t61.5 -91t22.5 -111t-22.5 -111.5t-61.5 -91.5t-91 -61.5t-112 -22.5 q-59 0 -111 22.5t-91 61.5t-61.5 91.5t-22.5 111.5z" />
<glyph unicode="&#xb1;" d="M1137 0h-1045v147h1045v-147zM92 571v148h445v325h155v-325h445v-148h-445v-325h-155v325h-445z" />
<glyph unicode="&#xb2;" horiz-adv-x="813" d="M330 979v-4h340v-123h-527v123l295 266q35 33 55.5 60.5t20.5 70.5t-28.5 69.5t-77.5 26.5q-53 0 -85 -29.5t-32 -88.5h-144q0 111 74 173t191 62t180 -60.5t63 -150.5q0 -78 -33.5 -128t-84.5 -93z" />
<glyph unicode="&#xb3;" horiz-adv-x="790" d="M297 1165v111h143q35 0 48.5 16.5t13.5 42.5v56q0 41 -30 61.5t-75 20.5q-49 0 -79.5 -25t-34.5 -76h-144q0 100 74 156.5t186 56.5q115 0 183.5 -54t68.5 -140q0 -121 -112 -170q61 -23 93 -64t32 -110q0 -96 -76 -153.5t-193 -57.5q-55 0 -104 14t-87 42t-59.5 71 t-21.5 102h143q4 -61 39 -89t88 -28q55 0 88 26.5t33 65.5v62q0 63 -65 63h-152z" />
<glyph unicode="&#xb4;" horiz-adv-x="614" d="M385 1423h215l-217 -249h-160z" />
<glyph unicode="&#xb5;" horiz-adv-x="1224" d="M379 -348h-184v1392h184v-698q0 -104 47 -163.5t158 -59.5q117 0 185.5 87t68.5 224v610h184v-1044h-184v172q-43 -92 -114 -144.5t-181 -52.5q-55 0 -97.5 19.5t-66.5 48.5v-391z" />
<glyph unicode="&#xb6;" horiz-adv-x="1277" d="M1067 1393v-1577h-174v1429h-260v-1429h-174v880h-348v697h956z" />
<glyph unicode="&#xb7;" horiz-adv-x="536" d="M381 412h-225v225h225v-225z" />
<glyph unicode="&#xb8;" horiz-adv-x="614" d="M164 -215h143v143h144v-276h-287v133z" />
<glyph unicode="&#xb9;" horiz-adv-x="624" d="M463 852h-144v479h-227v115h227v123h144v-717z" />
<glyph unicode="&#xba;" horiz-adv-x="763" d="M492 1026q0 47 -32 73.5t-79 26.5t-79 -26.5t-32 -73.5v-160q0 -47 32 -73.5t79 -26.5t79 26.5t32 73.5v160zM637 946q0 -129 -66.5 -205.5t-189.5 -76.5q-121 0 -187.5 76.5t-66.5 205.5t66.5 206t187.5 77q123 0 189.5 -77t66.5 -206z" />
<glyph unicode="&#xbb;" horiz-adv-x="1017" d="M516 145l199 381l-199 381h164l219 -381l-219 -381h-164zM133 145l199 381l-199 381h164l219 -381l-219 -381h-164z" />
<glyph unicode="&#xbc;" horiz-adv-x="1562" d="M1206 545l-186 -271h190v271h-4zM1210 0v160h-315v114l303 443h152v-443h129v-114h-129v-160h-140zM1130 1393h156l-872 -1393h-156zM459 676h-144v479h-227v115h227v123h144v-717z" />
<glyph unicode="&#xbd;" horiz-adv-x="1587" d="M1145 127v-4h340v-123h-527v123l295 266q35 33 55.5 60.5t20.5 70.5t-28.5 69.5t-77.5 26.5q-53 0 -85 -29.5t-32 -88.5h-143q0 111 73.5 173t190.5 62t180 -60.5t63 -150.5q0 -78 -33.5 -128t-84.5 -93zM1130 1393h156l-872 -1393h-156zM459 676h-144v479h-227v115h227 v123h144v-717z" />
<glyph unicode="&#xbe;" horiz-adv-x="1609" d="M1253 545l-186 -271h190v271h-4zM1257 0v160h-315v114l303 443h152v-443h129v-114h-129v-160h-140zM274 989v111h144q35 0 48 16.5t13 42.5v55q0 41 -29.5 61.5t-74.5 20.5q-49 0 -80 -24.5t-35 -75.5h-143q0 100 73.5 156.5t186.5 56.5q115 0 183.5 -54.5t68.5 -140.5 q0 -121 -113 -170q61 -23 93 -63.5t32 -110.5q0 -96 -76 -153.5t-192 -57.5q-55 0 -104.5 14.5t-87.5 42t-59.5 70.5t-21.5 103h144q4 -61 38.5 -89t88.5 -28q55 0 88 26.5t33 65.5v62q0 63 -66 63h-152zM1196 1393h156l-873 -1393h-155z" />
<glyph unicode="&#xbf;" horiz-adv-x="1013" d="M422 1044h225v-225h-225v225zM264 -2q0 -104 66.5 -161.5t169.5 -57.5q111 0 180.5 61.5t79.5 177.5h184q-6 -92 -44 -165.5t-98.5 -125t-138 -79t-165.5 -27.5q-90 0 -167 26.5t-132.5 76t-87 118t-31.5 152.5q0 68 13 120t37 94t55.5 76.5t66.5 65.5q45 39 80 71 t59.5 60.5t37.5 61t13 75.5v62h185v-62q0 -59 -12.5 -104t-37 -84t-62.5 -76t-87 -75q-86 -70 -125 -132.5t-39 -148.5z" />
<glyph unicode="&#xc0;" horiz-adv-x="1292" d="M815 1530h-160l-217 250h215zM422 504h444l-217 672h-8zM918 344h-547l-115 -344h-201l482 1393h217l483 -1393h-205z" />
<glyph unicode="&#xc1;" horiz-adv-x="1292" d="M627 1780h215l-217 -250h-160zM422 504h444l-217 672h-8zM918 344h-547l-115 -344h-201l482 1393h217l483 -1393h-205z" />
<glyph unicode="&#xc2;" horiz-adv-x="1292" d="M530 1530h-157l170 250h211l170 -250h-160l-117 149zM422 504h444l-217 672h-8zM918 344h-547l-115 -344h-201l482 1393h217l483 -1393h-205z" />
<glyph unicode="&#xc3;" horiz-adv-x="1292" d="M961 1741q0 -92 -48.5 -143.5t-134.5 -51.5q-43 0 -81 15.5t-72.5 34t-65.5 34t-57 15.5q-68 0 -68 -78h-102q0 92 48 143t134 51q43 0 81 -15t72.5 -33.5t65.5 -34t58 -15.5q68 0 67 78h103zM422 504h444l-217 672h-8zM918 344h-547l-115 -344h-201l482 1393h217 l483 -1393h-205z" />
<glyph unicode="&#xc4;" horiz-adv-x="1292" d="M907 1569h-180v180h180v-180zM547 1569h-180v180h180v-180zM422 504h444l-217 672h-8zM918 344h-547l-115 -344h-201l482 1393h217l483 -1393h-205z" />
<glyph unicode="&#xc5;" horiz-adv-x="1292" d="M735 1712q0 37 -24.5 63.5t-65.5 26.5t-66.5 -26.5t-25.5 -63.5t25.5 -64.5t66.5 -27.5t65.5 27.5t24.5 64.5zM827 1712q0 -70 -48 -123t-134 -53t-134 53t-48 123q0 68 48 122t134 54t134 -54t48 -122zM422 504h444l-217 672h-8zM918 344h-547l-115 -344h-201l482 1393 h217l483 -1393h-205z" />
<glyph unicode="&#xc6;" horiz-adv-x="1929" d="M461 506h444v713h-98zM905 0v346h-522l-168 -346h-217l686 1393h1124v-174h-708v-422h614v-174h-614v-449h708v-174h-903z" />
<glyph unicode="&#xc7;" horiz-adv-x="1314" d="M696 -31q-139 0 -245.5 50.5t-178 144.5t-109.5 225t-38 295q0 170 35 307t106.5 233.5t180 147.5t253.5 51q100 0 187.5 -29.5t153 -85t105.5 -134t46 -177.5h-195q-14 123 -96 189.5t-219 66.5q-74 0 -136.5 -25.5t-108.5 -70.5t-71.5 -107.5t-25.5 -138.5v-430 q0 -74 27.5 -136t76 -108.5t113 -72t137.5 -25.5q139 0 225.5 62.5t100.5 204.5h194q-6 -98 -48 -179.5t-110.5 -137.5t-161 -88t-198.5 -32zM481 -215h144v143h143v-276h-287v133z" />
<glyph unicode="&#xc8;" horiz-adv-x="1232" d="M776 1530h-160l-217 250h215zM188 1393h924v-174h-729v-422h635v-174h-635v-449h729v-174h-924v1393z" />
<glyph unicode="&#xc9;" horiz-adv-x="1232" d="M662 1780h215l-218 -250h-159zM188 1393h924v-174h-729v-422h635v-174h-635v-449h729v-174h-924v1393z" />
<glyph unicode="&#xca;" horiz-adv-x="1232" d="M541 1530h-158l170 250h211l170 -250h-160l-117 149zM188 1393h924v-174h-729v-422h635v-174h-635v-449h729v-174h-924v1393z" />
<glyph unicode="&#xcb;" horiz-adv-x="1232" d="M930 1569h-180v180h180v-180zM569 1569h-180v180h180v-180zM188 1393h924v-174h-729v-422h635v-174h-635v-449h729v-174h-924v1393z" />
<glyph unicode="&#xcc;" horiz-adv-x="571" d="M188 1393h195v-1393h-195v1393zM412 1530h-160l-217 250h215z" />
<glyph unicode="&#xcd;" horiz-adv-x="571" d="M322 1780h215l-218 -250h-159zM188 1393h195v-1393h-195v1393z" />
<glyph unicode="&#xce;" horiz-adv-x="571" d="M168 1530h-158l170 250h211l170 -250h-160l-116 149zM188 1393h195v-1393h-195v1393z" />
<glyph unicode="&#xcf;" horiz-adv-x="571" d="M555 1569h-180v180h180v-180zM195 1569h-181v180h181v-180zM188 1393h195v-1393h-195v1393z" />
<glyph unicode="&#xd0;" horiz-adv-x="1380" d="M717 623h-320v-449h256q197 0 290 82t93 236v409q0 154 -93 236t-290 82h-256v-449h320v-147zM653 1393q315 0 456.5 -173t141.5 -524q0 -350 -141 -523t-457 -173h-450v623h-148v147h148v623h450z" />
<glyph unicode="&#xd1;" horiz-adv-x="1423" d="M1026 1741q0 -92 -48 -143.5t-134 -51.5q-43 0 -81 15.5t-73 34t-65.5 34t-57.5 15.5q-68 0 -67 -78h-103q0 92 48.5 143t134.5 51q43 0 80.5 -15t72.5 -33.5t65.5 -34t57.5 -15.5q68 0 68 78h102zM1047 236v1157h188v-1393h-274l-576 1163h-8v-1163h-189v1393h275 l575 -1157h9z" />
<glyph unicode="&#xd2;" horiz-adv-x="1445" d="M831 1552h-159l-217 250h215zM723 139q80 0 149.5 23.5t122 68.5t82 107.5t29.5 142.5v430q0 80 -29.5 142.5t-82 107.5t-122 68.5t-149.5 23.5t-149.5 -23.5t-122 -68.5t-82 -107.5t-29.5 -142.5v-430q0 -80 29.5 -142.5t82 -107.5t122 -68.5t149.5 -23.5zM1321 696 q0 -164 -35 -298t-107.5 -229t-185 -147.5t-270.5 -52.5t-270.5 52.5t-185 147.5t-107.5 229t-35 298t35 298t107.5 229.5t185 147.5t270.5 52t270.5 -52t185 -147.5t107.5 -229.5t35 -298z" />
<glyph unicode="&#xd3;" horiz-adv-x="1445" d="M768 1802h215l-217 -250h-160zM723 139q80 0 149.5 23.5t122 68.5t82 107.5t29.5 142.5v430q0 80 -29.5 142.5t-82 107.5t-122 68.5t-149.5 23.5t-149.5 -23.5t-122 -68.5t-82 -107.5t-29.5 -142.5v-430q0 -80 29.5 -142.5t82 -107.5t122 -68.5t149.5 -23.5zM1321 696 q0 -164 -35 -298t-107.5 -229t-185 -147.5t-270.5 -52.5t-270.5 52.5t-185 147.5t-107.5 229t-35 298t35 298t107.5 229.5t185 147.5t270.5 52t270.5 -52t185 -147.5t107.5 -229.5t35 -298z" />
<glyph unicode="&#xd4;" horiz-adv-x="1445" d="M606 1552h-157l169 250h211l170 -250h-159l-117 150zM723 139q80 0 149.5 23.5t122 68.5t82 107.5t29.5 142.5v430q0 80 -29.5 142.5t-82 107.5t-122 68.5t-149.5 23.5t-149.5 -23.5t-122 -68.5t-82 -107.5t-29.5 -142.5v-430q0 -80 29.5 -142.5t82 -107.5t122 -68.5 t149.5 -23.5zM1321 696q0 -164 -35 -298t-107.5 -229t-185 -147.5t-270.5 -52.5t-270.5 52.5t-185 147.5t-107.5 229t-35 298t35 298t107.5 229.5t185 147.5t270.5 52t270.5 -52t185 -147.5t107.5 -229.5t35 -298z" />
<glyph unicode="&#xd5;" horiz-adv-x="1445" d="M1038 1741q0 -92 -48 -143.5t-134 -51.5q-43 0 -81 15.5t-72.5 34t-65.5 34t-57 15.5q-68 0 -68 -78h-102q0 92 48 143t134 51q43 0 81 -15t72.5 -33.5t65.5 -34t57 -15.5q68 0 68 78h102zM723 139q80 0 149.5 23.5t122 68.5t82 107.5t29.5 142.5v430q0 80 -29.5 142.5 t-82 107.5t-122 68.5t-149.5 23.5t-149.5 -23.5t-122 -68.5t-82 -107.5t-29.5 -142.5v-430q0 -80 29.5 -142.5t82 -107.5t122 -68.5t149.5 -23.5zM1321 696q0 -164 -35 -298t-107.5 -229t-185 -147.5t-270.5 -52.5t-270.5 52.5t-185 147.5t-107.5 229t-35 298t35 298 t107.5 229.5t185 147.5t270.5 52t270.5 -52t185 -147.5t107.5 -229.5t35 -298z" />
<glyph unicode="&#xd6;" horiz-adv-x="1445" d="M991 1591h-180v181h180v-181zM631 1591h-180v181h180v-181zM723 139q80 0 149.5 23.5t122 68.5t82 107.5t29.5 142.5v430q0 80 -29.5 142.5t-82 107.5t-122 68.5t-149.5 23.5t-149.5 -23.5t-122 -68.5t-82 -107.5t-29.5 -142.5v-430q0 -80 29.5 -142.5t82 -107.5 t122 -68.5t149.5 -23.5zM1321 696q0 -164 -35 -298t-107.5 -229t-185 -147.5t-270.5 -52.5t-270.5 52.5t-185 147.5t-107.5 229t-35 298t35 298t107.5 229.5t185 147.5t270.5 52t270.5 -52t185 -147.5t107.5 -229.5t35 -298z" />
<glyph unicode="&#xd7;" d="M203 -2l-113 113l412 409l-412 412l113 112l409 -411l412 411l113 -112l-412 -412l412 -409l-111 -111l-412 412z" />
<glyph unicode="&#xd8;" horiz-adv-x="1445" d="M723 139q80 0 149.5 23.5t122 68.5t82 107.5t29.5 142.5v430q0 131 -84 222l-477 -959q82 -35 178 -35zM340 481q0 -74 25.5 -133t72.5 -104l480 966q-43 20 -92.5 31.5t-102.5 11.5q-80 0 -149.5 -23.5t-122 -68.5t-82 -107.5t-29.5 -142.5v-430zM1321 696 q0 -164 -35 -298t-107.5 -229t-185 -147.5t-270.5 -52.5q-74 0 -138.5 11.5t-119.5 33.5l-76 -153l-115 55l80 162q-119 92 -174 250.5t-55 367.5q0 164 35 298t107.5 229.5t185 147.5t270.5 52q80 0 147.5 -14t126.5 -41l82 164l115 -55l-88 -177q111 -94 163 -248.5 t52 -355.5z" />
<glyph unicode="&#xd9;" horiz-adv-x="1400" d="M838 1530h-160l-217 250h215zM1032 1393h193v-897q0 -123 -37 -220.5t-105.5 -165t-166 -104.5t-216.5 -37t-216 37t-165.5 104.5t-105.5 165t-37 220.5v897h195v-912q0 -160 85 -251t244 -91q160 0 246 91.5t86 250.5v912z" />
<glyph unicode="&#xda;" horiz-adv-x="1400" d="M731 1780h215l-217 -250h-160zM1032 1393h193v-897q0 -123 -37 -220.5t-105.5 -165t-166 -104.5t-216.5 -37t-216 37t-165.5 104.5t-105.5 165t-37 220.5v897h195v-912q0 -160 85 -251t244 -91q160 0 246 91.5t86 250.5v912z" />
<glyph unicode="&#xdb;" horiz-adv-x="1400" d="M584 1530h-158l170 250h211l170 -250h-160l-117 149zM1032 1393h193v-897q0 -123 -37 -220.5t-105.5 -165t-166 -104.5t-216.5 -37t-216 37t-165.5 104.5t-105.5 165t-37 220.5v897h195v-912q0 -160 85 -251t244 -91q160 0 246 91.5t86 250.5v912z" />
<glyph unicode="&#xdc;" horiz-adv-x="1400" d="M971 1569h-180v180h180v-180zM610 1569h-180v180h180v-180zM1032 1393h193v-897q0 -123 -37 -220.5t-105.5 -165t-166 -104.5t-216.5 -37t-216 37t-165.5 104.5t-105.5 165t-37 220.5v897h195v-912q0 -160 85 -251t244 -91q160 0 246 91.5t86 250.5v912z" />
<glyph unicode="&#xdd;" horiz-adv-x="1206" d="M678 1739h215l-217 -250h-160zM43 1393h213l348 -648l354 648h207l-465 -840v-553h-194v555z" />
<glyph unicode="&#xde;" horiz-adv-x="1247" d="M791 444q70 0 112.5 45.5t42.5 114.5v203q0 70 -41 110.5t-114 40.5h-408v-514h408zM383 270v-270h-195v1393h195v-260h332q125 0 203.5 -24t134.5 -81q53 -55 75.5 -138t22.5 -181q0 -96 -27.5 -181.5t-87.5 -144.5q-115 -113 -319 -113h-334z" />
<glyph unicode="&#xdf;" horiz-adv-x="1132" d="M518 129h14q129 0 209 54.5t80 148.5v178q0 63 -32.5 104t-108.5 41h-162v158h141q76 0 109 40t33 103v156q0 41 -17.5 69.5t-46 47t-66.5 28t-79 9.5q-49 0 -92 -13.5t-75 -41t-51.5 -68.5t-19.5 -99v-1044h-184v1044q0 72 29.5 140.5t85 122t133.5 85t174 31.5 t171 -28.5t126 -77.5t77.5 -113.5t26.5 -136.5q0 -139 -50 -213t-152 -121q102 -31 162.5 -111.5t60.5 -232.5q0 -96 -34 -174t-96.5 -132t-150.5 -84t-194 -30h-21v160z" />
<glyph unicode="&#xe0;" horiz-adv-x="1128" d="M610 1174h-159l-218 249h216zM487 123q125 0 197 89t72 230v47l-371 -34q-57 -4 -71.5 -30t-14.5 -71v-92q0 -72 50 -105.5t138 -33.5zM1092 158v-158h-312l-4 193h-8q-43 -111 -127 -164.5t-201 -53.5q-78 0 -141 24t-109 71q-41 41 -63.5 98t-22.5 119q0 123 78 211 t234 102l340 31v84q0 61 -15.5 101t-44 63.5t-68.5 33t-89 9.5q-98 0 -156.5 -44t-58.5 -145h-185q0 74 32 135.5t86 106.5t127 69.5t157 24.5t156.5 -21.5t126 -64.5t83 -110.5t29.5 -159.5v-555h156z" />
<glyph unicode="&#xe1;" horiz-adv-x="1128" d="M606 1423h215l-217 -249h-160zM487 123q125 0 197 89t72 230v47l-371 -34q-57 -4 -71.5 -30t-14.5 -71v-92q0 -72 50 -105.5t138 -33.5zM1092 158v-158h-312l-4 193h-8q-43 -111 -127 -164.5t-201 -53.5q-78 0 -141 24t-109 71q-41 41 -63.5 98t-22.5 119q0 123 78 211 t234 102l340 31v84q0 61 -15.5 101t-44 63.5t-68.5 33t-89 9.5q-98 0 -156.5 -44t-58.5 -145h-185q0 74 32 135.5t86 106.5t127 69.5t157 24.5t156.5 -21.5t126 -64.5t83 -110.5t29.5 -159.5v-555h156z" />
<glyph unicode="&#xe2;" horiz-adv-x="1128" d="M418 1174h-158l170 249h211l170 -249h-160l-116 149zM487 123q125 0 197 89t72 230v47l-371 -34q-57 -4 -71.5 -30t-14.5 -71v-92q0 -72 50 -105.5t138 -33.5zM1092 158v-158h-312l-4 193h-8q-43 -111 -127 -164.5t-201 -53.5q-78 0 -141 24t-109 71q-41 41 -63.5 98 t-22.5 119q0 123 78 211t234 102l340 31v84q0 61 -15.5 101t-44 63.5t-68.5 33t-89 9.5q-98 0 -156.5 -44t-58.5 -145h-185q0 74 32 135.5t86 106.5t127 69.5t157 24.5t156.5 -21.5t126 -64.5t83 -110.5t29.5 -159.5v-555h156z" />
<glyph unicode="&#xe3;" horiz-adv-x="1128" d="M868 1393q0 -92 -48 -143.5t-134 -51.5q-43 0 -81 15.5t-72.5 34t-65.5 33.5t-57 15q-68 0 -68 -77h-102q0 92 48 143t134 51q43 0 81 -15.5t72.5 -33.5t65.5 -33.5t57 -15.5q68 0 68 78h102zM487 123q125 0 197 89t72 230v47l-371 -34q-57 -4 -71.5 -30t-14.5 -71v-92 q0 -72 50 -105.5t138 -33.5zM1092 158v-158h-312l-4 193h-8q-43 -111 -127 -164.5t-201 -53.5q-78 0 -141 24t-109 71q-41 41 -63.5 98t-22.5 119q0 123 78 211t234 102l340 31v84q0 61 -15.5 101t-44 63.5t-68.5 33t-89 9.5q-98 0 -156.5 -44t-58.5 -145h-185 q0 74 32 135.5t86 106.5t127 69.5t157 24.5t156.5 -21.5t126 -64.5t83 -110.5t29.5 -159.5v-555h156z" />
<glyph unicode="&#xe4;" horiz-adv-x="1128" d="M803 1212h-180v181h180v-181zM442 1212h-180v181h180v-181zM487 123q125 0 197 89t72 230v47l-371 -34q-57 -4 -71.5 -30t-14.5 -71v-92q0 -72 50 -105.5t138 -33.5zM1092 158v-158h-312l-4 193h-8q-43 -111 -127 -164.5t-201 -53.5q-78 0 -141 24t-109 71 q-41 41 -63.5 98t-22.5 119q0 123 78 211t234 102l340 31v84q0 61 -15.5 101t-44 63.5t-68.5 33t-89 9.5q-98 0 -156.5 -44t-58.5 -145h-185q0 74 32 135.5t86 106.5t127 69.5t157 24.5t156.5 -21.5t126 -64.5t83 -110.5t29.5 -159.5v-555h156z" />
<glyph unicode="&#xe5;" horiz-adv-x="1128" d="M623 1333q0 37 -25 63.5t-66 26.5t-66.5 -26.5t-25.5 -63.5t26 -64.5t66 -27.5q41 0 66 27.5t25 64.5zM715 1333q0 -70 -48.5 -123t-134.5 -53t-134 53.5t-48 122.5q0 68 48 122t134 54t134.5 -54t48.5 -122zM487 123q125 0 197 89t72 230v47l-371 -34q-57 -4 -71.5 -30 t-14.5 -71v-92q0 -72 50 -105.5t138 -33.5zM1092 158v-158h-312l-4 193h-8q-43 -111 -127 -164.5t-201 -53.5q-78 0 -141 24t-109 71q-41 41 -63.5 98t-22.5 119q0 123 78 211t234 102l340 31v84q0 61 -15.5 101t-44 63.5t-68.5 33t-89 9.5q-98 0 -156.5 -44t-58.5 -145 h-185q0 74 32 135.5t86 106.5t127 69.5t157 24.5t156.5 -21.5t126 -64.5t83 -110.5t29.5 -159.5v-555h156z" />
<glyph unicode="&#xe6;" horiz-adv-x="1734" d="M834 152q-61 -86 -152.5 -131.5t-208.5 -45.5q-109 0 -172 24t-108 71q-41 41 -64 100t-23 137q0 61 22 117.5t61.5 99.5t95 68.5t123.5 25.5h350v97q0 61 -15.5 101t-44 63.5t-68.5 33t-89 9.5q-98 0 -156.5 -44t-58.5 -145h-185q0 74 32 135.5t86 106.5t127 69.5 t157 24.5q111 0 195.5 -34t138.5 -105q57 66 135 102.5t176 36.5q104 0 185 -39t136.5 -106.5t85 -158.5t29.5 -196v-98h-682v-111q0 -57 21.5 -101t57.5 -74.5t80 -46t89 -15.5q92 0 161.5 50t80.5 159h184q-6 -84 -44 -149.5t-96.5 -111.5t-133 -71t-154.5 -25 q-121 0 -205 45.5t-145 131.5h-4zM942 618h492v58q0 57 -20.5 103t-54.5 78t-79 48.5t-92 16.5t-92 -16.5t-79 -48.5t-54.5 -78t-20.5 -103v-58zM489 123q125 0 197 89t72 230v29h-371q-41 0 -63.5 -25.5t-22.5 -70.5v-113q0 -72 50 -105.5t138 -33.5z" />
<glyph unicode="&#xe7;" horiz-adv-x="1093" d="M348 -215h144v143h143v-276h-287v133zM117 514q0 125 29.5 228.5t87 175t141.5 111.5t190 40q82 0 155 -21.5t128 -66.5t90 -114.5t43 -164.5h-184q-6 63 -26.5 105.5t-53.5 68t-75 36t-87 10.5q-47 0 -90 -15.5t-78 -46.5t-55.5 -77t-20.5 -107v-307q0 -55 19.5 -101.5 t53.5 -78t78 -49t95 -17.5q102 0 170 55t78 172h184q-10 -96 -49 -166.5t-96.5 -117t-130 -69t-152.5 -22.5q-115 0 -197.5 40t-138 113t-82 171t-26.5 215z" />
<glyph unicode="&#xe8;" horiz-adv-x="1122" d="M662 1174h-160l-217 249h215zM115 522q0 119 29.5 220.5t88 173t141.5 112.5t191 41q113 0 197 -39t139 -106.5t83 -158.5t28 -196v-98h-703v-111q0 -57 21.5 -101t58.5 -74.5t83 -46t95 -15.5q98 0 170 50t82 159h185q-6 -84 -44 -149.5t-98.5 -111.5t-136.5 -71 t-160 -25q-113 0 -197.5 41t-141 113t-84 172t-27.5 221zM309 618h512v58q0 57 -20.5 103t-56 78t-82 48.5t-97.5 16.5t-97 -16.5t-82 -48.5t-56.5 -78t-20.5 -103v-58z" />
<glyph unicode="&#xe9;" horiz-adv-x="1122" d="M637 1423h215l-217 -249h-160zM115 522q0 119 29.5 220.5t88 173t141.5 112.5t191 41q113 0 197 -39t139 -106.5t83 -158.5t28 -196v-98h-703v-111q0 -57 21.5 -101t58.5 -74.5t83 -46t95 -15.5q98 0 170 50t82 159h185q-6 -84 -44 -149.5t-98.5 -111.5t-136.5 -71 t-160 -25q-113 0 -197.5 41t-141 113t-84 172t-27.5 221zM309 618h512v58q0 57 -20.5 103t-56 78t-82 48.5t-97.5 16.5t-97 -16.5t-82 -48.5t-56.5 -78t-20.5 -103v-58z" />
<glyph unicode="&#xea;" horiz-adv-x="1122" d="M446 1174h-157l170 249h211l170 -249h-160l-117 149zM115 522q0 119 29.5 220.5t88 173t141.5 112.5t191 41q113 0 197 -39t139 -106.5t83 -158.5t28 -196v-98h-703v-111q0 -57 21.5 -101t58.5 -74.5t83 -46t95 -15.5q98 0 170 50t82 159h185q-6 -84 -44 -149.5 t-98.5 -111.5t-136.5 -71t-160 -25q-113 0 -197.5 41t-141 113t-84 172t-27.5 221zM309 618h512v58q0 57 -20.5 103t-56 78t-82 48.5t-97.5 16.5t-97 -16.5t-82 -48.5t-56.5 -78t-20.5 -103v-58z" />
<glyph unicode="&#xeb;" horiz-adv-x="1122" d="M836 1212h-181v181h181v-181zM475 1212h-180v181h180v-181zM115 522q0 119 29.5 220.5t88 173t141.5 112.5t191 41q113 0 197 -39t139 -106.5t83 -158.5t28 -196v-98h-703v-111q0 -57 21.5 -101t58.5 -74.5t83 -46t95 -15.5q98 0 170 50t82 159h185q-6 -84 -44 -149.5 t-98.5 -111.5t-136.5 -71t-160 -25q-113 0 -197.5 41t-141 113t-84 172t-27.5 221zM309 618h512v58q0 57 -20.5 103t-56 78t-82 48.5t-97.5 16.5t-97 -16.5t-82 -48.5t-56.5 -78t-20.5 -103v-58z" />
<glyph unicode="&#xec;" horiz-adv-x="524" d="M170 0v1044h184v-1044h-184zM389 1174h-160l-217 249h215z" />
<glyph unicode="&#xed;" horiz-adv-x="524" d="M170 0v1044h184v-1044h-184zM297 1423h215l-217 -249h-160z" />
<glyph unicode="&#xee;" horiz-adv-x="524" d="M170 0v1044h184v-1044h-184zM145 1174h-157l170 249h211l170 -249h-160l-117 149z" />
<glyph unicode="&#xef;" horiz-adv-x="524" d="M170 0v1044h184v-1044h-184zM532 1212h-180v181h180v-181zM172 1212h-180v181h180v-181z" />
<glyph unicode="&#xf0;" horiz-adv-x="1169" d="M586 1110h-275v127h193l-101 156h199l100 -156h277v-127h-193l109 -162q20 -31 48 -77t52.5 -104t42 -130t17.5 -156q0 -113 -32 -206t-91.5 -159.5t-147.5 -103.5t-198 -37q-111 0 -199 37t-147.5 103.5t-91 160t-31.5 205.5q0 111 28.5 203t83 159.5t129 105.5 t166.5 38q96 0 160 -29zM860 602q0 53 -22.5 97t-60.5 75t-88 48.5t-103 17.5q-55 0 -105.5 -17.5t-87.5 -48.5t-59.5 -75t-22.5 -97v-242q0 -53 22.5 -97t59.5 -74.5t87 -48t106 -17.5q55 0 105 17.5t87 48t59.5 74.5t22.5 97v242z" />
<glyph unicode="&#xf1;" horiz-adv-x="1167" d="M899 1393q0 -92 -48 -143.5t-134 -51.5q-43 0 -81 15.5t-73 34t-65.5 33.5t-57.5 15q-68 0 -67 -77h-103q0 92 48.5 143t134.5 51q43 0 80.5 -15.5t72.5 -33.5t65.5 -33.5t57.5 -15.5q68 0 68 78h102zM354 872q43 92 118 144.5t194 52.5q76 0 138 -20.5t107 -65.5 t70 -115.5t25 -171.5v-696h-185v676q0 115 -44 180.5t-163 65.5q-57 0 -104 -22.5t-82 -64.5t-54.5 -99.5t-19.5 -125.5v-610h-184v1044h184v-172z" />
<glyph unicode="&#xf2;" horiz-adv-x="1167" d="M657 1174h-159l-217 249h215zM1053 522q0 -121 -29 -221t-87 -172t-146.5 -113t-206.5 -41q-119 0 -207 41t-146.5 113t-87 172t-28.5 221q0 119 28.5 220.5t87 173t146.5 112.5t207 41t207 -41t146 -112.5t87 -173t29 -220.5zM858 684q0 53 -22.5 97t-59.5 75t-87 48.5 t-105 17.5t-105.5 -17.5t-87.5 -48.5t-59.5 -75t-22.5 -97v-324q0 -53 22.5 -97t59.5 -74.5t87 -48t106 -17.5q55 0 105 17.5t87 48t59.5 74.5t22.5 97v324z" />
<glyph unicode="&#xf3;" horiz-adv-x="1167" d="M653 1423h215l-217 -249h-159zM1053 522q0 -121 -29 -221t-87 -172t-146.5 -113t-206.5 -41q-119 0 -207 41t-146.5 113t-87 172t-28.5 221q0 119 28.5 220.5t87 173t146.5 112.5t207 41t207 -41t146 -112.5t87 -173t29 -220.5zM858 684q0 53 -22.5 97t-59.5 75t-87 48.5 t-105 17.5t-105.5 -17.5t-87.5 -48.5t-59.5 -75t-22.5 -97v-324q0 -53 22.5 -97t59.5 -74.5t87 -48t106 -17.5q55 0 105 17.5t87 48t59.5 74.5t22.5 97v324z" />
<glyph unicode="&#xf4;" horiz-adv-x="1167" d="M469 1174h-158l170 249h211l170 -249h-160l-116 149zM1053 522q0 -121 -29 -221t-87 -172t-146.5 -113t-206.5 -41q-119 0 -207 41t-146.5 113t-87 172t-28.5 221q0 119 28.5 220.5t87 173t146.5 112.5t207 41t207 -41t146 -112.5t87 -173t29 -220.5zM858 684 q0 53 -22.5 97t-59.5 75t-87 48.5t-105 17.5t-105.5 -17.5t-87.5 -48.5t-59.5 -75t-22.5 -97v-324q0 -53 22.5 -97t59.5 -74.5t87 -48t106 -17.5q55 0 105 17.5t87 48t59.5 74.5t22.5 97v324z" />
<glyph unicode="&#xf5;" horiz-adv-x="1167" d="M899 1393q0 -92 -48 -143.5t-134 -51.5q-43 0 -81 15.5t-73 34t-65.5 33.5t-57.5 15q-68 0 -67 -77h-103q0 92 48.5 143t134.5 51q43 0 80.5 -15.5t72.5 -33.5t65.5 -33.5t57.5 -15.5q68 0 68 78h102zM1053 522q0 -121 -29 -221t-87 -172t-146.5 -113t-206.5 -41 q-119 0 -207 41t-146.5 113t-87 172t-28.5 221q0 119 28.5 220.5t87 173t146.5 112.5t207 41t207 -41t146 -112.5t87 -173t29 -220.5zM858 684q0 53 -22.5 97t-59.5 75t-87 48.5t-105 17.5t-105.5 -17.5t-87.5 -48.5t-59.5 -75t-22.5 -97v-324q0 -53 22.5 -97t59.5 -74.5 t87 -48t106 -17.5q55 0 105 17.5t87 48t59.5 74.5t22.5 97v324z" />
<glyph unicode="&#xf6;" horiz-adv-x="1167" d="M856 1212h-180v181h180v-181zM496 1212h-181v181h181v-181zM1053 522q0 -121 -29 -221t-87 -172t-146.5 -113t-206.5 -41q-119 0 -207 41t-146.5 113t-87 172t-28.5 221q0 119 28.5 220.5t87 173t146.5 112.5t207 41t207 -41t146 -112.5t87 -173t29 -220.5zM858 684 q0 53 -22.5 97t-59.5 75t-87 48.5t-105 17.5t-105.5 -17.5t-87.5 -48.5t-59.5 -75t-22.5 -97v-324q0 -53 22.5 -97t59.5 -74.5t87 -48t106 -17.5q55 0 105 17.5t87 48t59.5 74.5t22.5 97v324z" />
<glyph unicode="&#xf7;" d="M719 834h-209v210h209v-210zM719 0h-209v211h209v-211zM1137 449h-1045v147h1045v-147z" />
<glyph unicode="&#xf8;" horiz-adv-x="1167" d="M471 141q51 -18 113 -18q55 0 105 17.5t87 48t59.5 74.5t22.5 97v324q0 41 -14.5 78t-38.5 65zM698 901q-57 20 -114 21q-55 0 -105.5 -17.5t-87.5 -48.5t-59.5 -75t-22.5 -97v-324q0 -43 14.5 -79.5t38.5 -65.5zM291 68q-90 72 -133 188.5t-43 265.5q0 119 28.5 220.5 t87 173t146.5 112.5t207 41q51 0 96 -8t86 -23l74 152l114 -55l-77 -160q90 -72 133 -188.5t43 -264.5q0 -121 -29 -221t-87 -172t-146.5 -113t-206.5 -41q-100 0 -181 29l-73 -149l-115 55z" />
<glyph unicode="&#xf9;" horiz-adv-x="1159" d="M719 1174h-160l-217 249h215zM805 172q-43 -92 -115 -144.5t-190 -52.5q-72 0 -134.5 20.5t-107.5 65.5t-70.5 116t-25.5 171v696h184v-675q0 -113 44 -179.5t161 -66.5t185.5 87t68.5 224v610h184v-1044h-184v172z" />
<glyph unicode="&#xfa;" horiz-adv-x="1159" d="M612 1423h215l-217 -249h-159zM805 172q-43 -92 -115 -144.5t-190 -52.5q-72 0 -134.5 20.5t-107.5 65.5t-70.5 116t-25.5 171v696h184v-675q0 -113 44 -179.5t161 -66.5t185.5 87t68.5 224v610h184v-1044h-184v172z" />
<glyph unicode="&#xfb;" horiz-adv-x="1159" d="M465 1174h-158l170 249h211l170 -249h-160l-116 149zM805 172q-43 -92 -115 -144.5t-190 -52.5q-72 0 -134.5 20.5t-107.5 65.5t-70.5 116t-25.5 171v696h184v-675q0 -113 44 -179.5t161 -66.5t185.5 87t68.5 224v610h184v-1044h-184v172z" />
<glyph unicode="&#xfc;" horiz-adv-x="1159" d="M850 1212h-180v181h180v-181zM489 1212h-180v181h180v-181zM805 172q-43 -92 -115 -144.5t-190 -52.5q-72 0 -134.5 20.5t-107.5 65.5t-70.5 116t-25.5 171v696h184v-675q0 -113 44 -179.5t161 -66.5t185.5 87t68.5 224v610h184v-1044h-184v172z" />
<glyph unicode="&#xfd;" horiz-adv-x="1067" d="M592 1423h215l-217 -249h-160zM541 227l280 817h191l-512 -1392h-357v158h240l66 190l-388 1044h199l272 -817h9z" />
<glyph unicode="&#xfe;" horiz-adv-x="1218" d="M354 434q0 -135 74 -223t213 -88q117 0 191.5 65.5t74.5 171.5v324q0 106 -74.5 172t-191.5 66q-139 0 -213 -88.5t-74 -223.5v-176zM354 -348h-184v1741h184v-519q49 94 132 144.5t202 50.5q104 0 182 -43t129.5 -116.5t77 -174t25.5 -213.5q0 -115 -25.5 -214t-77 -173 t-129 -117t-182.5 -43q-119 0 -202 50.5t-132 144.5v-518z" />
<glyph unicode="&#xff;" horiz-adv-x="1067" d="M811 1212h-180v181h180v-181zM451 1212h-181v181h181v-181zM541 227l280 817h191l-512 -1392h-357v158h240l66 190l-388 1044h199l272 -817h9z" />
<glyph unicode="&#x102;" horiz-adv-x="1292" d="M492 1772q0 -70 44 -116t109 -46q66 0 110 46t44 116h123q0 -57 -21.5 -107.5t-59.5 -88.5t-88.5 -59.5t-107.5 -21.5t-107.5 21.5t-88 59.5t-59 88t-21.5 108h123zM422 504h444l-217 672h-8zM918 344h-547l-115 -344h-201l482 1393h217l483 -1393h-205z" />
<glyph unicode="&#x103;" horiz-adv-x="1128" d="M379 1423q0 -70 44 -115.5t109 -45.5q66 0 110 46t44 115h123q0 -57 -21.5 -107t-59.5 -88t-88 -59.5t-108 -21.5q-57 0 -107 21.5t-88 59.5t-59.5 88t-21.5 107h123zM487 123q125 0 197 89t72 230v47l-371 -34q-57 -4 -71.5 -30t-14.5 -71v-92q0 -72 50 -105.5 t138 -33.5zM1092 158v-158h-312l-4 193h-8q-43 -111 -127 -164.5t-201 -53.5q-78 0 -141 24t-109 71q-41 41 -63.5 98t-22.5 119q0 123 78 211t234 102l340 31v84q0 61 -15.5 101t-44 63.5t-68.5 33t-89 9.5q-98 0 -156.5 -44t-58.5 -145h-185q0 74 32 135.5t86 106.5 t127 69.5t157 24.5t156.5 -21.5t126 -64.5t83 -110.5t29.5 -159.5v-555h156z" />
<glyph unicode="&#x104;" horiz-adv-x="1292" d="M1174 -348h-287v133l143 143h133l-133 -143h144v-133zM422 504h444l-217 672h-8zM918 344h-547l-115 -344h-201l482 1393h217l483 -1393h-205z" />
<glyph unicode="&#x105;" horiz-adv-x="1128" d="M918 -348h-287v133l143 143h133l-133 -143h144v-133zM487 123q125 0 197 89t72 230v47l-371 -34q-57 -4 -71.5 -30t-14.5 -71v-92q0 -72 50 -105.5t138 -33.5zM1092 158v-158h-312l-4 193h-8q-43 -111 -127 -164.5t-201 -53.5q-78 0 -141 24t-109 71q-41 41 -63.5 98 t-22.5 119q0 123 78 211t234 102l340 31v84q0 61 -15.5 101t-44 63.5t-68.5 33t-89 9.5q-98 0 -156.5 -44t-58.5 -145h-185q0 74 32 135.5t86 106.5t127 69.5t157 24.5t156.5 -21.5t126 -64.5t83 -110.5t29.5 -159.5v-555h156z" />
<glyph unicode="&#x106;" horiz-adv-x="1314" d="M731 1772h215l-217 -250h-160zM696 -31q-139 0 -245.5 50.5t-178 144.5t-109.5 225t-38 295q0 170 35 307t106.5 233.5t180 147.5t253.5 51q100 0 187.5 -29.5t153 -85t105.5 -134t46 -177.5h-195q-14 123 -96 189.5t-219 66.5q-74 0 -136.5 -25.5t-108.5 -70.5 t-71.5 -107.5t-25.5 -138.5v-430q0 -74 27.5 -136t76 -108.5t113 -72t137.5 -25.5q139 0 225.5 62.5t100.5 204.5h194q-6 -98 -48 -179.5t-110.5 -137.5t-161 -88t-198.5 -32z" />
<glyph unicode="&#x107;" horiz-adv-x="1093" d="M606 1423h215l-217 -249h-160zM117 514q0 125 29.5 228.5t87 175t141.5 111.5t190 40q82 0 155 -21.5t128 -66.5t90 -114.5t43 -164.5h-184q-6 63 -26.5 105.5t-53.5 68t-75 36t-87 10.5q-47 0 -90 -15.5t-78 -46.5t-55.5 -77t-20.5 -107v-307q0 -55 19.5 -101.5 t53.5 -78t78 -49t95 -17.5q102 0 170 55t78 172h184q-10 -96 -49 -166.5t-96.5 -117t-130 -69t-152.5 -22.5q-115 0 -197.5 40t-138 113t-82 171t-26.5 215z" />
<glyph unicode="&#x10c;" horiz-adv-x="1314" d="M676 1622l117 150h159l-170 -250h-211l-170 250h158zM696 -31q-139 0 -245.5 50.5t-178 144.5t-109.5 225t-38 295q0 170 35 307t106.5 233.5t180 147.5t253.5 51q100 0 187.5 -29.5t153 -85t105.5 -134t46 -177.5h-195q-14 123 -96 189.5t-219 66.5q-74 0 -136.5 -25.5 t-108.5 -70.5t-71.5 -107.5t-25.5 -138.5v-430q0 -74 27.5 -136t76 -108.5t113 -72t137.5 -25.5q139 0 225.5 62.5t100.5 204.5h194q-6 -98 -48 -179.5t-110.5 -137.5t-161 -88t-198.5 -32z" />
<glyph unicode="&#x10d;" horiz-adv-x="1093" d="M547 1274l117 149h159l-170 -249h-211l-170 249h158zM117 514q0 125 29.5 228.5t87 175t141.5 111.5t190 40q82 0 155 -21.5t128 -66.5t90 -114.5t43 -164.5h-184q-6 63 -26.5 105.5t-53.5 68t-75 36t-87 10.5q-47 0 -90 -15.5t-78 -46.5t-55.5 -77t-20.5 -107v-307 q0 -55 19.5 -101.5t53.5 -78t78 -49t95 -17.5q102 0 170 55t78 172h184q-10 -96 -49 -166.5t-96.5 -117t-130 -69t-152.5 -22.5q-115 0 -197.5 40t-138 113t-82 171t-26.5 215z" />
<glyph unicode="&#x10e;" horiz-adv-x="1366" d="M645 1622l117 150h160l-170 -250h-211l-170 250h157zM383 1219v-1045h256q197 0 290 82t93 236v409q0 154 -93 236t-290 82h-256zM639 1393q315 0 456.5 -173t141.5 -524q0 -350 -141.5 -523t-456.5 -173h-451v1393h451z" />
<glyph unicode="&#x10f;" horiz-adv-x="1349" d="M1397 1167l-127 -225h-99l121 225h-121v226h226v-226zM864 0v170q-49 -94 -131 -144.5t-198 -50.5q-106 0 -184.5 43t-130.5 117t-77.5 173.5t-25.5 213.5q0 113 25.5 213.5t76.5 174t129 116.5t182 43q117 0 201 -50t133 -145v519h185v-1393h-185zM864 610 q0 135 -73.5 223.5t-212.5 88.5q-57 0 -105.5 -17.5t-84.5 -48.5t-56.5 -75t-20.5 -97v-324q0 -53 20.5 -97t56.5 -74.5t84 -48t106 -17.5q139 0 212.5 88t73.5 223v176z" />
<glyph unicode="&#x110;" horiz-adv-x="1380" d="M717 623h-320v-449h256q197 0 290 82t93 236v409q0 154 -93 236t-290 82h-256v-449h320v-147zM653 1393q315 0 456.5 -173t141.5 -524q0 -350 -141 -523t-457 -173h-450v623h-148v147h148v623h450z" />
<glyph unicode="&#x111;" horiz-adv-x="1218" d="M864 610q0 135 -73.5 223.5t-212.5 88.5q-57 0 -105.5 -17.5t-84.5 -48.5t-56.5 -75t-20.5 -97v-324q0 -53 20.5 -97t56.5 -74.5t84 -48t106 -17.5q139 0 212.5 88t73.5 223v176zM557 1274h307v119h185v-119h190v-123h-190v-1151h-185v170q-49 -94 -131 -144.5 t-198 -50.5q-106 0 -184.5 43t-130.5 117t-77.5 173.5t-25.5 213.5q0 113 25.5 213.5t76.5 174t129 116.5t182 43q117 0 201 -50t133 -145v277h-307v123z" />
<glyph unicode="&#x118;" horiz-adv-x="1232" d="M741 -348h-286v133l143 143h133l-133 -143h143v-133zM188 1393h924v-174h-729v-422h635v-174h-635v-449h729v-174h-924v1393z" />
<glyph unicode="&#x119;" horiz-adv-x="1122" d="M653 -348h-286v133l143 143h133l-133 -143h143v-133zM115 522q0 119 29.5 220.5t88 173t141.5 112.5t191 41q113 0 197 -39t139 -106.5t83 -158.5t28 -196v-98h-703v-111q0 -57 21.5 -101t58.5 -74.5t83 -46t95 -15.5q98 0 170 50t82 159h185q-6 -84 -44 -149.5 t-98.5 -111.5t-136.5 -71t-160 -25q-113 0 -197.5 41t-141 113t-84 172t-27.5 221zM309 618h512v58q0 57 -20.5 103t-56 78t-82 48.5t-97.5 16.5t-97 -16.5t-82 -48.5t-56.5 -78t-20.5 -103v-58z" />
<glyph unicode="&#x11a;" horiz-adv-x="1232" d="M649 1622l117 150h160l-170 -250h-211l-170 250h157zM188 1393h924v-174h-729v-422h635v-174h-635v-449h729v-174h-924v1393z" />
<glyph unicode="&#x11b;" horiz-adv-x="1122" d="M563 1274l117 149h160l-170 -249h-211l-170 249h157zM115 522q0 119 29.5 220.5t88 173t141.5 112.5t191 41q113 0 197 -39t139 -106.5t83 -158.5t28 -196v-98h-703v-111q0 -57 21.5 -101t58.5 -74.5t83 -46t95 -15.5q98 0 170 50t82 159h185q-6 -84 -44 -149.5 t-98.5 -111.5t-136.5 -71t-160 -25q-113 0 -197.5 41t-141 113t-84 172t-27.5 221zM309 618h512v58q0 57 -20.5 103t-56 78t-82 48.5t-97.5 16.5t-97 -16.5t-82 -48.5t-56.5 -78t-20.5 -103v-58z" />
<glyph unicode="&#x11e;" horiz-adv-x="1376" d="M532 1772q0 -70 44.5 -116t109.5 -46q66 0 110 46t44 116h123q0 -57 -21.5 -107.5t-59.5 -88.5t-88.5 -59.5t-107.5 -21.5t-107.5 21.5t-88 59.5t-59 88t-21.5 108h122zM125 684q0 174 36 311.5t107.5 232.5t182 145t260.5 50q104 0 193 -29.5t154.5 -85t106.5 -134 t47 -177.5h-194q-14 123 -97 189.5t-229 66.5q-78 0 -142.5 -25.5t-110.5 -70.5t-72.5 -107.5t-26.5 -138.5v-430q0 -74 27.5 -136t76 -108.5t115 -72t143.5 -25.5q162 0 250 86t88 250v94h-315v174h510v-743h-186l-9 147q-53 -80 -137 -129t-217 -49t-237.5 50.5 t-176 143.5t-109.5 225t-38 296z" />
<glyph unicode="&#x11f;" horiz-adv-x="1218" d="M500 1423q0 -70 44 -115.5t109 -45.5q66 0 110 46t44 115h123q0 -57 -21.5 -107t-59.5 -88t-88 -59.5t-108 -21.5q-57 0 -107 21.5t-88 59.5t-59.5 88t-21.5 107h123zM1049 20q0 -109 -39 -187.5t-102.5 -130.5t-144.5 -76.5t-165 -24.5q-82 0 -156.5 16t-135 54 t-100.5 100.5t-52 156.5h184q10 -90 76.5 -135t175.5 -45q53 0 103 15.5t88 49t60.5 87t22.5 129.5v141q-49 -94 -131 -144.5t-198 -50.5q-106 0 -184.5 43t-130.5 117t-77.5 173.5t-25.5 213.5q0 113 25.5 213.5t76.5 174t129 116.5t182 43q117 0 201 -50t133 -145v170h185 v-1024zM864 610q0 135 -73.5 223.5t-212.5 88.5q-57 0 -105.5 -17.5t-84.5 -48.5t-56.5 -75t-20.5 -97v-324q0 -53 20.5 -97t56.5 -74.5t84 -48t106 -17.5q139 0 212.5 88t73.5 223v176z" />
<glyph unicode="&#x130;" horiz-adv-x="571" d="M377 1561h-180v180h180v-180zM188 1393h195v-1393h-195v1393z" />
<glyph unicode="&#x131;" horiz-adv-x="524" d="M170 0v1044h184v-1044h-184z" />
<glyph unicode="&#x141;" horiz-adv-x="1095" d="M233 522l-196 -114v167l196 115v703h195v-590l311 182v-168l-311 -182v-461h631v-174h-826v522z" />
<glyph unicode="&#x142;" horiz-adv-x="628" d="M412 719v-719h-185v610l-155 -90v168l155 90v615h185v-506l155 90v-168z" />
<glyph unicode="&#x143;" horiz-adv-x="1423" d="M707 1772h215l-217 -250h-160zM1047 236v1157h188v-1393h-274l-576 1163h-8v-1163h-189v1393h275l575 -1157h9z" />
<glyph unicode="&#x144;" horiz-adv-x="1167" d="M600 1423h215l-217 -249h-160zM354 872q43 92 118 144.5t194 52.5q76 0 138 -20.5t107 -65.5t70 -115.5t25 -171.5v-696h-185v676q0 115 -44 180.5t-163 65.5q-57 0 -104 -22.5t-82 -64.5t-54.5 -99.5t-19.5 -125.5v-610h-184v1044h184v-172z" />
<glyph unicode="&#x147;" horiz-adv-x="1423" d="M711 1622l116 150h160l-170 -250h-211l-170 250h158zM1047 236v1157h188v-1393h-274l-576 1163h-8v-1163h-189v1393h275l575 -1157h9z" />
<glyph unicode="&#x148;" horiz-adv-x="1167" d="M604 1274l117 149h160l-170 -249h-211l-170 249h157zM354 872q43 92 118 144.5t194 52.5q76 0 138 -20.5t107 -65.5t70 -115.5t25 -171.5v-696h-185v676q0 115 -44 180.5t-163 65.5q-57 0 -104 -22.5t-82 -64.5t-54.5 -99.5t-19.5 -125.5v-610h-184v1044h184v-172z" />
<glyph unicode="&#x150;" horiz-adv-x="1445" d="M940 1772h215l-207 -250h-160zM606 1772h215l-207 -250h-159zM723 139q80 0 149.5 23.5t122 68.5t82 107.5t29.5 142.5v430q0 80 -29.5 142.5t-82 107.5t-122 68.5t-149.5 23.5t-149.5 -23.5t-122 -68.5t-82 -107.5t-29.5 -142.5v-430q0 -80 29.5 -142.5t82 -107.5 t122 -68.5t149.5 -23.5zM1321 696q0 -164 -35 -298t-107.5 -229t-185 -147.5t-270.5 -52.5t-270.5 52.5t-185 147.5t-107.5 229t-35 298t35 298t107.5 229.5t185 147.5t270.5 52t270.5 -52t185 -147.5t107.5 -229.5t35 -298z" />
<glyph unicode="&#x151;" horiz-adv-x="1167" d="M801 1423h215l-207 -249h-160zM467 1423h215l-207 -249h-160zM1053 522q0 -121 -29 -221t-87 -172t-146.5 -113t-206.5 -41q-119 0 -207 41t-146.5 113t-87 172t-28.5 221q0 119 28.5 220.5t87 173t146.5 112.5t207 41t207 -41t146 -112.5t87 -173t29 -220.5zM858 684 q0 53 -22.5 97t-59.5 75t-87 48.5t-105 17.5t-105.5 -17.5t-87.5 -48.5t-59.5 -75t-22.5 -97v-324q0 -53 22.5 -97t59.5 -74.5t87 -48t106 -17.5q55 0 105 17.5t87 48t59.5 74.5t22.5 97v324z" />
<glyph unicode="&#x152;" horiz-adv-x="2150" d="M1106 98q-72 -63 -166 -96t-217 -33q-158 0 -270.5 52.5t-185 147.5t-107.5 229t-35 298t35 298t107.5 229.5t185 147.5t270.5 52q123 0 217 -32.5t166 -96.5v99h924v-174h-730v-422h635v-174h-635v-449h730v-174h-924v98zM723 139q80 0 149.5 23.5t122 68.5t82 107.5 t29.5 142.5v430q0 80 -29.5 142.5t-82 107.5t-122 68.5t-149.5 23.5t-149.5 -23.5t-122 -68.5t-82 -107.5t-29.5 -142.5v-430q0 -80 29.5 -142.5t82 -107.5t122 -68.5t149.5 -23.5z" />
<glyph unicode="&#x153;" horiz-adv-x="1855" d="M952 897q59 82 145.5 127t200.5 45q106 0 190.5 -39t141 -106.5t86 -158.5t29.5 -196v-98h-703v-111q0 -57 21.5 -101t58.5 -74.5t83 -46t95 -15.5q98 0 170 50t82 159h185q-6 -84 -44 -149.5t-98.5 -111.5t-136.5 -71t-160 -25q-119 0 -205.5 44t-144.5 124 q-59 -78 -148 -123t-216 -45q-119 0 -207 41t-146.5 113t-87 172t-28.5 221q0 119 28.5 220.5t87 173t146.5 112.5t207 41q127 0 218 -45t150 -127zM1042 618h512v58q0 57 -20.5 103t-56 78t-81.5 48.5t-98 16.5q-51 0 -97 -16.5t-82 -48.5t-56.5 -78t-20.5 -103v-58z M858 684q0 53 -22.5 97t-59.5 75t-87 48.5t-105 17.5t-105.5 -17.5t-87.5 -48.5t-59.5 -75t-22.5 -97v-324q0 -53 22.5 -97t59.5 -74.5t87 -48t106 -17.5q55 0 105 17.5t87 48t59.5 74.5t22.5 97v324z" />
<glyph unicode="&#x158;" horiz-adv-x="1275" d="M629 1622l116 150h160l-170 -250h-211l-170 250h158zM784 754q78 0 119 47t41 112v154q0 72 -43 112t-117 40h-401v-465h401zM383 588v-588h-195v1393h525q109 0 192.5 -25t138.5 -76t80 -125.5t25 -173.5q0 -92 -23.5 -166.5t-76.5 -128.5q-41 -41 -95.5 -67.5 t-136.5 -36.5l344 -594h-223l-326 588h-229z" />
<glyph unicode="&#x159;" horiz-adv-x="731" d="M420 1274l117 149h159l-170 -249h-211l-170 249h158zM170 1044h502v-159h-318v-885h-184v1044z" />
<glyph unicode="&#x15a;" horiz-adv-x="1261" d="M662 1772h215l-218 -250h-159zM621 1253q-133 0 -210 -53t-77 -145q0 -98 53 -145.5t170 -80.5l223 -61q90 -25 161 -57.5t119 -80.5t72.5 -111.5t24.5 -149.5q0 -92 -42 -166t-112.5 -126t-165 -80t-198.5 -28t-198.5 25.5t-168 79t-121 135.5t-55.5 197h195 q16 -141 110.5 -204t233.5 -63q70 0 129 14.5t103 43t70 70.5t26 98q0 90 -50.5 141t-160.5 82l-273 76q-172 47 -254 142t-82 249q0 78 34 145.5t97.5 116.5t150.5 77.5t196 28.5q100 0 187 -23.5t153.5 -73.5t108.5 -128t52 -184h-194q-6 70 -34 116t-70 73.5t-94 38.5 t-109 11z" />
<glyph unicode="&#x15b;" horiz-adv-x="1042" d="M539 1423h215l-217 -249h-160zM633 592q156 -33 231.5 -106.5t75.5 -200.5q0 -66 -29.5 -122.5t-85 -97t-131.5 -65.5t-168 -25q-88 0 -164.5 22.5t-134 67t-90.5 111t-35 154.5h185q4 -104 74.5 -155.5t166.5 -51.5q92 0 160 41t68 119q0 63 -41 101t-146 58l-172 35 q-129 27 -198.5 99.5t-69.5 195.5q0 61 27.5 115.5t79 94.5t121 63.5t155.5 23.5q74 0 144.5 -19.5t126 -60.5t89 -104.5t35.5 -151.5h-184q-4 104 -64.5 146.5t-144.5 42.5q-86 0 -145.5 -41t-59.5 -107q0 -61 35 -95t113 -50z" />
<glyph unicode="&#x15e;" horiz-adv-x="1261" d="M422 -215h143v143h144v-276h-287v133zM621 1253q-133 0 -210 -53t-77 -145q0 -98 53 -145.5t170 -80.5l223 -61q90 -25 161 -57.5t119 -80.5t72.5 -111.5t24.5 -149.5q0 -92 -42 -166t-112.5 -126t-165 -80t-198.5 -28t-198.5 25.5t-168 79t-121 135.5t-55.5 197h195 q16 -141 110.5 -204t233.5 -63q70 0 129 14.5t103 43t70 70.5t26 98q0 90 -50.5 141t-160.5 82l-273 76q-172 47 -254 142t-82 249q0 78 34 145.5t97.5 116.5t150.5 77.5t196 28.5q100 0 187 -23.5t153.5 -73.5t108.5 -128t52 -184h-194q-6 70 -34 116t-70 73.5t-94 38.5 t-109 11z" />
<glyph unicode="&#x15f;" horiz-adv-x="1042" d="M299 -215h143v143h144v-276h-287v133zM633 592q156 -33 231.5 -106.5t75.5 -200.5q0 -66 -29.5 -122.5t-85 -97t-131.5 -65.5t-168 -25q-88 0 -164.5 22.5t-134 67t-90.5 111t-35 154.5h185q4 -104 74.5 -155.5t166.5 -51.5q92 0 160 41t68 119q0 63 -41 101t-146 58 l-172 35q-129 27 -198.5 99.5t-69.5 195.5q0 61 27.5 115.5t79 94.5t121 63.5t155.5 23.5q74 0 144.5 -19.5t126 -60.5t89 -104.5t35.5 -151.5h-184q-4 104 -64.5 146.5t-144.5 42.5q-86 0 -145.5 -41t-59.5 -107q0 -61 35 -95t113 -50z" />
<glyph unicode="&#x160;" horiz-adv-x="1261" d="M627 1653l116 149h160l-170 -250h-211l-170 250h158zM621 1253q-133 0 -210 -53t-77 -145q0 -98 53 -145.5t170 -80.5l223 -61q90 -25 161 -57.5t119 -80.5t72.5 -111.5t24.5 -149.5q0 -92 -42 -166t-112.5 -126t-165 -80t-198.5 -28t-198.5 25.5t-168 79t-121 135.5 t-55.5 197h195q16 -141 110.5 -204t233.5 -63q70 0 129 14.5t103 43t70 70.5t26 98q0 90 -50.5 141t-160.5 82l-273 76q-172 47 -254 142t-82 249q0 78 34 145.5t97.5 116.5t150.5 77.5t196 28.5q100 0 187 -23.5t153.5 -73.5t108.5 -128t52 -184h-194q-6 70 -34 116 t-70 73.5t-94 38.5t-109 11z" />
<glyph unicode="&#x161;" horiz-adv-x="1042" d="M504 1274l117 149h159l-170 -249h-211l-170 249h158zM633 592q156 -33 231.5 -106.5t75.5 -200.5q0 -66 -29.5 -122.5t-85 -97t-131.5 -65.5t-168 -25q-88 0 -164.5 22.5t-134 67t-90.5 111t-35 154.5h185q4 -104 74.5 -155.5t166.5 -51.5q92 0 160 41t68 119 q0 63 -41 101t-146 58l-172 35q-129 27 -198.5 99.5t-69.5 195.5q0 61 27.5 115.5t79 94.5t121 63.5t155.5 23.5q74 0 144.5 -19.5t126 -60.5t89 -104.5t35.5 -151.5h-184q-4 104 -64.5 146.5t-144.5 42.5q-86 0 -145.5 -41t-59.5 -107q0 -61 35 -95t113 -50z" />
<glyph unicode="&#x162;" horiz-adv-x="1107" d="M338 -215h143v143h144v-276h-287v133zM41 1393h1026v-174h-416v-1219h-194v1219h-416v174z" />
<glyph unicode="&#x163;" horiz-adv-x="753" d="M240 -215h143v143h143v-276h-286v133zM426 158h242v-158h-422v887h-176v157h176v349h180v-349h242v-157h-242v-729z" />
<glyph unicode="&#x164;" horiz-adv-x="1107" d="M553 1622l117 150h159l-170 -250h-210l-170 250h157zM41 1393h1026v-174h-416v-1219h-194v1219h-416v174z" />
<glyph unicode="&#x165;" horiz-adv-x="919" d="M983 1167l-127 -225h-98l121 225h-121v226h225v-226zM428 158h240v-158h-422v887h-176v157h176v349h182v-349h240v-157h-240v-729z" />
<glyph unicode="&#x16e;" horiz-adv-x="1400" d="M791 1681q0 37 -25 64t-66 27t-66.5 -27t-25.5 -64t25.5 -64.5t66.5 -27.5t66 27.5t25 64.5zM883 1681q0 -70 -48.5 -123t-134.5 -53t-134 53.5t-48 122.5q0 68 48 122.5t134 54.5t134.5 -54.5t48.5 -122.5zM1032 1393h193v-897q0 -123 -37 -220.5t-105.5 -165 t-166 -104.5t-216.5 -37t-216 37t-165.5 104.5t-105.5 165t-37 220.5v897h195v-912q0 -160 85 -251t244 -91q160 0 246 91.5t86 250.5v912z" />
<glyph unicode="&#x16f;" horiz-adv-x="1159" d="M674 1333q0 37 -24.5 63.5t-65.5 26.5t-66.5 -26.5t-25.5 -63.5t25.5 -64.5t66.5 -27.5t65.5 27.5t24.5 64.5zM766 1333q0 -70 -48 -123t-134 -53t-134.5 53.5t-48.5 122.5q0 68 48.5 122t134.5 54t134 -54t48 -122zM805 172q-43 -92 -115 -144.5t-190 -52.5 q-72 0 -134.5 20.5t-107.5 65.5t-70.5 116t-25.5 171v696h184v-675q0 -113 44 -179.5t161 -66.5t185.5 87t68.5 224v610h184v-1044h-184v172z" />
<glyph unicode="&#x170;" horiz-adv-x="1400" d="M918 1772h215l-207 -250h-160zM584 1772h215l-207 -250h-160zM1032 1393h193v-897q0 -123 -37 -220.5t-105.5 -165t-166 -104.5t-216.5 -37t-216 37t-165.5 104.5t-105.5 165t-37 220.5v897h195v-912q0 -160 85 -251t244 -91q160 0 246 91.5t86 250.5v912z" />
<glyph unicode="&#x171;" horiz-adv-x="1159" d="M801 1423h215l-207 -249h-160zM467 1423h215l-207 -249h-160zM805 172q-43 -92 -115 -144.5t-190 -52.5q-72 0 -134.5 20.5t-107.5 65.5t-70.5 116t-25.5 171v696h184v-675q0 -113 44 -179.5t161 -66.5t185.5 87t68.5 224v610h184v-1044h-184v172z" />
<glyph unicode="&#x178;" horiz-adv-x="1206" d="M877 1569h-181v180h181v-180zM516 1569h-180v180h180v-180zM43 1393h213l348 -648l354 648h207l-465 -840v-553h-194v555z" />
<glyph unicode="&#x179;" horiz-adv-x="1214" d="M657 1772h215l-217 -250h-159zM1100 1219l-776 -1045h774v-174h-998v174l779 1045h-746v174h967v-174z" />
<glyph unicode="&#x17a;" horiz-adv-x="995" d="M547 1423h215l-217 -249h-160zM885 158v-158h-787v158l561 729h-520v157h733v-157l-561 -729h574z" />
<glyph unicode="&#x17b;" horiz-adv-x="1214" d="M692 1561h-180v180h180v-180zM1100 1219l-776 -1045h774v-174h-998v174l779 1045h-746v174h967v-174z" />
<glyph unicode="&#x17c;" horiz-adv-x="995" d="M582 1212h-181v181h181v-181zM885 158v-158h-787v158l561 729h-520v157h733v-157l-561 -729h574z" />
<glyph unicode="&#x17d;" horiz-adv-x="1214" d="M610 1653l117 149h160l-170 -250h-211l-170 250h158zM1100 1219l-776 -1045h774v-174h-998v174l779 1045h-746v174h967v-174z" />
<glyph unicode="&#x17e;" horiz-adv-x="995" d="M514 1274l117 149h160l-170 -249h-211l-170 249h157zM885 158v-158h-787v158l561 729h-520v157h733v-157l-561 -729h574z" />
<glyph unicode="&#x218;" horiz-adv-x="1261" d="M621 1253q-133 0 -210 -53t-77 -145q0 -98 53 -145.5t170 -80.5l223 -61q90 -25 161 -57.5t119 -80.5t72.5 -111.5t24.5 -149.5q0 -92 -42 -166t-112.5 -126t-165 -80t-198.5 -28t-198.5 25.5t-168 79t-121 135.5t-55.5 197h195q16 -141 110.5 -204t233.5 -63 q70 0 129 14.5t103 43t70 70.5t26 98q0 90 -50.5 141t-160.5 82l-273 76q-172 47 -254 142t-82 249q0 78 34 145.5t97.5 116.5t150.5 77.5t196 28.5q100 0 187 -23.5t153.5 -73.5t108.5 -128t52 -184h-194q-6 70 -34 116t-70 73.5t-94 38.5t-109 11zM723 -307l-102 -180h-78 l96 180h-96v180h180v-180z" />
<glyph unicode="&#x219;" horiz-adv-x="1042" d="M633 592q156 -33 231.5 -106.5t75.5 -200.5q0 -66 -29.5 -122.5t-85 -97t-131.5 -65.5t-168 -25q-88 0 -164.5 22.5t-134 67t-90.5 111t-35 154.5h185q4 -104 74.5 -155.5t166.5 -51.5q92 0 160 41t68 119q0 63 -41 101t-146 58l-172 35q-129 27 -198.5 99.5t-69.5 195.5 q0 61 27.5 115.5t79 94.5t121 63.5t155.5 23.5q74 0 144.5 -19.5t126 -60.5t89 -104.5t35.5 -151.5h-184q-4 104 -64.5 146.5t-144.5 42.5q-86 0 -145.5 -41t-59.5 -107q0 -61 35 -96t113 -49zM612 -307l-102 -180h-78l96 180h-96v180h180v-180z" />
<glyph unicode="&#x21a;" horiz-adv-x="1107" d="M643 -307l-102 -180h-78l96 180h-96v180h180v-180zM41 1393h1026v-174h-416v-1219h-194v1219h-416v174z" />
<glyph unicode="&#x21b;" horiz-adv-x="753" d="M545 -307l-103 -180h-77l96 180h-96v180h180v-180zM428 158h240v-158h-422v887h-176v157h176v349h182v-349h240v-157h-240v-729z" />
<glyph unicode="&#x2c6;" horiz-adv-x="614" d="M188 1174h-157l170 249h211l170 -249h-160l-117 149z" />
<glyph unicode="&#x2da;" horiz-adv-x="614" d="M397 1333q0 37 -24.5 63.5t-65.5 26.5t-66.5 -26.5t-25.5 -63.5t25.5 -64.5t66.5 -27.5t65.5 27.5t24.5 64.5zM489 1333q0 -70 -48 -123t-134 -53t-134 53.5t-48 122.5q0 68 48 122t134 54t134 -54t48 -122z" />
<glyph unicode="&#x2dc;" horiz-adv-x="614" d="M623 1393q0 -92 -48.5 -143.5t-134.5 -51.5q-43 0 -80.5 15.5t-72.5 34t-66 33.5t-57 15q-68 0 -68 -77h-102q0 92 48 143t134 51q43 0 81 -15.5t73 -33.5t65.5 -33.5t57.5 -15.5q68 0 67 78h103z" />
<glyph unicode="&#x2000;" horiz-adv-x="944" />
<glyph unicode="&#x2001;" horiz-adv-x="1888" />
<glyph unicode="&#x2002;" horiz-adv-x="944" />
<glyph unicode="&#x2003;" horiz-adv-x="1888" />
<glyph unicode="&#x2004;" horiz-adv-x="629" />
<glyph unicode="&#x2005;" horiz-adv-x="472" />
<glyph unicode="&#x2006;" horiz-adv-x="314" />
<glyph unicode="&#x2007;" horiz-adv-x="314" />
<glyph unicode="&#x2008;" horiz-adv-x="236" />
<glyph unicode="&#x2009;" horiz-adv-x="377" />
<glyph unicode="&#x200a;" horiz-adv-x="104" />
<glyph unicode="&#x2010;" horiz-adv-x="884" d="M156 639h573v-168h-573v168z" />
<glyph unicode="&#x2011;" horiz-adv-x="884" d="M156 639h573v-168h-573v168z" />
<glyph unicode="&#x2012;" horiz-adv-x="884" d="M156 639h573v-168h-573v168z" />
<glyph unicode="&#x2013;" horiz-adv-x="1273" d="M156 639h962v-168h-962v168z" />
<glyph unicode="&#x2014;" horiz-adv-x="2318" d="M197 639h1925v-168h-1925v168z" />
<glyph unicode="&#x2018;" horiz-adv-x="526" d="M147 1167l127 226h99l-121 -226h121v-225h-226v225z" />
<glyph unicode="&#x2019;" horiz-adv-x="512" d="M383 1167l-127 -225h-98l121 225h-121v226h225v-226z" />
<glyph unicode="&#x201a;" horiz-adv-x="536" d="M381 0l-127 -225h-98l120 225h-120v225h225v-225z" />
<glyph unicode="&#x201c;" horiz-adv-x="915" d="M147 1167l127 226h99l-121 -226h121v-225h-226v225zM537 1167l127 226h98l-121 -226h121v-225h-225v225z" />
<glyph unicode="&#x201d;" horiz-adv-x="901" d="M772 1167l-127 -225h-98l121 225h-121v226h225v-226zM383 1167l-127 -225h-98l121 225h-121v226h225v-226z" />
<glyph unicode="&#x201e;" horiz-adv-x="925" d="M770 0l-127 -225h-98l121 225h-121v225h225v-225zM381 0l-127 -225h-98l120 225h-120v225h225v-225z" />
<glyph unicode="&#x2022;" horiz-adv-x="1069" d="M188 696q0 72 27 135.5t74 110.5t110.5 74.5t135.5 27.5t135 -27.5t110 -74.5t75 -110.5t28 -135.5t-28 -135t-75 -110.5t-110.5 -74t-134.5 -26.5q-72 0 -135.5 26.5t-110.5 74t-74 110.5t-27 135z" />
<glyph unicode="&#x2026;" horiz-adv-x="1888" d="M1733 0h-226v225h226v-225zM1057 0h-226v225h226v-225zM381 0h-225v225h225v-225z" />
<glyph unicode="&#x202f;" horiz-adv-x="377" />
<glyph unicode="&#x2039;" horiz-adv-x="634" d="M338 145l-219 381l219 381h164l-199 -381l199 -381h-164z" />
<glyph unicode="&#x203a;" horiz-adv-x="634" d="M133 145l199 381l-199 381h164l219 -381l-219 -381h-164z" />
<glyph unicode="&#x205f;" horiz-adv-x="472" />
<glyph unicode="&#x20ac;" d="M80 883h115q12 119 45.5 218t95 170.5t154 111.5t221.5 40q203 0 314.5 -106.5t125.5 -290.5h-184q-14 127 -80 182.5t-195 55.5q-154 0 -227.5 -99.5t-73.5 -253.5v-28h467l-41 -121h-426v-125h385l-41 -121h-344v-35q0 -78 21.5 -142.5t61.5 -110.5t96.5 -72.5 t123.5 -26.5q129 0 194.5 57.5t80.5 198.5h184q-14 -195 -137 -305.5t-320 -110.5q-117 0 -205 39t-149 110.5t-97 172t-50 225.5h-156l41 121h106v125h-147z" />
<glyph unicode="&#x2122;" horiz-adv-x="1781" d="M1391 1393h219v-697h-144v504l-176 -504h-133l-174 504v-504h-143v697h223l164 -488zM141 1393h561v-129h-208v-568h-144v568h-209v129z" />
<glyph unicode="&#x2190;" horiz-adv-x="1761" d="M866 1044l-436 -438h1147v-168h-1147l436 -438h-235l-447 449v147l447 448h235z" />
<glyph unicode="&#x2192;" horiz-adv-x="1761" d="M1130 1044l447 -448v-147l-447 -449h-235l436 438h-1147v168h1147l-436 438h235z" />
<glyph unicode="&#x25fc;" horiz-adv-x="1044" d="M0 1044h1044v-1044h-1044v1044z" />
<glyph horiz-adv-x="583" d="M205 1741h174v-2089h-174v2089z" />
<glyph d="M203 145l-113 113l412 410l-412 411l113 113l409 -412l412 412l113 -113l-412 -411l412 -410l-111 -111l-412 412z" />
<glyph d="M92 594v147h445v449h155v-449h445v-147h-445v-449h-155v449h-445z" />
<glyph d="M719 981h-209v211h209v-211zM719 147h-209v211h209v-211zM1137 596h-1045v147h1045v-147z" />
<glyph d="M92 385v147h1045v-147h-1045zM92 807v147h1045v-147h-1045z" />
<glyph d="M1104 1032l-844 -362l844 -363v-160l-1045 449v147l1045 449v-160z" />
<glyph d="M125 1192l1044 -449v-147l-1044 -449v160l844 363l-844 362v160z" />
<glyph horiz-adv-x="1650" d="M584 315v762h553v-604h184v762h-922v-1077h738v-158h-922v1393h1290v-1078h-921zM768 473h184v447h-184v-447z" />
<glyph d="M1137 147h-1045v148h1045v-148zM92 719v147h445v326h155v-326h445v-147h-445v-326h-155v326h-445z" />
<glyph d="M969 807h-893v147h1044v-561h-151v414z" />
<glyph horiz-adv-x="1024" d="M518 295l199 381l-199 381h164l219 -381l-219 -381h-164zM135 295l199 381l-199 381h164l219 -381l-219 -381h-164z" />
<glyph horiz-adv-x="641" d="M135 295l199 381l-199 381h164l219 -381l-219 -381h-164z" />
<glyph horiz-adv-x="1024" d="M342 295l-219 381l219 381h164l-199 -381l199 -381h-164zM725 295l-219 381l219 381h164l-199 -381l199 -381h-164z" />
<glyph horiz-adv-x="641" d="M342 295l-219 381l219 381h164l-199 -381l199 -381h-164z" />
<glyph horiz-adv-x="737" d="M639 1604v-152h-256v-1511h256v-152h-430v1815h430z" />
<glyph horiz-adv-x="800" d="M272 618h-194v156h194v-156zM446 774h-174v830h430v-152h-256v-678zM446 618v-677h256v-152h-430v829h174z" />
<glyph horiz-adv-x="651" d="M303 481q0 -170 77 -344t208 -348h-164q-70 90 -126 186.5t-96 206t-61.5 236.5t-21.5 278q0 152 21.5 279t61.5 236.5t96 205.5t126 187h164q-139 -188 -212 -355.5t-73 -337.5v-430z" />
<glyph horiz-adv-x="737" d="M528 1604v-1815h-430v152h256v1511h-256v152h430z" />
<glyph horiz-adv-x="800" d="M528 618v-829h-430v152h256v677h174zM528 774h-174v678h-256v152h430v-830h195v-156h-195v156z" />
<glyph horiz-adv-x="651" d="M348 911q0 170 -72.5 337t-212.5 356h164q70 -90 126.5 -186.5t96 -206t61 -236.5t21.5 -279t-21.5 -278.5t-61 -236t-96 -206t-126.5 -186.5h-164q131 174 208 348t77 344v430z" />
<glyph horiz-adv-x="1282" d="M160 768h962v-168h-962v168z" />
<glyph horiz-adv-x="2347" d="M211 768h1925v-168h-1925v168z" />
<glyph horiz-adv-x="892" d="M160 768h573v-168h-573v168z" />
<glyph horiz-adv-x="892" d="M160 768h573v-168h-573v168z" />
</font>
</defs>
</svg>
