<svg fill="none" height="28" viewBox="0 0 28 28" width="28" xmlns="http://www.w3.org/2000/svg"><path clip-rule="evenodd" d="m6.50982 6.51002c.24609-.24578.57969-.38384.9275-.38384s.6814.13806.9275.38384l5.63498 5.63498 5.635-5.63498c.1202-.12895.2651-.23238.4261-.30411s.3348-.1103.511-.11342c.1763-.00311.3513.02931.5147.09532.1635.06601.3119.16426.4365.28889.1247.12464.2229.27311.2889.43652.066.16344.0985.33849.0954.51471-.0032.17625-.0417.35004-.1134.51104-.0718.161-.1752.3059-.3042.42605l-5.635 5.63498 5.635 5.635c.129.1202.2324.2651.3042.4261.0717.161.1102.3348.1134.511.0031.1763-.0294.3513-.0954.5147-.066.1635-.1642.3119-.2889.4365-.1246.1247-.273.2229-.4365.2889-.1634.066-.3384.0985-.5147.0954-.1762-.0032-.35-.0417-.511-.1134-.161-.0718-.3059-.1752-.4261-.3042l-5.635-5.635-5.63498 5.635c-.24881.2319-.5779.3581-.91793.3521-.34002-.0061-.66444-.1438-.90492-.3843-.24047-.2404-.37821-.5649-.38421-.9049-.00601-.34.12022-.669.35206-.9179l5.63498-5.635-5.63498-5.63498c-.24579-.24608-.38384-.57969-.38384-.9275s.13805-.68139.38384-.9275z" fill="#fff" fill-rule="evenodd"/></svg>