<svg fill="none" height="16" viewBox="0 0 16 16" width="16" xmlns="http://www.w3.org/2000/svg"><path d="m6.22887 16c.57964 0 1.03047-.2287 1.3341-.7147l8.12423-12.88387c.2208-.35259.3128-.67659.3128-.98154 0-.829062-.5888-1.41989-1.4077-1.41989-.552 0-.9017.200119-1.2421.752829l-7.15814 11.711771-3.63427-4.67901c-.31282-.39071-.66245-.57177-1.14088-.57177-.818865 0-1.41691.60988-1.41691 1.43895 0 .36212.110408.68612.414031 1.05777l4.499139 5.64146c.35883.4479.77286.648 1.3157.648z" fill="#a2facf"/></svg>