<svg fill="none" height="572" viewBox="0 0 540 572" width="540" xmlns="http://www.w3.org/2000/svg"><rect fill="#fff" height="82" rx="10" width="148" x="213"/><path d="m76 461 6.2058-9.738-11.5359-.505zm207-379c0 74.142-49.126 137.63-99.809 197.158-25.299 29.714-50.985 58.446-70.952 86.924-19.9691 28.48-34.3149 56.834-36.8413 85.842l1.9925.174c2.4809-28.486 16.5895-56.491 36.4858-84.868 19.897-28.378 45.488-57.002 70.838-86.776 50.616-59.45 100.286-123.473 100.286-198.454z" fill="#30196b"/><path d="m459 373 5.71-10.037-11.547.074zm-170.5-291c0 64.198 41.389 108.32 83.074 149.533 20.883 20.648 41.833 40.552 57.906 61.953 16.058 21.381 27.18 44.173 28.464 70.55l1.997-.097c-1.309-26.916-12.663-50.086-28.862-71.654-16.184-21.549-37.27-41.581-58.099-62.174-41.74-41.268-82.48-84.846-82.48-148.111z" fill="#c2c2c2"/><path d="m247.117 33v-1.008h-6.528v-4.512h5.776v-.96h-5.776v-4.176h6.528v-1.008h-7.568v11.664zm1.816-2.368c0 1.536.992 2.528 2.656 2.528 1.408 0 2.528-.608 2.912-1.568h.096v.48c0 .624.24.928.944.928h1.296v-.784h-1.312v-4.8c0-.336.032-.544-.208-1.168-.112-.32-.256-.592-.448-.816-.384-.448-1.232-.864-2.384-.864-1.92 0-3.136.976-3.216 2.56h.992c.064-1.088.816-1.728 2.176-1.728 1.392 0 2.096.672 2.096 2v.688h-2.592c-1.872 0-3.008.928-3.008 2.544zm1.04-.352c0-.816.736-1.344 1.968-1.344h2.592v.496c0 1.68-1.088 2.864-2.816 2.864-1.072 0-1.744-.496-1.744-1.44zm7.958.24c0 1.6 1.248 2.64 3.28 2.64 1.92 0 3.168-.944 3.168-2.464 0-1.2-.704-1.92-2.112-2.192l-1.712-.32c-.944-.176-1.424-.608-1.424-1.328 0-.896.72-1.456 2-1.456 1.312 0 1.984.56 2.032 1.664h1.008c-.016-1.52-1.152-2.496-3.056-2.496-1.84 0-3.008.912-3.008 2.4 0 1.136.704 1.84 2.128 2.112l1.872.368c.8.144 1.2.576 1.2 1.28 0 .976-.816 1.584-2.112 1.584-1.392 0-2.256-.704-2.256-1.792zm10.534 1.536v2.752h-2v.864h2.08c.608 0 .912-.32.912-.944v-2.64l3.472-7.36h-1.136l-2.8 6.16h-.096l-1.488-3.376-1.264-2.784h-1.152zm11.092-6.464h1.776v-.864h-1.776v-2.8h-.992v2.8h-1.52v.864h1.52v6.496c0 .608.32.912.976.912h1.808v-.88h-1.792zm3.235 3.28c0 1.296.336 2.336 1.024 3.12s1.648 1.168 2.88 1.168 2.176-.384 2.864-1.168 1.04-1.824 1.04-3.12c0-1.344-.352-2.4-1.072-3.152-.72-.768-1.664-1.152-2.832-1.152s-2.112.384-2.832 1.152c-.72.752-1.072 1.808-1.072 3.152zm1.04-.608c0-.832.272-1.504.816-2.032s1.232-.784 2.048-.784 1.504.256 2.048.784.816 1.2.816 2.032v1.28c0 .864-.272 1.536-.832 2.032-.544.48-1.216.72-2.032.72s-1.488-.24-2.048-.72c-.544-.496-.816-1.168-.816-2.032zm13.922-3.536c-.656 0-.976.304-.976.928v7.344h1.008v-7.408h2.864v-.864zm7.252-.16c-2.368 0-3.808 1.584-3.808 4.256 0 1.328.336 2.384 1.024 3.168s1.616 1.168 2.784 1.168c.912 0 1.712-.24 2.368-.72.672-.48 1.088-1.104 1.264-1.888h-1.008c-.304 1.04-1.28 1.744-2.576 1.744-1.712 0-2.816-1.088-2.816-2.752v-.48h6.32c.032-.24.048-.496.048-.8 0-1.136-.32-2.048-.976-2.704s-1.52-.992-2.624-.992zm-2.768 3.408c0-1.52 1.12-2.544 2.768-2.544 1.552 0 2.592.976 2.592 2.432v.368h-5.36zm14.311-3.248v4.32c0 .976-.24 1.76-.736 2.352s-1.152.88-1.968.88c-1.328 0-1.984-.784-1.984-2.352v-5.2h-1.008v5.312c0 2 1.072 3.12 2.736 3.12 1.296 0 2.416-.688 2.864-1.696h.112l.16 1.536h.832v-8.272zm3.273 5.792c0 1.6 1.248 2.64 3.28 2.64 1.92 0 3.168-.944 3.168-2.464 0-1.2-.704-1.92-2.112-2.192l-1.712-.32c-.944-.176-1.424-.608-1.424-1.328 0-.896.72-1.456 2-1.456 1.312 0 1.984.56 2.032 1.664h1.008c-.016-1.52-1.152-2.496-3.056-2.496-1.84 0-3.008.912-3.008 2.4 0 1.136.704 1.84 2.128 2.112l1.872.368c.8.144 1.2.576 1.2 1.28 0 .976-.816 1.584-2.112 1.584-1.392 0-2.256-.704-2.256-1.792zm11.95-5.952c-2.368 0-3.808 1.584-3.808 4.256 0 1.328.336 2.384 1.024 3.168s1.616 1.168 2.784 1.168c.912 0 1.712-.24 2.368-.72.672-.48 1.088-1.104 1.264-1.888h-1.008c-.304 1.04-1.28 1.744-2.576 1.744-1.712 0-2.816-1.088-2.816-2.752v-.48h6.32c.032-.24.048-.496.048-.8 0-1.136-.32-2.048-.976-2.704s-1.52-.992-2.624-.992zm-2.768 3.408c0-1.52 1.12-2.544 2.768-2.544 1.552 0 2.592.976 2.592 2.432v.368h-5.36zm-53.522 28.288c-.24 1.264-1.232 2.032-2.592 2.032-.848 0-1.52-.256-2.048-.752-.512-.512-.768-1.184-.768-2v-1.2c0-.848.256-1.536.784-2.08s1.216-.816 2.032-.816c1.264 0 2.208.608 2.544 1.872h1.008c-.304-1.68-1.664-2.752-3.504-2.752-1.168 0-2.112.384-2.832 1.152-.72.752-1.072 1.808-1.072 3.152 0 1.296.336 2.336 1.024 3.12s1.632 1.168 2.832 1.168c1.936 0 3.296-1.12 3.6-2.896zm2.537-1.392c0 1.296.336 2.336 1.024 3.12s1.648 1.168 2.88 1.168 2.176-.384 2.864-1.168 1.04-1.824 1.04-3.12c0-1.344-.352-2.4-1.072-3.152-.72-.768-1.664-1.152-2.832-1.152s-2.112.384-2.832 1.152c-.72.752-1.072 1.808-1.072 3.152zm1.04-.608c0-.832.272-1.504.816-2.032s1.232-.784 2.048-.784 1.504.256 2.048.784.816 1.2.816 2.032v1.28c0 .864-.272 1.536-.832 2.032-.544.48-1.216.72-2.032.72s-1.488-.24-2.048-.72c-.544-.496-.816-1.168-.816-2.032zm11.994 4.896c1.44 0 2.448-.528 3.024-1.6h.096l.08 1.44h.928v-11.664h-1.008v4.976h-.096c-.576-1.072-1.584-1.6-3.024-1.6-2.192 0-3.472 1.536-3.472 4.224s1.28 4.224 3.472 4.224zm.192-.864c-1.6 0-2.624-.976-2.624-2.464v-1.792c0-1.488 1.024-2.464 2.624-2.464 1.728 0 2.928 1.12 2.928 2.784v1.152c0 1.664-1.2 2.784-2.928 2.784zm10.082-7.728c-2.368 0-3.808 1.584-3.808 4.256 0 1.328.336 2.384 1.024 3.168s1.616 1.168 2.784 1.168c.912 0 1.712-.24 2.368-.72.672-.48 1.088-1.104 1.264-1.888h-1.008c-.304 1.04-1.28 1.744-2.576 1.744-1.712 0-2.816-1.088-2.816-2.752v-.48h6.32c.032-.24.048-.496.048-.8 0-1.136-.32-2.048-.976-2.704s-1.52-.992-2.624-.992zm-2.768 3.408c0-1.52 1.12-2.544 2.768-2.544 1.552 0 2.592.976 2.592 2.432v.368h-5.36z" fill="#1a2331"/><rect fill="#fff" height="108" rx="10" width="148" y="464"/><path d="m42.1148 493.416c-.016 1.072.352 1.952 1.104 2.672s1.872 1.072 3.328 1.072c1.296 0 2.336-.304 3.1199-.896.7841-.592 1.1841-1.424 1.1841-2.496 0-1.616-.928-2.624-2.784-3.04l-2.288-.512c-.56-.128-.88-.208-1.408-.512s-.832-.816-.832-1.504c0-1.296 1.072-2.144 2.864-2.144 1.808 0 2.944.864 3.024 2.464h1.056c-.016-1.056-.4-1.872-1.152-2.464-.736-.592-1.712-.88-2.944-.88-1.184 0-2.144.272-2.864.832s-1.072 1.312-1.072 2.272c0 .848.4 1.568.8 1.952.208.192.48.368.832.528s.624.272.8.32l.736.176 2.144.496c.336.08.496.112.928.32.224.112.4.224.528.368.272.256.528.784.528 1.408 0 1.536-1.232 2.432-3.152 2.432-2.048 0-3.36-.96-3.408-2.864zm10.6071-.544c0 1.296.336 2.336 1.024 3.12s1.648 1.168 2.88 1.168 2.176-.384 2.864-1.168 1.04-1.824 1.04-3.12c0-1.344-.352-2.4-1.072-3.152-.72-.768-1.664-1.152-2.832-1.152s-2.112.384-2.832 1.152c-.72.752-1.072 1.808-1.072 3.152zm1.04-.608c0-.832.272-1.504.816-2.032s1.232-.784 2.048-.784 1.504.256 2.048.784.816 1.2.816 2.032v1.28c0 .864-.272 1.536-.832 2.032-.544.48-1.216.72-2.032.72s-1.488-.24-2.048-.72c-.544-.496-.816-1.168-.816-2.032zm15.6302-2.672h1.776v-.864h-1.776v-2.8h-.992v2.8h-4.176v-2.528h2.16v-.864h-2.096c-.704 0-1.056.304-1.056.896v2.496h-1.648v.864h1.648v7.408h.992v-7.408h4.176v6.496c0 .608.32.912.976.912h1.808v-.88h-1.792zm11.5541 3.936-.5599 2.432h-.064l-1.936-7.232h-1.312l-1.84 7.28h-.08l-.576-2.528-1.312-4.752h-1.184l2.432 8.272h1.44l1.136-4.528.576-2.544h.096l.608 2.544 1.2 4.528h1.392l2.384-8.272h-1.136zm3.3694 1.104c0 1.536.992 2.528 2.656 2.528 1.408 0 2.528-.608 2.912-1.568h.096v.48c0 .624.24.928.944.928h1.296v-.784h-1.312v-4.8c0-.336.032-.544-.208-1.168-.112-.32-.256-.592-.448-.816-.384-.448-1.232-.864-2.384-.864-1.92 0-3.136.976-3.216 2.56h.992c.064-1.088.816-1.728 2.176-1.728 1.392 0 2.096.672 2.096 2v.688h-2.592c-1.872 0-3.008.928-3.008 2.544zm1.04-.352c0-.816.736-1.344 1.968-1.344h2.592v.496c0 1.68-1.088 2.864-2.816 2.864-1.072 0-1.744-.496-1.744-1.44zm9.7345-5.552c-.656 0-.976.304-.976.928v7.344h1.008v-7.408h2.864v-.864zm7.2519-.16c-2.3676 0-3.8076 1.584-3.8076 4.256 0 1.328.336 2.384 1.024 3.168.6876.784 1.6156 1.168 2.7836 1.168.912 0 1.712-.24 2.368-.72.672-.48 1.088-1.104 1.264-1.888h-1.008c-.304 1.04-1.28 1.744-2.576 1.744-1.712 0-2.8156-1.088-2.8156-2.752v-.48h6.3196c.032-.24.048-.496.048-.8 0-1.136-.32-2.048-.976-2.704s-1.52-.992-2.624-.992zm-2.7676 3.408c0-1.52 1.1196-2.544 2.7676-2.544 1.552 0 2.592.976 2.592 2.432v.368h-5.3596zm-49.8649 31.184c1.44 0 2.448-.528 3.024-1.6h.096l.08 1.44h.928v-11.664h-1.008v4.976h-.096c-.576-1.072-1.584-1.6-3.024-1.6-2.192 0-3.472 1.536-3.472 4.224s1.28 4.224 3.472 4.224zm.192-.864c-1.6 0-2.624-.976-2.624-2.464v-1.792c0-1.488 1.024-2.464 2.624-2.464 1.728 0 2.928 1.12 2.928 2.784v1.152c0 1.664-1.2 2.784-2.928 2.784zm10.0815-7.728c-2.368 0-3.808 1.584-3.808 4.256 0 1.328.336 2.384 1.024 3.168s1.616 1.168 2.784 1.168c.912 0 1.712-.24 2.368-.72.672-.48 1.088-1.104 1.264-1.888h-1.008c-.304 1.04-1.28 1.744-2.576 1.744-1.712 0-2.816-1.088-2.816-2.752v-.48h6.32c.032-.24.048-.496.048-.8 0-1.136-.32-2.048-.976-2.704s-1.52-.992-2.624-.992zm-2.768 3.408c0-1.52 1.12-2.544 2.768-2.544 1.552 0 2.592.976 2.592 2.432v.368h-5.36zm9.7349 5.024v-11.664h-.992v11.664zm4.0625-10.032v-1.632h-.992v1.632zm0 10.032v-8.272h-.992v8.272zm4.6545 0h1.152l3.024-8.272h-1.12l-1.648 4.752-.784 2.336h-.096l-.832-2.336-1.648-4.752h-1.136zm8.8161-8.432c-2.368 0-3.808 1.584-3.808 4.256 0 1.328.336 2.384 1.024 3.168s1.616 1.168 2.784 1.168c.912 0 1.712-.24 2.368-.72.672-.48 1.088-1.104 1.264-1.888h-1.008c-.304 1.04-1.28 1.744-2.576 1.744-1.712 0-2.816-1.088-2.816-2.752v-.48h6.32c.032-.24.048-.496.048-.8 0-1.136-.32-2.048-.976-2.704s-1.52-.992-2.624-.992zm-2.768 3.408c0-1.52 1.12-2.544 2.768-2.544 1.552 0 2.592.976 2.592 2.432v.368h-5.36zm9.7189-3.248c-.656 0-.976.304-.976.928v7.344h1.008v-7.408h2.864v-.864zm6.6326 7.328v2.752h-2v.864h2.08c.608 0 .912-.32.912-.944v-2.64l3.4725-7.36h-1.136l-2.8005 6.16h-.096l-1.488-3.376-1.264-2.784h-1.152zm-69.8662 29.616v-4.256h.096c.576 1.072 1.5839 1.6 3.024 1.6 2.192 0 3.472-1.536 3.472-4.224s-1.28-4.224-3.472-4.224c-1.4401 0-2.448.528-3.024 1.6h-.096l-.08-1.44h-.928v10.944zm2.928-3.52c-1.728 0-2.928-1.12-2.928-2.784v-1.152c0-1.664 1.2-2.784 2.928-2.784 1.6 0 2.624.976 2.624 2.464v1.792c0 1.488-1.024 2.464-2.624 2.464zm9.2297-7.584c-2.368 0-3.808 1.584-3.808 4.256 0 1.328.336 2.384 1.024 3.168s1.616 1.168 2.784 1.168c.912 0 1.712-.24 2.368-.72.672-.48 1.088-1.104 1.264-1.888h-1.008c-.304 1.04-1.28 1.744-2.576 1.744-1.712 0-2.816-1.088-2.816-2.752v-.48h6.32c.032-.24.048-.496.048-.8 0-1.136-.32-2.048-.976-2.704s-1.52-.992-2.624-.992zm-2.768 3.408c0-1.52 1.12-2.544 2.768-2.544 1.552 0 2.592.976 2.592 2.432v.368h-5.36zm9.7189-3.248c-.656 0-.976.304-.976.928v7.344h1.008v-7.408h2.864v-.864zm8.3409-2.528v-.864h-2.096c-.704 0-1.056.304-1.056.896v2.496h-1.648v.864h1.648v7.408h.992v-7.408h1.84v-.864h-1.84v-2.528zm.8221 6.672c0 1.296.336 2.336 1.024 3.12s1.648 1.168 2.88 1.168 2.176-.384 2.864-1.168 1.04-1.824 1.04-3.12c0-1.344-.352-2.4-1.072-3.152-.72-.768-1.664-1.152-2.832-1.152s-2.112.384-2.832 1.152c-.72.752-1.072 1.808-1.072 3.152zm1.04-.608c0-.832.272-1.504.816-2.032s1.232-.784 2.048-.784 1.504.256 2.048.784.816 1.2.816 2.032v1.28c0 .864-.272 1.536-.832 2.032-.544.48-1.216.72-2.032.72s-1.488-.24-2.048-.72c-.544-.496-.816-1.168-.816-2.032zm10.0782-3.536c-.656 0-.976.304-.976.928v7.344h1.008v-7.408h2.864v-.864zm5.6727 8.272v-4.304c0-1.968.976-3.248 2.448-3.248 1.312 0 1.968.848 1.968 2.528v5.024h1.008v-4.304c0-1.984.88-3.248 2.368-3.248 1.344 0 2.016.816 2.016 2.464v5.088h1.008v-5.232c0-2.048-1.056-3.2-2.768-3.2-1.36 0-2.272.608-2.768 1.84h-.112c-.272-1.072-1.2-1.84-2.432-1.84-1.264 0-2.128.576-2.624 1.712h-.112l-.144-1.552h-.864v8.272zm13.0216-2.368c0 1.536.992 2.528 2.656 2.528 1.408 0 2.528-.608 2.912-1.568h.096v.48c0 .624.24.928.944.928h1.296v-.784h-1.312v-4.8c0-.336.032-.544-.208-1.168-.112-.32-.256-.592-.448-.816-.384-.448-1.232-.864-2.384-.864-1.92 0-3.136.976-3.216 2.56h.992c.064-1.088.816-1.728 2.176-1.728 1.392 0 2.096.672 2.096 2v.688h-2.592c-1.872 0-3.008.928-3.008 2.544zm1.04-.352c0-.816.736-1.344 1.968-1.344h2.592v.496c0 1.68-1.088 2.864-2.816 2.864-1.072 0-1.744-.496-1.744-1.44zm9.7665 2.72v-4.32c0-.944.24-1.696.736-2.272.496-.592 1.152-.88 1.952-.88 1.4081 0 2.1121.816 2.1121 2.432v5.04h1.008v-5.136c0-2.032-1.104-3.296-2.88-3.296-1.2321 0-2.3041.64-2.8161 1.712h-.096l-.144-1.552h-.88v8.272zm14.4701-2.736c-.24 1.264-1.232 2.032-2.592 2.032-.848 0-1.52-.256-2.048-.752-.512-.512-.768-1.184-.768-2v-1.2c0-.848.256-1.536.784-2.08s1.216-.816 2.032-.816c1.264 0 2.208.608 2.544 1.872h1.008c-.304-1.68-1.664-2.752-3.505-2.752-1.167 0-2.111.384-2.831 1.152-.72.752-1.072 1.808-1.072 3.152 0 1.296.336 2.336 1.024 3.12s1.632 1.168 2.832 1.168c1.936 0 3.296-1.12 3.6-2.896zm6.344-5.696c-2.368 0-3.808 1.584-3.808 4.256 0 1.328.336 2.384 1.024 3.168s1.616 1.168 2.784 1.168c.912 0 1.712-.24 2.368-.72.672-.48 1.088-1.104 1.264-1.888h-1.008c-.304 1.04-1.28 1.744-2.576 1.744-1.712 0-2.816-1.088-2.816-2.752v-.48h6.32c.032-.24.048-.496.048-.8 0-1.136-.32-2.048-.976-2.704s-1.52-.992-2.624-.992zm-2.768 3.408c0-1.52 1.12-2.544 2.768-2.544 1.552 0 2.592.976 2.592 2.432v.368h-5.36z" fill="#1a2331"/><rect fill="#fff" height="82" rx="10" width="148" x="388" y="378"/><g fill="#1a2331"><path d="m425.859 411v-1.008h-6.528v-4.512h5.776v-.96h-5.776v-4.176h6.528v-1.008h-7.568v11.664zm3.248 0v-4.304c0-1.968.976-3.248 2.448-3.248 1.312 0 1.968.848 1.968 2.528v5.024h1.008v-4.304c0-1.984.88-3.248 2.368-3.248 1.344 0 2.016.816 2.016 2.464v5.088h1.008v-5.232c0-2.048-1.056-3.2-2.768-3.2-1.36 0-2.272.608-2.768 1.84h-.112c-.272-1.072-1.2-1.84-2.432-1.84-1.264 0-2.128.576-2.624 1.712h-.112l-.144-1.552h-.864v8.272zm14.765 2.672v-4.256h.096c.576 1.072 1.584 1.6 3.024 1.6 2.192 0 3.472-1.536 3.472-4.224s-1.28-4.224-3.472-4.224c-1.44 0-2.448.528-3.024 1.6h-.096l-.08-1.44h-.928v10.944zm2.928-3.52c-1.728 0-2.928-1.12-2.928-2.784v-1.152c0-1.664 1.2-2.784 2.928-2.784 1.6 0 2.624.976 2.624 2.464v1.792c0 1.488-1.024 2.464-2.624 2.464zm5.422-3.28c0 1.296.336 2.336 1.024 3.12s1.648 1.168 2.88 1.168 2.176-.384 2.864-1.168 1.04-1.824 1.04-3.12c0-1.344-.352-2.4-1.072-3.152-.72-.768-1.664-1.152-2.832-1.152s-2.112.384-2.832 1.152c-.72.752-1.072 1.808-1.072 3.152zm1.04-.608c0-.832.272-1.504.816-2.032s1.232-.784 2.048-.784 1.504.256 2.048.784.816 1.2.816 2.032v1.28c0 .864-.272 1.536-.832 2.032-.544.48-1.216.72-2.032.72s-1.488-.24-2.048-.72c-.544-.496-.816-1.168-.816-2.032zm16.45 1.264-.56 2.432h-.064l-1.936-7.232h-1.312l-1.84 7.28h-.08l-.576-2.528-1.312-4.752h-1.184l2.432 8.272h1.44l1.136-4.528.576-2.544h.096l.608 2.544 1.2 4.528h1.392l2.384-8.272h-1.136zm7.177-4.96c-2.368 0-3.808 1.584-3.808 4.256 0 1.328.336 2.384 1.024 3.168s1.616 1.168 2.784 1.168c.912 0 1.712-.24 2.368-.72.672-.48 1.088-1.104 1.264-1.888h-1.008c-.304 1.04-1.28 1.744-2.576 1.744-1.712 0-2.816-1.088-2.816-2.752v-.48h6.32c.032-.24.048-.496.048-.8 0-1.136-.32-2.048-.976-2.704s-1.52-.992-2.624-.992zm-2.768 3.408c0-1.52 1.12-2.544 2.768-2.544 1.552 0 2.592.976 2.592 2.432v.368h-5.36zm9.719-3.248c-.656 0-.976.304-.976.928v7.344h1.008v-7.408h2.864v-.864zm7.252-.16c-2.368 0-3.808 1.584-3.808 4.256 0 1.328.336 2.384 1.024 3.168s1.616 1.168 2.784 1.168c.912 0 1.712-.24 2.368-.72.672-.48 1.088-1.104 1.264-1.888h-1.008c-.304 1.04-1.28 1.744-2.576 1.744-1.712 0-2.816-1.088-2.816-2.752v-.48h6.32c.032-.24.048-.496.048-.8 0-1.136-.32-2.048-.976-2.704s-1.52-.992-2.624-.992zm-2.768 3.408c0-1.52 1.12-2.544 2.768-2.544 1.552 0 2.592.976 2.592 2.432v.368h-5.36zm11.636 5.184c1.44 0 2.448-.528 3.024-1.6h.096l.08 1.44h.928v-11.664h-1.008v4.976h-.096c-.576-1.072-1.584-1.6-3.024-1.6-2.192 0-3.472 1.536-3.472 4.224s1.28 4.224 3.472 4.224zm.192-.864c-1.6 0-2.624-.976-2.624-2.464v-1.792c0-1.488 1.024-2.464 2.624-2.464 1.728 0 2.928 1.12 2.928 2.784v1.152c0 1.664-1.2 2.784-2.928 2.784zm-61.267 19.296h1.776v-.864h-1.776v-2.8h-.992v2.8h-1.52v.864h1.52v6.496c0 .608.32.912.976.912h1.808v-.88h-1.792zm3.235 3.28c0 1.296.336 2.336 1.024 3.12s1.648 1.168 2.88 1.168 2.176-.384 2.864-1.168 1.04-1.824 1.04-3.12c0-1.344-.352-2.4-1.072-3.152-.72-.768-1.664-1.152-2.832-1.152s-2.112.384-2.832 1.152c-.72.752-1.072 1.808-1.072 3.152zm1.04-.608c0-.832.272-1.504.816-2.032s1.232-.784 2.048-.784 1.504.256 2.048.784.816 1.2.816 2.032v1.28c0 .864-.272 1.536-.832 2.032-.544.48-1.216.72-2.032.72s-1.488-.24-2.048-.72c-.544-.496-.816-1.168-.816-2.032zm20.45 1.264-.56 2.432h-.064l-1.936-7.232h-1.312l-1.84 7.28h-.08l-.576-2.528-1.312-4.752h-1.184l2.432 8.272h1.44l1.136-4.528.576-2.544h.096l.608 2.544 1.2 4.528h1.392l2.384-8.272h-1.136zm3.37-.656c0 1.296.336 2.336 1.024 3.12s1.648 1.168 2.88 1.168 2.176-.384 2.864-1.168 1.04-1.824 1.04-3.12c0-1.344-.352-2.4-1.072-3.152-.72-.768-1.664-1.152-2.832-1.152s-2.112.384-2.832 1.152c-.72.752-1.072 1.808-1.072 3.152zm1.04-.608c0-.832.272-1.504.816-2.032s1.232-.784 2.048-.784 1.504.256 2.048.784.816 1.2.816 2.032v1.28c0 .864-.272 1.536-.832 2.032-.544.48-1.216.72-2.032.72s-1.488-.24-2.048-.72c-.544-.496-.816-1.168-.816-2.032zm10.078-3.536c-.656 0-.976.304-.976.928v7.344h1.008v-7.408h2.864v-.864zm11.337 8.272-3.392-5.04 3.232-3.232h-1.328l-4.176 4.24v-7.632h-1.008v11.664h1.008v-2.768l1.568-1.568 2.928 4.336z"/><path d="m89.8 232v-4.432h3.872c2.32 0 3.552-1.296 3.552-3.648 0-2.24-1.168-3.584-3.552-3.584h-4.912v11.664zm0-10.656h4.144c1.328 0 2.176.704 2.176 1.904v1.28c0 1.264-.88 2.08-2.4 2.08h-3.92zm8.5 6.528c0 1.296.336 2.336 1.024 3.12s1.648 1.168 2.88 1.168 2.176-.384 2.864-1.168 1.04-1.824 1.04-3.12c0-1.344-.352-2.4-1.072-3.152-.72-.768-1.664-1.152-2.832-1.152s-2.112.384-2.832 1.152c-.72.752-1.072 1.808-1.072 3.152zm1.04-.608c0-.832.272-1.504.816-2.032s1.232-.784 2.048-.784 1.504.256 2.048.784.816 1.2.816 2.032v1.28c0 .864-.272 1.536-.832 2.032-.544.48-1.216.72-2.032.72s-1.488-.24-2.048-.72c-.544-.496-.816-1.168-.816-2.032zm8.302 2.256c0 1.6 1.248 2.64 3.28 2.64 1.92 0 3.168-.944 3.168-2.464 0-1.2-.704-1.92-2.112-2.192l-1.712-.32c-.944-.176-1.424-.608-1.424-1.328 0-.896.72-1.456 2-1.456 1.312 0 1.984.56 2.032 1.664h1.008c-.016-1.52-1.152-2.496-3.056-2.496-1.84 0-3.008.912-3.008 2.4 0 1.136.704 1.84 2.128 2.112l1.872.368c.8.144 1.2.576 1.2 1.28 0 .976-.816 1.584-2.112 1.584-1.392 0-2.256-.704-2.256-1.792zm9.714-7.552v-1.632h-.992v1.632zm0 10.032v-8.272h-.992v8.272zm8.287-9.856h.992v-1.632h-.992zm-3.984 1.584v-2.8h-.992v2.8h-1.536v.864h1.536v6.464c.016.72.352.944.976.944h1.792v-.88h-1.776v-6.528h3.984v7.408h.992v-8.272zm9.633 8.272h1.152l3.024-8.272h-1.12l-1.648 4.752-.784 2.336h-.096l-.832-2.336-1.648-4.752h-1.136zm8.816-8.432c-2.368 0-3.808 1.584-3.808 4.256 0 1.328.336 2.384 1.024 3.168s1.616 1.168 2.784 1.168c.912 0 1.712-.24 2.368-.72.672-.48 1.088-1.104 1.264-1.888h-1.008c-.304 1.04-1.28 1.744-2.576 1.744-1.712 0-2.816-1.088-2.816-2.752v-.48h6.32c.032-.24.048-.496.048-.8 0-1.136-.32-2.048-.976-2.704s-1.52-.992-2.624-.992zm-2.768 3.408c0-1.52 1.12-2.544 2.768-2.544 1.552 0 2.592.976 2.592 2.432v.368h-5.36zm-47.828 22.752c-.656 0-.976.304-.976.928v7.344h1.008v-7.408h2.864v-.864zm7.2523-.16c-2.368 0-3.808 1.584-3.808 4.256 0 1.328.336 2.384 1.024 3.168s1.616 1.168 2.784 1.168c.912 0 1.712-.24 2.368-.72.672-.48 1.0877-1.104 1.2637-1.888h-1.0077c-.304 1.04-1.28 1.744-2.576 1.744-1.712 0-2.816-1.088-2.816-2.752v-.48h6.3197c.032-.24.048-.496.048-.8 0-1.136-.32-2.048-.9757-2.704-.656-.656-1.52-.992-2.624-.992zm-2.768 3.408c0-1.52 1.12-2.544 2.768-2.544 1.552 0 2.592.976 2.592 2.432v.368h-5.36zm9.7347 5.024v-11.664h-.992v11.664zm2.335-2.368c0 1.536.992 2.528 2.656 2.528 1.408 0 2.528-.608 2.912-1.568h.096v.48c0 .624.24.928.944.928h1.296v-.784h-1.312v-4.8c0-.336.032-.544-.208-1.168-.112-.32-.256-.592-.448-.816-.384-.448-1.232-.864-2.384-.864-1.92 0-3.136.976-3.216 2.56h.992c.064-1.088.816-1.728 2.176-1.728 1.392 0 2.096.672 2.096 2v.688h-2.592c-1.872 0-3.008.928-3.008 2.544zm1.04-.352c0-.816.736-1.344 1.968-1.344h2.592v.496c0 1.68-1.088 2.864-2.816 2.864-1.072 0-1.744-.496-1.744-1.44zm13.896-7.136h.992v-1.632h-.992zm-3.984 1.584v-2.8h-.992v2.8h-1.536v.864h1.536v6.464c.016.72.352.944.976.944h1.792v-.88h-1.776v-6.528h3.984v7.408h.992v-8.272zm7.313 4.144c0 1.296.336 2.336 1.024 3.12s1.648 1.168 2.88 1.168 2.176-.384 2.864-1.168 1.04-1.824 1.04-3.12c0-1.344-.352-2.4-1.072-3.152-.72-.768-1.664-1.152-2.832-1.152s-2.112.384-2.832 1.152c-.72.752-1.072 1.808-1.072 3.152zm1.04-.608c0-.832.272-1.504.816-2.032s1.232-.784 2.048-.784 1.504.256 2.048.784.816 1.2.816 2.032v1.28c0 .864-.272 1.536-.832 2.032-.544.48-1.216.72-2.032.72s-1.488-.24-2.048-.72c-.544-.496-.816-1.168-.816-2.032zm10.111 4.736v-4.32c0-.944.24-1.696.736-2.272.496-.592 1.152-.88 1.952-.88 1.408 0 2.112.816 2.112 2.432v5.04h1.008v-5.136c0-2.032-1.104-3.296-2.88-3.296-1.232 0-2.304.64-2.816 1.712h-.096l-.144-1.552h-.88v8.272zm7.957-2.48c0 1.6 1.248 2.64 3.28 2.64 1.92 0 3.168-.944 3.168-2.464 0-1.2-.704-1.92-2.112-2.192l-1.712-.32c-.944-.176-1.424-.608-1.424-1.328 0-.896.72-1.456 2-1.456 1.312 0 1.984.56 2.032 1.664h1.008c-.016-1.52-1.152-2.496-3.056-2.496-1.84 0-3.008.912-3.008 2.4 0 1.136.704 1.84 2.128 2.112l1.872.368c.8.144 1.2.576 1.2 1.28 0 .976-.816 1.584-2.112 1.584-1.392 0-2.256-.704-2.256-1.792zm9.73 2.48v-4.368c0-1.92 1.072-3.184 2.672-3.184 1.408 0 2.112.832 2.112 2.496v5.056h1.008v-5.152c0-2.032-1.136-3.28-2.88-3.28-1.232 0-2.304.64-2.816 1.68h-.096v-4.912h-1.008v11.664zm9.734-10.032v-1.632h-.992v1.632zm0 10.032v-8.272h-.992v8.272zm4.079 2.672v-4.256h.096c.576 1.072 1.583 1.6 3.024 1.6 2.192 0 3.472-1.536 3.472-4.224s-1.28-4.224-3.472-4.224c-1.441 0-2.448.528-3.024 1.6h-.096l-.08-1.44h-.928v10.944zm2.928-3.52c-1.728 0-2.928-1.12-2.928-2.784v-1.152c0-1.664 1.2-2.784 2.928-2.784 1.6 0 2.624.976 2.624 2.464v1.792c0 1.488-1.024 2.464-2.624 2.464z"/><path d="m392.8 191v-7.04l-.08-3.472h.064l6.704 10.512h1.392v-11.664h-1.04v6.88l.096 3.6h-.064l-6.736-10.48h-1.376v11.664zm14.449-8.432c-2.368 0-3.808 1.584-3.808 4.256 0 1.328.336 2.384 1.024 3.168s1.616 1.168 2.784 1.168c.912 0 1.712-.24 2.368-.72.672-.48 1.088-1.104 1.264-1.888h-1.008c-.304 1.04-1.28 1.744-2.576 1.744-1.712 0-2.816-1.088-2.816-2.752v-.48h6.32c.032-.24.048-.496.048-.8 0-1.136-.32-2.048-.976-2.704s-1.52-.992-2.624-.992zm-2.768 3.408c0-1.52 1.12-2.544 2.768-2.544 1.552 0 2.592.976 2.592 2.432v.368h-5.36zm10.455 3.552c-.768 0-1.152-.256-1.152-.768 0-.432.336-.768.864-.832.4.096.8.144 1.168.144.848 0 1.552-.256 2.096-.752.56-.496.832-1.152.832-1.968 0-.784-.24-1.424-.72-1.92v-.816h1.584v-.864h-1.392c-.64 0-.96.288-.96.864v.256c-.432-.208-.928-.304-1.52-.304-.88 0-1.616.256-2.176.768-.56.496-.832 1.168-.832 1.984 0 1.008.4 1.744 1.184 2.24v.096c-.624.144-1.056.688-1.056 1.312 0 .496.32.912.784 1.088v.096c-.848.272-1.28.832-1.28 1.68 0 1.232 1.168 2 3.472 2 2.416 0 3.824-.8 3.824-2.336 0-1.216-.912-1.968-2.4-1.968zm-1.2-4.512c0-1.008.8-1.664 2-1.664s2 .656 2 1.664v.64c0 .976-.8 1.648-2 1.648s-2-.672-2-1.648zm2.144 8.016c-1.744 0-2.576-.416-2.576-1.376 0-.752.512-1.232 1.52-1.232h2.416c.944 0 1.424.384 1.424 1.136 0 .976-.928 1.472-2.784 1.472zm4.967-4.4c0 1.536.992 2.528 2.656 2.528 1.408 0 2.528-.608 2.912-1.568h.096v.48c0 .624.24.928.944.928h1.296v-.784h-1.312v-4.8c0-.336.032-.544-.208-1.168-.112-.32-.256-.592-.448-.816-.384-.448-1.232-.864-2.384-.864-1.92 0-3.136.976-3.216 2.56h.992c.064-1.088.816-1.728 2.176-1.728 1.392 0 2.096.672 2.096 2v.688h-2.592c-1.872 0-3.008.928-3.008 2.544zm1.04-.352c0-.816.736-1.344 1.968-1.344h2.592v.496c0 1.68-1.088 2.864-2.816 2.864-1.072 0-1.744-.496-1.744-1.44zm13.896-7.136h.992v-1.632h-.992zm-3.984 1.584v-2.8h-.992v2.8h-1.536v.864h1.536v6.464c.016.72.352.944.976.944h1.792v-.88h-1.776v-6.528h3.984v7.408h.992v-8.272zm9.634 8.272h1.152l3.024-8.272h-1.12l-1.648 4.752-.784 2.336h-.096l-.832-2.336-1.648-4.752h-1.136zm8.816-8.432c-2.368 0-3.808 1.584-3.808 4.256 0 1.328.336 2.384 1.024 3.168s1.616 1.168 2.784 1.168c.912 0 1.712-.24 2.368-.72.672-.48 1.088-1.104 1.264-1.888h-1.008c-.304 1.04-1.28 1.744-2.576 1.744-1.712 0-2.816-1.088-2.816-2.752v-.48h6.32c.032-.24.048-.496.048-.8 0-1.136-.32-2.048-.976-2.704s-1.52-.992-2.624-.992zm-2.768 3.408c0-1.52 1.12-2.544 2.768-2.544 1.552 0 2.592.976 2.592 2.432v.368h-5.36zm-54.969 22.752c-.656 0-.976.304-.976.928v7.344h1.008v-7.408h2.864v-.864zm7.252-.16c-2.368 0-3.808 1.584-3.808 4.256 0 1.328.336 2.384 1.024 3.168s1.616 1.168 2.784 1.168c.912 0 1.712-.24 2.368-.72.672-.48 1.088-1.104 1.264-1.888h-1.008c-.304 1.04-1.28 1.744-2.576 1.744-1.712 0-2.816-1.088-2.816-2.752v-.48h6.32c.032-.24.048-.496.048-.8 0-1.136-.32-2.048-.976-2.704s-1.52-.992-2.624-.992zm-2.768 3.408c0-1.52 1.12-2.544 2.768-2.544 1.552 0 2.592.976 2.592 2.432v.368h-5.36zm9.735 5.024v-11.664h-.992v11.664zm2.335-2.368c0 1.536.992 2.528 2.656 2.528 1.408 0 2.528-.608 2.912-1.568h.096v.48c0 .624.24.928.944.928h1.296v-.784h-1.312v-4.8c0-.336.032-.544-.208-1.168-.112-.32-.256-.592-.448-.816-.384-.448-1.232-.864-2.384-.864-1.92 0-3.136.976-3.216 2.56h.992c.064-1.088.816-1.728 2.176-1.728 1.392 0 2.096.672 2.096 2v.688h-2.592c-1.872 0-3.008.928-3.008 2.544zm1.04-.352c0-.816.736-1.344 1.968-1.344h2.592v.496c0 1.68-1.088 2.864-2.816 2.864-1.072 0-1.744-.496-1.744-1.44zm13.896-7.136h.992v-1.632h-.992zm-3.984 1.584v-2.8h-.992v2.8h-1.536v.864h1.536v6.464c.016.72.352.944.976.944h1.792v-.88h-1.776v-6.528h3.984v7.408h.992v-8.272zm7.313 4.144c0 1.296.336 2.336 1.024 3.12s1.648 1.168 2.88 1.168 2.176-.384 2.864-1.168 1.04-1.824 1.04-3.12c0-1.344-.352-2.4-1.072-3.152-.72-.768-1.664-1.152-2.832-1.152s-2.112.384-2.832 1.152c-.72.752-1.072 1.808-1.072 3.152zm1.04-.608c0-.832.272-1.504.816-2.032s1.232-.784 2.048-.784 1.504.256 2.048.784.816 1.2.816 2.032v1.28c0 .864-.272 1.536-.832 2.032-.544.48-1.216.72-2.032.72s-1.488-.24-2.048-.72c-.544-.496-.816-1.168-.816-2.032zm10.111 4.736v-4.32c0-.944.24-1.696.736-2.272.496-.592 1.152-.88 1.952-.88 1.408 0 2.112.816 2.112 2.432v5.04h1.008v-5.136c0-2.032-1.104-3.296-2.88-3.296-1.232 0-2.304.64-2.816 1.712h-.096l-.144-1.552h-.88v8.272zm7.957-2.48c0 1.6 1.248 2.64 3.28 2.64 1.92 0 3.168-.944 3.168-2.464 0-1.2-.704-1.92-2.112-2.192l-1.712-.32c-.944-.176-1.424-.608-1.424-1.328 0-.896.72-1.456 2-1.456 1.312 0 1.984.56 2.032 1.664h1.008c-.016-1.52-1.152-2.496-3.056-2.496-1.84 0-3.008.912-3.008 2.4 0 1.136.704 1.84 2.128 2.112l1.872.368c.8.144 1.2.576 1.2 1.28 0 .976-.816 1.584-2.112 1.584-1.392 0-2.256-.704-2.256-1.792zm9.73 2.48v-4.368c0-1.92 1.072-3.184 2.672-3.184 1.408 0 2.112.832 2.112 2.496v5.056h1.008v-5.152c0-2.032-1.136-3.28-2.88-3.28-1.232 0-2.304.64-2.816 1.68h-.096v-4.912h-1.008v11.664zm9.734-10.032v-1.632h-.992v1.632zm0 10.032v-8.272h-.992v8.272zm4.079 2.672v-4.256h.096c.576 1.072 1.583 1.6 3.024 1.6 2.192 0 3.472-1.536 3.472-4.224s-1.28-4.224-3.472-4.224c-1.441 0-2.448.528-3.024 1.6h-.096l-.08-1.44h-.928v10.944zm2.928-3.52c-1.728 0-2.928-1.12-2.928-2.784v-1.152c0-1.664 1.2-2.784 2.928-2.784 1.6 0 2.624.976 2.624 2.464v1.792c0 1.488-1.024 2.464-2.624 2.464z"/></g></svg>