<svg xmlns="http://www.w3.org/2000/svg" fill="none" viewBox="0 0 1176 853">
  <path fill="#0D2826" d="m482 762.5 6.369-9.632-11.526-.699L482 762.5Zm-338.023-377c85.13 1.962 171.786 45.134 236.044 112.27 64.252 67.128 106.031 158.134 101.527 255.671l1.998.093c4.533-98.177-37.519-189.696-102.08-257.147-64.554-67.445-151.69-110.91-237.443-112.887l-.046 2ZM625 625l4.11-10.791-11.4 1.836L625 625ZM309.501 103.538c4.465 116.59 72.239 182.546 143.977 250.428 71.774 67.915 147.564 137.796 169.109 262.339l1.971-.341c-21.672-125.278-97.971-195.574-169.705-263.451-71.769-67.911-138.923-133.36-143.354-249.051l-1.998.076Z"/>
  <path fill="#0D2826" d="m278 648 9.135-7.063-10.684-4.38L278 648Zm24.005-545.099c-8.893 89.423 6.346 172.339 13.466 258.34 7.124 86.049 6.159 175.396-34.994 278.08l1.856.744c41.316-103.089 42.268-192.787 35.131-278.989-7.14-86.251-22.338-168.795-13.469-257.977l-1.99-.198ZM921 547l5.632-10.08-11.546.162L921 547ZM559.5 102.5c0 52.881 22.094 97.296 55.273 136.462 33.165 39.148 77.454 73.107 121.938 105.089 44.525 32.013 89.21 62.024 123.362 93.351 34.155 31.332 57.565 63.799 59.802 100.644l1.996-.121c-2.285-37.643-26.184-70.568-60.447-101.997-34.266-31.433-79.109-61.551-123.546-93.501-44.479-31.979-88.587-65.815-121.579-104.758-32.977-38.927-54.799-82.9-54.799-135.169h-2ZM156 357.5l11.511-.912-6.545-9.513L156 357.5Zm138.513-254.161c-4.512 27.574-10.243 90.384-40.907 151.714l1.788.894c30.836-61.67 36.605-124.86 41.093-152.286l-1.974-.322Zm-40.907 151.714c-22.73 45.46-64.937 78.46-90.763 96.526l1.146 1.638c25.871-18.097 68.438-51.336 91.405-97.27l-1.788-.894Z"/>
  <path fill="#0D2826" d="m157.5 368.5 10.392 5.033-.837-11.516-9.555 6.483Zm699.271-263.184c-53.092 56.565-115.01 113.701-218.95 160.821-103.961 47.13-250.017 84.265-471.405 100.712l.148 1.995c221.533-16.458 367.84-53.628 472.083-100.885 104.264-47.268 166.39-104.602 219.582-161.275l-1.458-1.368Z"/>
  <path stroke="#0D2826" stroke-width="2" d="M992 30h-20"/>
  <path stroke="#C2C2C2" stroke-width="2" d="M992 56h-20"/>
  <path fill="#1A2331" d="M1001.3 35v-4.432h3.87c2.32 0 3.55-1.296 3.55-3.648 0-2.24-1.16-3.584-3.55-3.584h-4.91V35h1.04Zm0-10.656h4.14c1.33 0 2.18.704 2.18 1.904v1.28c0 1.264-.88 2.08-2.4 2.08h-3.92v-5.264Zm8.5 6.528c0 1.296.34 2.336 1.02 3.12.69.784 1.65 1.168 2.88 1.168 1.24 0 2.18-.384 2.87-1.168.69-.784 1.04-1.824 1.04-3.12 0-1.344-.35-2.4-1.07-3.152-.72-.768-1.67-1.152-2.84-1.152-1.16 0-2.11.384-2.83 1.152-.72.752-1.07 1.808-1.07 3.152Zm1.04-.608c0-.832.27-1.504.82-2.032.54-.528 1.23-.784 2.04-.784.82 0 1.51.256 2.05.784.55.528.82 1.2.82 2.032v1.28c0 .864-.27 1.536-.83 2.032-.55.48-1.22.72-2.04.72-.81 0-1.48-.24-2.04-.72-.55-.496-.82-1.168-.82-2.032v-1.28Zm8.3 2.256c0 1.6 1.25 2.64 3.28 2.64 1.92 0 3.17-.944 3.17-2.464 0-1.2-.7-1.92-2.11-2.192l-1.71-.32c-.95-.176-1.43-.608-1.43-1.328 0-.896.72-1.456 2-1.456 1.31 0 1.99.56 2.03 1.664h1.01c-.01-1.52-1.15-2.496-3.05-2.496-1.84 0-3.01.912-3.01 2.4 0 1.136.7 1.84 2.13 2.112l1.87.368c.8.144 1.2.576 1.2 1.28 0 .976-.82 1.584-2.11 1.584-1.4 0-2.26-.704-2.26-1.792h-1.01Zm9.72-7.552v-1.632h-1v1.632h1Zm0 10.032v-8.272h-1V35h1Zm8.28-9.856h.99v-1.632h-.99v1.632Zm-3.98 1.584v-2.8h-.99v2.8h-1.54v.864h1.54v6.464c.01.72.35.944.97.944h1.79v-.88h-1.77v-6.528h3.98V35h.99v-8.272h-4.97Zm9.63 8.272h1.15l3.03-8.272h-1.12l-1.65 4.752-.78 2.336h-.1l-.83-2.336-1.65-4.752h-1.14l3.09 8.272Zm8.82-8.432c-2.37 0-3.81 1.584-3.81 4.256 0 1.328.34 2.384 1.02 3.168.69.784 1.62 1.168 2.79 1.168.91 0 1.71-.24 2.37-.72a3.088 3.088 0 0 0 1.26-1.888h-1.01c-.3 1.04-1.28 1.744-2.57 1.744-1.72 0-2.82-1.088-2.82-2.752v-.48h6.32c.03-.24.05-.496.05-.8 0-1.136-.32-2.048-.98-2.704-.65-.656-1.52-.992-2.62-.992Zm-2.77 3.408c0-1.52 1.12-2.544 2.77-2.544 1.55 0 2.59.976 2.59 2.432v.368h-5.36v-.256Zm13.56-3.248c-.65 0-.97.304-.97.928V35h1v-7.408h2.87v-.864h-2.9Zm7.25-.16c-2.36 0-3.8 1.584-3.8 4.256 0 1.328.33 2.384 1.02 3.168.69.784 1.62 1.168 2.78 1.168.92 0 1.72-.24 2.37-.72.67-.48 1.09-1.104 1.27-1.888h-1.01c-.31 1.04-1.28 1.744-2.58 1.744-1.71 0-2.81-1.088-2.81-2.752v-.48h6.32c.03-.24.04-.496.04-.8 0-1.136-.32-2.048-.97-2.704-.66-.656-1.52-.992-2.63-.992Zm-2.76 3.408c0-1.52 1.12-2.544 2.76-2.544 1.56 0 2.6.976 2.6 2.432v.368h-5.36v-.256Zm9.73 5.024V23.336h-.99V35h.99Zm2.34-2.368c0 1.536.99 2.528 2.65 2.528 1.41 0 2.53-.608 2.91-1.568h.1v.48c0 .624.24.928.94.928h1.3v-.784h-1.31v-4.8c0-.336.03-.544-.21-1.168-.11-.32-.26-.592-.45-.816-.38-.448-1.23-.864-2.38-.864-1.92 0-3.14.976-3.22 2.56h.99c.07-1.088.82-1.728 2.18-1.728 1.39 0 2.1.672 2.1 2v.688h-2.6c-1.87 0-3 .928-3 2.544Zm1.04-.352c0-.816.73-1.344 1.96-1.344h2.6v.496c0 1.68-1.09 2.864-2.82 2.864-1.07 0-1.74-.496-1.74-1.44v-.576Zm13.89-7.136h.99v-1.632h-.99v1.632Zm-3.98 1.584v-2.8h-.99v2.8h-1.54v.864h1.54v6.464c.01.72.35.944.97.944h1.79v-.88h-1.77v-6.528h3.98V35h.99v-8.272h-4.97Zm7.31 4.144c0 1.296.34 2.336 1.03 3.12.68.784 1.64 1.168 2.88 1.168 1.23 0 2.17-.384 2.86-1.168.69-.784 1.04-1.824 1.04-3.12 0-1.344-.35-2.4-1.07-3.152-.72-.768-1.67-1.152-2.83-1.152-1.17 0-2.12.384-2.84 1.152-.72.752-1.07 1.808-1.07 3.152Zm1.04-.608c0-.832.27-1.504.82-2.032.54-.528 1.23-.784 2.05-.784.81 0 1.5.256 2.04.784.55.528.82 1.2.82 2.032v1.28c0 .864-.27 1.536-.83 2.032-.55.48-1.22.72-2.03.72-.82 0-1.49-.24-2.05-.72-.55-.496-.82-1.168-.82-2.032v-1.28ZM1108.37 35v-4.32c0-.944.24-1.696.74-2.272.49-.592 1.15-.88 1.95-.88 1.41 0 2.11.816 2.11 2.432V35h1.01v-5.136c0-2.032-1.1-3.296-2.88-3.296-1.23 0-2.3.64-2.82 1.712h-.09l-.15-1.552h-.88V35h1.01Zm7.96-2.48c0 1.6 1.25 2.64 3.28 2.64 1.92 0 3.17-.944 3.17-2.464 0-1.2-.71-1.92-2.11-2.192l-1.72-.32c-.94-.176-1.42-.608-1.42-1.328 0-.896.72-1.456 2-1.456 1.31 0 1.98.56 2.03 1.664h1.01c-.02-1.52-1.15-2.496-3.06-2.496-1.84 0-3 .912-3 2.4 0 1.136.7 1.84 2.12 2.112l1.88.368c.8.144 1.2.576 1.2 1.28 0 .976-.82 1.584-2.12 1.584-1.39 0-2.25-.704-2.25-1.792h-1.01Zm9.73 2.48v-4.368c0-1.92 1.07-3.184 2.67-3.184 1.41 0 2.11.832 2.11 2.496V35h1.01v-5.152c0-2.032-1.13-3.28-2.88-3.28-1.23 0-2.3.64-2.81 1.68h-.1v-4.912h-1.01V35h1.01Zm9.73-10.032v-1.632h-.99v1.632h.99Zm0 10.032v-8.272h-.99V35h.99Zm4.08 2.672v-4.256h.1c.57 1.072 1.58 1.6 3.02 1.6 2.19 0 3.47-1.536 3.47-4.224s-1.28-4.224-3.47-4.224c-1.44 0-2.45.528-3.02 1.6h-.1l-.08-1.44h-.93v10.944h1.01Zm2.93-3.52c-1.73 0-2.93-1.12-2.93-2.784v-1.152c0-1.664 1.2-2.784 2.93-2.784 1.6 0 2.62.976 2.62 2.464v1.792c0 1.488-1.02 2.464-2.62 2.464ZM1001.3 61v-7.04l-.08-3.472h.06L1007.99 61h1.39V49.336h-1.04v6.88l.1 3.6h-.07l-6.73-10.48h-1.38V61h1.04Zm14.45-8.432c-2.37 0-3.81 1.584-3.81 4.256 0 1.328.34 2.384 1.02 3.168.69.784 1.62 1.168 2.79 1.168.91 0 1.71-.24 2.37-.72a3.088 3.088 0 0 0 1.26-1.888h-1.01c-.3 1.04-1.28 1.744-2.57 1.744-1.72 0-2.82-1.088-2.82-2.752v-.48h6.32c.03-.24.05-.496.05-.8 0-1.136-.32-2.048-.98-2.704-.65-.656-1.52-.992-2.62-.992Zm-2.77 3.408c0-1.52 1.12-2.544 2.77-2.544 1.55 0 2.59.976 2.59 2.432v.368h-5.36v-.256Zm10.46 3.552c-.77 0-1.16-.256-1.16-.768 0-.432.34-.768.87-.832.4.096.8.144 1.17.144.84 0 1.55-.256 2.09-.752.56-.496.83-1.152.83-1.968 0-.784-.24-1.424-.72-1.92v-.816h1.59v-.864h-1.39c-.64 0-.96.288-.96.864v.256c-.44-.208-.93-.304-1.52-.304-.88 0-1.62.256-2.18.768-.56.496-.83 1.168-.83 1.984 0 1.008.4 1.744 1.18 2.24v.096c-.62.144-1.05.688-1.05 1.312 0 .496.32.912.78 1.088v.096c-.85.272-1.28.832-1.28 1.68 0 1.232 1.17 2 3.47 2 2.42 0 3.83-.8 3.83-2.336 0-1.216-.92-1.968-2.4-1.968h-2.32Zm-1.2-4.512c0-1.008.8-1.664 2-1.664s2 .656 2 1.664v.64c0 .976-.8 1.648-2 1.648s-2-.672-2-1.648v-.64Zm2.14 8.016c-1.74 0-2.58-.416-2.58-1.376 0-.752.52-1.232 1.52-1.232h2.42c.94 0 1.42.384 1.42 1.136 0 .976-.92 1.472-2.78 1.472Zm4.97-4.4c0 1.536.99 2.528 2.65 2.528 1.41 0 2.53-.608 2.91-1.568h.1v.48c0 .624.24.928.94.928h1.3v-.784h-1.31v-4.8c0-.336.03-.544-.21-1.168-.11-.32-.26-.592-.45-.816-.38-.448-1.23-.864-2.38-.864-1.92 0-3.14.976-3.22 2.56h.99c.07-1.088.82-1.728 2.18-1.728 1.39 0 2.1.672 2.1 2v.688h-2.6c-1.87 0-3 .928-3 2.544Zm1.04-.352c0-.816.73-1.344 1.96-1.344h2.6v.496c0 1.68-1.09 2.864-2.82 2.864-1.07 0-1.74-.496-1.74-1.44v-.576Zm13.89-7.136h1v-1.632h-1v1.632Zm-3.98 1.584v-2.8h-.99v2.8h-1.54v.864h1.54v6.464c.01.72.35.944.97.944h1.8v-.88h-1.78v-6.528h3.98V61h1v-8.272h-4.98Zm9.63 8.272h1.15l3.03-8.272h-1.12l-1.65 4.752-.78 2.336h-.1l-.83-2.336-1.65-4.752h-1.14l3.09 8.272Zm8.82-8.432c-2.37 0-3.81 1.584-3.81 4.256 0 1.328.34 2.384 1.02 3.168.69.784 1.62 1.168 2.79 1.168.91 0 1.71-.24 2.37-.72a3.088 3.088 0 0 0 1.26-1.888h-1.01c-.3 1.04-1.28 1.744-2.57 1.744-1.72 0-2.82-1.088-2.82-2.752v-.48h6.32c.03-.24.05-.496.05-.8 0-1.136-.32-2.048-.98-2.704-.65-.656-1.52-.992-2.62-.992Zm-2.77 3.408c0-1.52 1.12-2.544 2.77-2.544 1.55 0 2.59.976 2.59 2.432v.368h-5.36v-.256Zm13.56-3.248c-.65 0-.97.304-.97.928V61h1.01v-7.408h2.86v-.864h-2.9Zm7.26-.16c-2.37 0-3.81 1.584-3.81 4.256 0 1.328.33 2.384 1.02 3.168.69.784 1.62 1.168 2.79 1.168.91 0 1.71-.24 2.36-.72a3.062 3.062 0 0 0 1.27-1.888h-1.01c-.3 1.04-1.28 1.744-2.58 1.744-1.71 0-2.81-1.088-2.81-2.752v-.48h6.32c.03-.24.05-.496.05-.8 0-1.136-.32-2.048-.98-2.704-.66-.656-1.52-.992-2.62-.992Zm-2.77 3.408c0-1.52 1.12-2.544 2.77-2.544 1.55 0 2.59.976 2.59 2.432v.368h-5.36v-.256Zm9.73 5.024V49.336h-.99V61h.99Zm2.34-2.368c0 1.536.99 2.528 2.65 2.528 1.41 0 2.53-.608 2.91-1.568h.1v.48c0 .624.24.928.94.928h1.3v-.784h-1.31v-4.8c0-.336.03-.544-.21-1.168-.11-.32-.26-.592-.45-.816-.38-.448-1.23-.864-2.38-.864-1.92 0-3.14.976-3.22 2.56h.99c.07-1.088.82-1.728 2.18-1.728 1.39 0 2.1.672 2.1 2v.688h-2.6c-1.87 0-3 .928-3 2.544Zm1.04-.352c0-.816.73-1.344 1.96-1.344h2.6v.496c0 1.68-1.09 2.864-2.82 2.864-1.07 0-1.74-.496-1.74-1.44v-.576Zm13.89-7.136h1v-1.632h-1v1.632Zm-3.98 1.584v-2.8h-.99v2.8h-1.54v.864h1.54v6.464c.01.72.35.944.97.944h1.8v-.88h-1.78v-6.528h3.98V61h1v-8.272h-4.98Zm7.31 4.144c0 1.296.34 2.336 1.03 3.12.68.784 1.64 1.168 2.88 1.168 1.23 0 2.17-.384 2.86-1.168.69-.784 1.04-1.824 1.04-3.12 0-1.344-.35-2.4-1.07-3.152-.72-.768-1.67-1.152-2.83-1.152-1.17 0-2.12.384-2.84 1.152-.72.752-1.07 1.808-1.07 3.152Zm1.04-.608c0-.832.27-1.504.82-2.032.54-.528 1.23-.784 2.05-.784.81 0 1.5.256 2.04.784.55.528.82 1.2.82 2.032v1.28c0 .864-.27 1.536-.83 2.032-.55.48-1.22.72-2.03.72-.82 0-1.49-.24-2.05-.72-.55-.496-.82-1.168-.82-2.032v-1.28ZM1115.51 61v-4.32c0-.944.24-1.696.74-2.272.49-.592 1.15-.88 1.95-.88 1.41 0 2.11.816 2.11 2.432V61h1.01v-5.136c0-2.032-1.1-3.296-2.88-3.296-1.23 0-2.3.64-2.82 1.712h-.09l-.15-1.552h-.88V61h1.01Zm7.96-2.48c0 1.6 1.25 2.64 3.28 2.64 1.92 0 3.17-.944 3.17-2.464 0-1.2-.71-1.92-2.11-2.192l-1.72-.32c-.94-.176-1.42-.608-1.42-1.328 0-.896.72-1.456 2-1.456 1.31 0 1.98.56 2.03 1.664h1.01c-.02-1.52-1.15-2.496-3.06-2.496-1.84 0-3 .912-3 2.4 0 1.136.7 1.84 2.12 2.112l1.88.368c.8.144 1.2.576 1.2 1.28 0 .976-.82 1.584-2.12 1.584-1.39 0-2.25-.704-2.25-1.792h-1.01Zm9.73 2.48v-4.368c0-1.92 1.07-3.184 2.67-3.184 1.41 0 2.11.832 2.11 2.496V61h1.01v-5.152c0-2.032-1.13-3.28-2.88-3.28-1.23 0-2.3.64-2.81 1.68h-.1v-4.912h-1.01V61h1.01Zm9.73-10.032v-1.632h-.99v1.632h.99Zm0 10.032v-8.272h-.99V61h.99Zm4.08 2.672v-4.256h.1c.57 1.072 1.58 1.6 3.02 1.6 2.19 0 3.47-1.536 3.47-4.224s-1.28-4.224-3.47-4.224c-1.44 0-2.45.528-3.02 1.6h-.1l-.08-1.44h-.93v10.944h1.01Zm2.93-3.52c-1.73 0-2.93-1.12-2.93-2.784v-1.152c0-1.664 1.2-2.784 2.93-2.784 1.6 0 2.62.976 2.62 2.464v1.792c0 1.488-1.02 2.464-2.62 2.464Z"/>
  <path fill="#0D2826" d="m806.501 703.5 3.355-11.049-11.246 2.619 7.891 8.43ZM868 106c0 28.293-7.855 62.124-18.73 101.323-10.863 39.153-24.734 83.641-36.666 133.073-23.873 98.906-40.04 217.804-9.127 354.528l1.951-.441c-30.82-136.313-14.713-254.876 9.121-353.618 11.921-49.391 25.762-93.773 36.648-133.007C862.069 168.67 870 134.598 870 106h-2Z"/>
  <rect width="175" height="108" x="838" y="557" fill="#F3F3F3" rx="10"/>
  <rect width="175" height="108" x="771" fill="#F3F3F3" rx="10"/>
  <rect width="148" height="82" x="229" y="22" fill="#F3F3F3" rx="10"/>
  <rect width="148" height="82" x="488" y="22" fill="#F3F3F3" rx="10"/>
  <rect width="148" height="82" y="337" fill="#F3F3F3" rx="10"/>
  <rect width="148" height="82" x="202" y="657" fill="#F3F3F3" rx="10"/>
  <rect width="148" height="82" x="407" y="771" fill="#F3F3F3" rx="10"/>
  <rect width="148" height="82" x="555" y="634" fill="#F3F3F3" rx="10"/>
  <rect width="148" height="82" x="744" y="717" fill="#F3F3F3" rx="10"/>
  <path fill="#1A2331" d="M267.448 56v-6.816l-.128-3.504h.096l4.496 10.096 4.496-10.096h.096l-.128 3.504V56h1.04V44.336h-1.472l-4 9.12h-.08l-3.968-9.12h-1.488V56h1.04Zm16.34-8.432c-2.368 0-3.808 1.584-3.808 4.256 0 1.328.336 2.384 1.024 3.168.688.784 1.616 1.168 2.784 1.168.912 0 1.712-.24 2.368-.72.672-.48 1.088-1.104 1.264-1.888h-1.008c-.304 1.04-1.28 1.744-2.576 1.744-1.712 0-2.816-1.088-2.816-2.752v-.48h6.32c.032-.24.048-.496.048-.8 0-1.136-.32-2.048-.976-2.704-.656-.656-1.52-.992-2.624-.992Zm-2.768 3.408c0-1.52 1.12-2.544 2.768-2.544 1.552 0 2.592.976 2.592 2.432v.368h-5.36v-.256ZM290.771 56v-4.32c0-.944.24-1.696.736-2.272.496-.592 1.152-.88 1.952-.88 1.408 0 2.112.816 2.112 2.432V56h1.008v-5.136c0-2.032-1.104-3.296-2.88-3.296-1.232 0-2.304.64-2.816 1.712h-.096l-.144-1.552h-.88V56h1.008Zm9.739-7.408h1.776v-.864h-1.776v-2.8h-.992v2.8h-1.52v.864h1.52v6.496c0 .608.32.912.976.912h1.808v-.88h-1.792v-6.528Zm3.235 3.28c0 1.296.336 2.336 1.024 3.12.688.784 1.648 1.168 2.88 1.168s2.176-.384 2.864-1.168c.688-.784 1.04-1.824 1.04-3.12 0-1.344-.352-2.4-1.072-3.152-.72-.768-1.664-1.152-2.832-1.152s-2.112.384-2.832 1.152c-.72.752-1.072 1.808-1.072 3.152Zm1.04-.608c0-.832.272-1.504.816-2.032.544-.528 1.232-.784 2.048-.784.816 0 1.504.256 2.048.784s.816 1.2.816 2.032v1.28c0 .864-.272 1.536-.832 2.032-.544.48-1.216.72-2.032.72-.816 0-1.488-.24-2.048-.72-.544-.496-.816-1.168-.816-2.032v-1.28Zm10.079-3.536c-.656 0-.976.304-.976.928V56h1.008v-7.408h2.864v-.864h-2.896Zm3.552 5.792c0 1.6 1.248 2.64 3.28 2.64 1.92 0 3.168-.944 3.168-2.464 0-1.2-.704-1.92-2.112-2.192l-1.712-.32c-.944-.176-1.424-.608-1.424-1.328 0-.896.72-1.456 2-1.456 1.312 0 1.984.56 2.032 1.664h1.008c-.016-1.52-1.152-2.496-3.056-2.496-1.84 0-3.008.912-3.008 2.4 0 1.136.704 1.84 2.128 2.112l1.872.368c.8.144 1.2.576 1.2 1.28 0 .976-.816 1.584-2.112 1.584-1.392 0-2.256-.704-2.256-1.792h-1.008Zm9.73 2.48v-4.368c0-1.92 1.072-3.184 2.672-3.184 1.408 0 2.112.832 2.112 2.496V56h1.008v-5.152c0-2.032-1.136-3.28-2.88-3.28-1.232 0-2.304.64-2.816 1.68h-.096v-4.912h-1.008V56h1.008Zm9.734-10.032v-1.632h-.992v1.632h.992Zm0 10.032v-8.272h-.992V56h.992Zm4.078 2.672v-4.256h.096c.576 1.072 1.584 1.6 3.024 1.6 2.192 0 3.472-1.536 3.472-4.224s-1.28-4.224-3.472-4.224c-1.44 0-2.448.528-3.024 1.6h-.096l-.08-1.44h-.928v10.944h1.008Zm2.928-3.52c-1.728 0-2.928-1.12-2.928-2.784v-1.152c0-1.664 1.2-2.784 2.928-2.784 1.6 0 2.624.976 2.624 2.464v1.792c0 1.488-1.024 2.464-2.624 2.464Zm-69.734 24.48c0 1.536.992 2.528 2.656 2.528 1.408 0 2.528-.608 2.912-1.568h.096v.48c0 .624.24.928.944.928h1.296v-.784h-1.312v-4.8c0-.336.032-.544-.208-1.168a2.502 2.502 0 0 0-.448-.816c-.384-.448-1.232-.864-2.384-.864-1.92 0-3.136.976-3.216 2.56h.992c.064-1.088.816-1.728 2.176-1.728 1.392 0 2.096.672 2.096 2v.688h-2.592c-1.872 0-3.008.928-3.008 2.544Zm1.04-.352c0-.816.736-1.344 1.968-1.344h2.592v.496c0 1.68-1.088 2.864-2.816 2.864-1.072 0-1.744-.496-1.744-1.44v-.576ZM286.3 82h1.152l3.024-8.272h-1.12l-1.648 4.752-.784 2.336h-.096l-.832-2.336-1.648-4.752h-1.136L286.3 82Zm5.008-2.368c0 1.536.992 2.528 2.656 2.528 1.408 0 2.528-.608 2.912-1.568h.096v.48c0 .624.24.928.944.928h1.296v-.784H297.9v-4.8c0-.336.032-.544-.208-1.168a2.502 2.502 0 0 0-.448-.816c-.384-.448-1.232-.864-2.384-.864-1.92 0-3.136.976-3.216 2.56h.992c.064-1.088.816-1.728 2.176-1.728 1.392 0 2.096.672 2.096 2v.688h-2.592c-1.872 0-3.008.928-3.008 2.544Zm1.04-.352c0-.816.736-1.344 1.968-1.344h2.592v.496c0 1.68-1.088 2.864-2.816 2.864-1.072 0-1.744-.496-1.744-1.44v-.576Zm9.75-7.312v-1.632h-.992v1.632h.992Zm0 10.032v-8.272h-.992V82h.992Zm4.063 0V70.336h-.992V82h.992Zm2.334-2.368c0 1.536.992 2.528 2.656 2.528 1.408 0 2.528-.608 2.912-1.568h.096v.48c0 .624.24.928.944.928h1.296v-.784h-1.312v-4.8c0-.336.032-.544-.208-1.168a2.502 2.502 0 0 0-.448-.816c-.384-.448-1.232-.864-2.384-.864-1.92 0-3.136.976-3.216 2.56h.992c.064-1.088.816-1.728 2.176-1.728 1.392 0 2.096.672 2.096 2v.688h-2.592c-1.872 0-3.008.928-3.008 2.544Zm1.04-.352c0-.816.736-1.344 1.968-1.344h2.592v.496c0 1.68-1.088 2.864-2.816 2.864-1.072 0-1.744-.496-1.744-1.44v-.576Zm9.719 2.72.048-1.44h.096c.496.976 1.616 1.6 2.832 1.6 2.368 0 3.664-1.504 3.664-4.256 0-2.688-1.184-4.336-3.552-4.336-1.296 0-2.48.704-2.944 1.776h-.096v-5.008h-1.008V82h.96Zm.048-4.704c0-.816.272-1.504.832-2.032.56-.544 1.248-.816 2.096-.816 1.6 0 2.624.992 2.624 2.528v1.856c0 1.488-1.024 2.464-2.624 2.464-.832 0-1.536-.272-2.096-.8-.56-.544-.832-1.2-.832-1.984v-1.216ZM329.223 82V70.336h-.992V82h.992Zm5.987-8.432c-2.368 0-3.808 1.584-3.808 4.256 0 1.328.336 2.384 1.024 3.168.688.784 1.616 1.168 2.784 1.168.912 0 1.712-.24 2.368-.72.672-.48 1.088-1.104 1.264-1.888h-1.008c-.304 1.04-1.28 1.744-2.576 1.744-1.712 0-2.816-1.088-2.816-2.752v-.48h6.32c.032-.24.048-.496.048-.8 0-1.136-.32-2.048-.976-2.704-.656-.656-1.52-.992-2.624-.992Zm-2.768 3.408c0-1.52 1.12-2.544 2.768-2.544 1.552 0 2.592.976 2.592 2.432v.368h-5.36v-.256ZM609.394 668v-6.816l-.128-3.504h.096l4.496 10.096 4.496-10.096h.096l-.128 3.504V668h1.04v-11.664h-1.472l-4 9.12h-.08l-3.968-9.12h-1.488V668h1.04Zm12.531-2.368c0 1.536.992 2.528 2.656 2.528 1.408 0 2.528-.608 2.912-1.568h.096v.48c0 .624.24.928.944.928h1.296v-.784h-1.312v-4.8c0-.336.032-.544-.208-1.168a2.502 2.502 0 0 0-.448-.816c-.384-.448-1.232-.864-2.384-.864-1.92 0-3.136.976-3.216 2.56h.992c.064-1.088.816-1.728 2.176-1.728 1.392 0 2.096.672 2.096 2v.688h-2.592c-1.872 0-3.008.928-3.008 2.544Zm1.04-.352c0-.816.736-1.344 1.968-1.344h2.592v.496c0 1.68-1.088 2.864-2.816 2.864-1.072 0-1.744-.496-1.744-1.44v-.576Zm15.431 2.72-3.392-5.04 3.232-3.232h-1.328l-4.176 4.24v-7.632h-1.008V668h1.008v-2.768l1.567-1.568 2.929 4.336h1.168Zm4.728-8.432c-2.368 0-3.808 1.584-3.808 4.256 0 1.328.336 2.384 1.024 3.168.688.784 1.616 1.168 2.784 1.168.912 0 1.712-.24 2.368-.72.672-.48 1.088-1.104 1.264-1.888h-1.008c-.304 1.04-1.28 1.744-2.576 1.744-1.712 0-2.816-1.088-2.816-2.752v-.48h6.32c.032-.24.048-.496.048-.8 0-1.136-.32-2.048-.976-2.704-.656-.656-1.52-.992-2.624-.992Zm-2.768 3.408c0-1.52 1.12-2.544 2.768-2.544 1.552 0 2.592.976 2.592 2.432v.368h-5.36v-.256Zm-40.265 33.696v-4.256h.096c.576 1.072 1.584 1.6 3.024 1.6 2.192 0 3.472-1.536 3.472-4.224s-1.28-4.224-3.472-4.224c-1.44 0-2.448.528-3.024 1.6h-.096l-.08-1.44h-.928v10.944h1.008Zm2.928-3.52c-1.728 0-2.928-1.12-2.928-2.784v-1.152c0-1.664 1.2-2.784 2.928-2.784 1.6 0 2.624.976 2.624 2.464v1.792c0 1.488-1.024 2.464-2.624 2.464Zm6.977-7.424c-.656 0-.976.304-.976.928V694h1.008v-7.408h2.864v-.864h-2.896Zm3.445 4.144c0 1.296.336 2.336 1.024 3.12.688.784 1.648 1.168 2.88 1.168s2.176-.384 2.864-1.168c.688-.784 1.04-1.824 1.04-3.12 0-1.344-.352-2.4-1.072-3.152-.72-.768-1.664-1.152-2.832-1.152s-2.112.384-2.832 1.152c-.72.752-1.072 1.808-1.072 3.152Zm1.04-.608c0-.832.272-1.504.816-2.032.544-.528 1.232-.784 2.048-.784.816 0 1.504.256 2.048.784s.816 1.2.816 2.032v1.28c0 .864-.272 1.536-.832 2.032-.544.48-1.216.72-2.032.72-.816 0-1.488-.24-2.048-.72-.544-.496-.816-1.168-.816-2.032v-1.28Zm10.814 3.264c-.768 0-1.152-.256-1.152-.768 0-.432.336-.768.864-.832.4.096.8.144 1.168.144.848 0 1.552-.256 2.096-.752.56-.496.832-1.152.832-1.968 0-.784-.24-1.424-.72-1.92v-.816h1.584v-.864h-1.392c-.64 0-.96.288-.96.864v.256c-.432-.208-.928-.304-1.52-.304-.88 0-1.616.256-2.176.768-.56.496-.832 1.168-.832 1.984 0 1.008.4 1.744 1.184 2.24v.096a1.349 1.349 0 0 0-1.056 1.312c0 .496.32.912.784 1.088v.096c-.848.272-1.28.832-1.28 1.68 0 1.232 1.168 2 3.472 2 2.416 0 3.824-.8 3.824-2.336 0-1.216-.912-1.968-2.4-1.968h-2.32Zm-1.2-4.512c0-1.008.8-1.664 2-1.664s2 .656 2 1.664v.64c0 .976-.8 1.648-2 1.648s-2-.672-2-1.648v-.64Zm2.144 8.016c-1.744 0-2.576-.416-2.576-1.376 0-.752.512-1.232 1.52-1.232h2.416c.944 0 1.424.384 1.424 1.136 0 .976-.928 1.472-2.784 1.472Zm6.679-10.304c-.656 0-.976.304-.976.928V694h1.008v-7.408h2.864v-.864h-2.896Zm7.253-.16c-2.368 0-3.808 1.584-3.808 4.256 0 1.328.336 2.384 1.024 3.168.688.784 1.616 1.168 2.784 1.168.912 0 1.712-.24 2.368-.72.672-.48 1.088-1.104 1.264-1.888h-1.008c-.304 1.04-1.28 1.744-2.576 1.744-1.712 0-2.816-1.088-2.816-2.752v-.48h6.32c.032-.24.048-.496.048-.8 0-1.136-.32-2.048-.976-2.704-.656-.656-1.52-.992-2.624-.992Zm-2.768 3.408c0-1.52 1.12-2.544 2.768-2.544 1.552 0 2.592.976 2.592 2.432v.368h-5.36v-.256Zm7.942 2.544c0 1.6 1.248 2.64 3.28 2.64 1.92 0 3.168-.944 3.168-2.464 0-1.2-.704-1.92-2.112-2.192l-1.712-.32c-.944-.176-1.424-.608-1.424-1.328 0-.896.72-1.456 2-1.456 1.312 0 1.984.56 2.032 1.664h1.008c-.016-1.52-1.152-2.496-3.056-2.496-1.84 0-3.008.912-3.008 2.4 0 1.136.704 1.84 2.128 2.112l1.872.368c.8.144 1.2.576 1.2 1.28 0 .976-.816 1.584-2.112 1.584-1.392 0-2.256-.704-2.256-1.792h-1.008Zm7.922 0c0 1.6 1.248 2.64 3.28 2.64 1.92 0 3.168-.944 3.168-2.464 0-1.2-.704-1.92-2.112-2.192l-1.712-.32c-.944-.176-1.424-.608-1.424-1.328 0-.896.72-1.456 2-1.456 1.312 0 1.984.56 2.032 1.664h1.008c-.016-1.52-1.152-2.496-3.056-2.496-1.84 0-3.008.912-3.008 2.4 0 1.136.704 1.84 2.128 2.112l1.872.368c.8.144 1.2.576 1.2 1.28 0 .976-.816 1.584-2.112 1.584-1.392 0-2.256-.704-2.256-1.792h-1.008ZM548.172 51.16c1.376 0 2.512-.352 3.424-1.072.912-.72 1.472-1.68 1.68-2.896h-1.072c-.432 1.84-1.936 2.992-3.984 2.992-1.232 0-2.224-.368-3.008-1.12-.768-.752-1.152-1.728-1.152-2.896v-1.872c0-1.264.384-2.272 1.152-3.008.768-.752 1.792-1.12 3.072-1.12 2.192 0 3.584 1.152 3.92 2.992h1.072c-.176-1.216-.688-2.176-1.568-2.896-.88-.72-2.016-1.088-3.408-1.088-3.44 0-5.344 2.208-5.344 6 0 3.824 1.952 5.984 5.216 5.984ZM556.7 51V39.336h-.992V51h.992Zm5.986-8.432c-2.368 0-3.808 1.584-3.808 4.256 0 1.328.336 2.384 1.024 3.168.688.784 1.616 1.168 2.784 1.168.912 0 1.712-.24 2.368-.72.672-.48 1.088-1.104 1.264-1.888h-1.008c-.304 1.04-1.28 1.744-2.576 1.744-1.712 0-2.816-1.088-2.816-2.752v-.48h6.32c.032-.24.048-.496.048-.8 0-1.136-.32-2.048-.976-2.704-.656-.656-1.52-.992-2.624-.992Zm-2.768 3.408c0-1.52 1.12-2.544 2.768-2.544 1.552 0 2.592.976 2.592 2.432v.368h-5.36v-.256Zm8.007 2.656c0 1.536.992 2.528 2.656 2.528 1.408 0 2.528-.608 2.912-1.568h.096v.48c0 .624.24.928.944.928h1.296v-.784h-1.312v-4.8c0-.336.032-.544-.208-1.168a2.502 2.502 0 0 0-.448-.816c-.384-.448-1.232-.864-2.384-.864-1.92 0-3.136.976-3.216 2.56h.992c.064-1.088.816-1.728 2.176-1.728 1.392 0 2.096.672 2.096 2v.688h-2.592c-1.872 0-3.008.928-3.008 2.544Zm1.04-.352c0-.816.736-1.344 1.968-1.344h2.592v.496c0 1.68-1.088 2.864-2.816 2.864-1.072 0-1.744-.496-1.744-1.44v-.576Zm9.735-5.552c-.656 0-.976.304-.976.928V51h1.008v-7.408h2.864v-.864H578.7Zm-56.616 32.8c-.768 0-1.152-.256-1.152-.768 0-.432.336-.768.864-.832.4.096.8.144 1.168.144.848 0 1.552-.256 2.096-.752.56-.496.832-1.152.832-1.968 0-.784-.24-1.424-.72-1.92v-.816h1.584v-.864h-1.392c-.64 0-.96.288-.96.864v.256c-.432-.208-.928-.304-1.52-.304-.88 0-1.616.256-2.176.768-.56.496-.832 1.168-.832 1.984 0 1.008.4 1.744 1.184 2.24v.096a1.349 1.349 0 0 0-1.056 1.312c0 .496.32.912.784 1.088v.096c-.848.272-1.28.832-1.28 1.68 0 1.232 1.168 2 3.472 2 2.416 0 3.824-.8 3.824-2.336 0-1.216-.912-1.968-2.4-1.968h-2.32Zm-1.2-4.512c0-1.008.8-1.664 2-1.664s2 .656 2 1.664v.64c0 .976-.8 1.648-2 1.648s-2-.672-2-1.648v-.64Zm2.144 8.016c-1.744 0-2.576-.416-2.576-1.376 0-.752.512-1.232 1.52-1.232h2.416c.944 0 1.424.384 1.424 1.136 0 .976-.928 1.472-2.784 1.472Zm4.889-6.16c0 1.296.336 2.336 1.024 3.12.688.784 1.648 1.168 2.88 1.168s2.176-.384 2.864-1.168c.688-.784 1.04-1.824 1.04-3.12 0-1.344-.352-2.4-1.072-3.152-.72-.768-1.664-1.152-2.832-1.152s-2.112.384-2.832 1.152c-.72.752-1.072 1.808-1.072 3.152Zm1.04-.608c0-.832.272-1.504.816-2.032.544-.528 1.232-.784 2.048-.784.816 0 1.504.256 2.048.784s.816 1.2.816 2.032v1.28c0 .864-.272 1.536-.832 2.032-.544.48-1.216.72-2.032.72-.816 0-1.488-.24-2.048-.72-.544-.496-.816-1.168-.816-2.032v-1.28ZM539.643 77h1.152l3.024-8.272h-1.12l-1.648 4.752-.784 2.336h-.096l-.832-2.336-1.648-4.752h-1.136L539.643 77Zm8.817-8.432c-2.368 0-3.808 1.584-3.808 4.256 0 1.328.336 2.384 1.024 3.168.688.784 1.616 1.168 2.784 1.168.912 0 1.712-.24 2.368-.72.672-.48 1.088-1.104 1.264-1.888h-1.008c-.304 1.04-1.28 1.744-2.576 1.744-1.712 0-2.816-1.088-2.816-2.752v-.48h6.32c.032-.24.048-.496.048-.8 0-1.136-.32-2.048-.976-2.704-.656-.656-1.52-.992-2.624-.992Zm-2.768 3.408c0-1.52 1.12-2.544 2.768-2.544 1.552 0 2.592.976 2.592 2.432v.368h-5.36v-.256Zm9.718-3.248c-.656 0-.976.304-.976.928V77h1.008v-7.408h2.864v-.864h-2.896ZM561.083 77v-4.32c0-.944.24-1.696.736-2.272.496-.592 1.152-.88 1.952-.88 1.408 0 2.112.816 2.112 2.432V77h1.008v-5.136c0-2.032-1.104-3.296-2.88-3.296-1.232 0-2.304.64-2.816 1.712h-.096l-.144-1.552h-.88V77h1.008Zm8.022-2.368c0 1.536.992 2.528 2.656 2.528 1.408 0 2.528-.608 2.912-1.568h.096v.48c0 .624.24.928.944.928h1.296v-.784h-1.312v-4.8c0-.336.032-.544-.208-1.168a2.502 2.502 0 0 0-.448-.816c-.384-.448-1.232-.864-2.384-.864-1.92 0-3.136.976-3.216 2.56h.992c.064-1.088.816-1.728 2.176-1.728 1.392 0 2.096.672 2.096 2v.688h-2.592c-1.872 0-3.008.928-3.008 2.544Zm1.04-.352c0-.816.736-1.344 1.968-1.344h2.592v.496c0 1.68-1.088 2.864-2.816 2.864-1.072 0-1.744-.496-1.744-1.44v-.576Zm9.766 2.72v-4.32c0-.944.24-1.696.736-2.272.496-.592 1.152-.88 1.952-.88 1.408 0 2.112.816 2.112 2.432V77h1.008v-5.136c0-2.032-1.104-3.296-2.88-3.296-1.232 0-2.304.64-2.816 1.712h-.096l-.144-1.552h-.88V77h1.008Zm14.47-2.736c-.24 1.264-1.232 2.032-2.592 2.032-.848 0-1.52-.256-2.048-.752-.512-.512-.768-1.184-.768-2v-1.2c0-.848.256-1.536.784-2.08s1.216-.816 2.032-.816c1.264 0 2.208.608 2.544 1.872h1.008c-.304-1.68-1.664-2.752-3.504-2.752-1.168 0-2.112.384-2.832 1.152-.72.752-1.072 1.808-1.072 3.152 0 1.296.336 2.336 1.024 3.12.688.784 1.632 1.168 2.832 1.168 1.936 0 3.296-1.12 3.6-2.896h-1.008Zm6.344-5.696c-2.368 0-3.808 1.584-3.808 4.256 0 1.328.336 2.384 1.024 3.168.688.784 1.616 1.168 2.784 1.168.912 0 1.712-.24 2.368-.72.672-.48 1.088-1.104 1.264-1.888h-1.008c-.304 1.04-1.28 1.744-2.576 1.744-1.712 0-2.816-1.088-2.816-2.752v-.48h6.32c.032-.24.048-.496.048-.8 0-1.136-.32-2.048-.976-2.704-.656-.656-1.52-.992-2.624-.992Zm-2.768 3.408c0-1.52 1.12-2.544 2.768-2.544 1.552 0 2.592.976 2.592 2.432v.368h-5.36v-.256ZM821.242 33.16c1.376 0 2.512-.352 3.424-1.072.912-.72 1.472-1.68 1.68-2.896h-1.072c-.432 1.84-1.936 2.992-3.984 2.992-1.232 0-2.224-.368-3.008-1.12-.768-.752-1.152-1.728-1.152-2.896v-1.872c0-1.264.384-2.272 1.152-3.008.768-.752 1.792-1.12 3.072-1.12 2.192 0 3.584 1.152 3.92 2.992h1.072c-.176-1.216-.688-2.176-1.568-2.896-.88-.72-2.016-1.088-3.408-1.088-3.44 0-5.344 2.208-5.344 6 0 3.824 1.952 5.984 5.216 5.984Zm6.8-4.288c0 1.296.336 2.336 1.024 3.12.688.784 1.648 1.168 2.88 1.168s2.176-.384 2.864-1.168c.688-.784 1.04-1.824 1.04-3.12 0-1.344-.352-2.4-1.072-3.152-.72-.768-1.664-1.152-2.832-1.152s-2.112.384-2.832 1.152c-.72.752-1.072 1.808-1.072 3.152Zm1.04-.608c0-.832.272-1.504.816-2.032.544-.528 1.232-.784 2.048-.784.816 0 1.504.256 2.048.784s.816 1.2.816 2.032v1.28c0 .864-.272 1.536-.832 2.032-.544.48-1.216.72-2.032.72-.816 0-1.488-.24-2.048-.72-.544-.496-.816-1.168-.816-2.032v-1.28ZM839.192 33v-4.304c0-1.968.976-3.248 2.448-3.248 1.312 0 1.968.848 1.968 2.528V33h1.008v-4.304c0-1.984.88-3.248 2.368-3.248 1.344 0 2.016.816 2.016 2.464V33h1.008v-5.232c0-2.048-1.056-3.2-2.768-3.2-1.36 0-2.272.608-2.768 1.84h-.112c-.272-1.072-1.2-1.84-2.432-1.84-1.264 0-2.128.576-2.624 1.712h-.112l-.144-1.552h-.864V33h1.008Zm14.766 0v-4.304c0-1.968.976-3.248 2.448-3.248 1.312 0 1.968.848 1.968 2.528V33h1.008v-4.304c0-1.984.88-3.248 2.368-3.248 1.344 0 2.016.816 2.016 2.464V33h1.008v-5.232c0-2.048-1.056-3.2-2.768-3.2-1.36 0-2.272.608-2.768 1.84h-.112c-.272-1.072-1.2-1.84-2.432-1.84-1.264 0-2.128.576-2.624 1.712h-.112l-.144-1.552h-.864V33h1.008Zm19.169-8.272v4.32c0 .976-.24 1.76-.736 2.352-.496.592-1.152.88-1.968.88-1.328 0-1.984-.784-1.984-2.352v-5.2h-1.008v5.312c0 2 1.072 3.12 2.736 3.12 1.296 0 2.416-.688 2.864-1.696h.112l.16 1.536h.832v-8.272h-1.008ZM878.208 33v-4.32c0-.944.24-1.696.736-2.272.496-.592 1.152-.88 1.952-.88 1.408 0 2.112.816 2.112 2.432V33h1.008v-5.136c0-2.032-1.104-3.296-2.88-3.296-1.232 0-2.304.64-2.816 1.712h-.096l-.144-1.552h-.88V33h1.008Zm9.75-10.032v-1.632h-.992v1.632h.992Zm0 10.032v-8.272h-.992V33h.992Zm4.286-7.408h1.776v-.864h-1.776v-2.8h-.992v2.8h-1.52v.864h1.52v6.496c0 .608.32.912.976.912h1.808v-.88h-1.792v-6.528Zm6.018 6.464v2.752h-2v.864h2.08c.608 0 .912-.32.912-.944v-2.64l3.472-7.36h-1.136l-2.8 6.16h-.096l-1.488-3.376-1.264-2.784h-1.152l3.472 7.328ZM793.28 59.16c1.44 0 2.448-.528 3.024-1.6h.096l.08 1.44h.928V47.336H796.4v4.976h-.096c-.576-1.072-1.584-1.6-3.024-1.6-2.192 0-3.472 1.536-3.472 4.224s1.28 4.224 3.472 4.224Zm.192-.864c-1.6 0-2.624-.976-2.624-2.464V54.04c0-1.488 1.024-2.464 2.624-2.464 1.728 0 2.928 1.12 2.928 2.784v1.152c0 1.664-1.2 2.784-2.928 2.784Zm10.081-7.728c-2.368 0-3.808 1.584-3.808 4.256 0 1.328.336 2.384 1.024 3.168.688.784 1.616 1.168 2.784 1.168.912 0 1.712-.24 2.368-.72.672-.48 1.088-1.104 1.264-1.888h-1.008c-.304 1.04-1.28 1.744-2.576 1.744-1.712 0-2.816-1.088-2.816-2.752v-.48h6.32c.032-.24.048-.496.048-.8 0-1.136-.32-2.048-.976-2.704-.656-.656-1.52-.992-2.624-.992Zm-2.768 3.408c0-1.52 1.12-2.544 2.768-2.544 1.552 0 2.592.976 2.592 2.432v.368h-5.36v-.256ZM810.536 59v-4.304c0-1.968.976-3.248 2.448-3.248 1.312 0 1.968.848 1.968 2.528V59h1.008v-4.304c0-1.984.88-3.248 2.368-3.248 1.344 0 2.016.816 2.016 2.464V59h1.008v-5.232c0-2.048-1.056-3.2-2.768-3.2-1.36 0-2.272.608-2.768 1.84h-.112c-.272-1.072-1.2-1.84-2.432-1.84-1.264 0-2.128.576-2.624 1.712h-.112l-.144-1.552h-.864V59h1.008Zm13.022-4.128c0 1.296.336 2.336 1.024 3.12.688.784 1.648 1.168 2.88 1.168s2.176-.384 2.864-1.168c.688-.784 1.04-1.824 1.04-3.12 0-1.344-.352-2.4-1.072-3.152-.72-.768-1.664-1.152-2.832-1.152s-2.112.384-2.832 1.152c-.72.752-1.072 1.808-1.072 3.152Zm1.04-.608c0-.832.272-1.504.816-2.032.544-.528 1.232-.784 2.048-.784.816 0 1.504.256 2.048.784s.816 1.2.816 2.032v1.28c0 .864-.272 1.536-.832 2.032-.544.48-1.216.72-2.032.72-.816 0-1.488-.24-2.048-.72-.544-.496-.816-1.168-.816-2.032v-1.28ZM834.708 59v-4.32c0-.944.24-1.696.736-2.272.496-.592 1.152-.88 1.952-.88 1.408 0 2.112.816 2.112 2.432V59h1.008v-5.136c0-2.032-1.104-3.296-2.88-3.296-1.232 0-2.304.64-2.816 1.712h-.096l-.144-1.552h-.88V59h1.008Zm7.958-2.48c0 1.6 1.248 2.64 3.28 2.64 1.92 0 3.168-.944 3.168-2.464 0-1.2-.704-1.92-2.112-2.192l-1.712-.32c-.944-.176-1.424-.608-1.424-1.328 0-.896.72-1.456 2-1.456 1.312 0 1.984.56 2.032 1.664h1.008c-.016-1.52-1.152-2.496-3.056-2.496-1.84 0-3.008.912-3.008 2.4 0 1.136.704 1.84 2.128 2.112l1.872.368c.8.144 1.2.576 1.2 1.28 0 .976-.816 1.584-2.112 1.584-1.392 0-2.256-.704-2.256-1.792h-1.008Zm9.938-4.928h1.776v-.864h-1.776v-2.8h-.992v2.8h-1.52v.864h1.52v6.496c0 .608.32.912.976.912h1.808v-.88h-1.792v-6.528Zm5.025-.864c-.656 0-.976.304-.976.928V59h1.008v-7.408h2.864v-.864h-2.896Zm3.444 5.904c0 1.536.992 2.528 2.656 2.528 1.408 0 2.528-.608 2.912-1.568h.096v.48c0 .624.24.928.944.928h1.296v-.784h-1.312v-4.8c0-.336.032-.544-.208-1.168a2.502 2.502 0 0 0-.448-.816c-.384-.448-1.232-.864-2.384-.864-1.92 0-3.136.976-3.216 2.56h.992c.064-1.088.816-1.728 2.176-1.728 1.392 0 2.096.672 2.096 2v.688h-2.592c-1.872 0-3.008.928-3.008 2.544Zm1.04-.352c0-.816.736-1.344 1.968-1.344h2.592v.496c0 1.68-1.088 2.864-2.816 2.864-1.072 0-1.744-.496-1.744-1.44v-.576Zm9.897-4.688h1.776v-.864h-1.776v-2.8h-.992v2.8h-1.52v.864h1.52v6.496c0 .608.32.912.976.912h1.808v-.88h-1.792v-6.528Zm7.043-1.024c-2.368 0-3.808 1.584-3.808 4.256 0 1.328.336 2.384 1.024 3.168.688.784 1.616 1.168 2.784 1.168.912 0 1.712-.24 2.368-.72.672-.48 1.088-1.104 1.264-1.888h-1.008c-.304 1.04-1.28 1.744-2.576 1.744-1.712 0-2.816-1.088-2.816-2.752v-.48h6.32c.032-.24.048-.496.048-.8 0-1.136-.32-2.048-.976-2.704-.656-.656-1.52-.992-2.624-.992Zm-2.768 3.408c0-1.52 1.12-2.544 2.768-2.544 1.552 0 2.592.976 2.592 2.432v.368h-5.36v-.256Zm7.943 2.544c0 1.6 1.248 2.64 3.28 2.64 1.92 0 3.168-.944 3.168-2.464 0-1.2-.704-1.92-2.112-2.192l-1.712-.32c-.944-.176-1.424-.608-1.424-1.328 0-.896.72-1.456 2-1.456 1.312 0 1.984.56 2.032 1.664h1.008c-.016-1.52-1.152-2.496-3.056-2.496-1.84 0-3.008.912-3.008 2.4 0 1.136.704 1.84 2.128 2.112l1.872.368c.8.144 1.2.576 1.2 1.28 0 .976-.816 1.584-2.112 1.584-1.392 0-2.256-.704-2.256-1.792h-1.008Zm13.782-4.928h1.776v-.864h-1.776v-2.8h-.992v2.8h-1.52v.864h1.52v6.496c0 .608.32.912.976.912h1.808v-.88h-1.792v-6.528Zm5.025-.864c-.656 0-.976.304-.976.928V59h1.008v-7.408h2.864v-.864h-2.896Zm10.233 0v4.32c0 .976-.24 1.76-.736 2.352-.496.592-1.152.88-1.968.88-1.328 0-1.984-.784-1.984-2.352v-5.2h-1.008v5.312c0 2 1.072 3.12 2.736 3.12 1.296 0 2.416-.688 2.864-1.696h.112l.16 1.536h.832v-8.272h-1.008Zm3.273 5.792c0 1.6 1.248 2.64 3.28 2.64 1.92 0 3.168-.944 3.168-2.464 0-1.2-.704-1.92-2.112-2.192l-1.712-.32c-.944-.176-1.424-.608-1.424-1.328 0-.896.72-1.456 2-1.456 1.312 0 1.984.56 2.032 1.664h1.008c-.016-1.52-1.152-2.496-3.056-2.496-1.84 0-3.008.912-3.008 2.4 0 1.136.704 1.84 2.128 2.112l1.872.368c.8.144 1.2.576 1.2 1.28 0 .976-.816 1.584-2.112 1.584-1.392 0-2.256-.704-2.256-1.792h-1.008Zm9.938-4.928h1.776v-.864h-1.776v-2.8h-.992v2.8h-1.52v.864h1.52v6.496c0 .608.32.912.976.912h1.808v-.88h-1.792v-6.528Zm-110.82 31.04c0 1.536.992 2.528 2.656 2.528 1.408 0 2.528-.608 2.912-1.568h.096v.48c0 .624.24.928.944.928h1.296v-.784h-1.312v-4.8c0-.336.032-.544-.208-1.168a2.502 2.502 0 0 0-.448-.816c-.384-.448-1.232-.864-2.384-.864-1.92 0-3.136.976-3.216 2.56h.992c.064-1.088.816-1.728 2.176-1.728 1.392 0 2.096.672 2.096 2v.688h-2.592c-1.872 0-3.008.928-3.008 2.544Zm1.04-.352c0-.816.736-1.344 1.968-1.344h2.592v.496c0 1.68-1.088 2.864-2.816 2.864-1.072 0-1.744-.496-1.744-1.44v-.576Zm9.767 2.72v-4.32c0-.944.24-1.696.736-2.272.496-.592 1.152-.88 1.952-.88 1.408 0 2.112.816 2.112 2.432V85h1.008v-5.136c0-2.032-1.104-3.296-2.88-3.296-1.232 0-2.304.64-2.816 1.712h-.096l-.144-1.552h-.88V85h1.008Zm11.494.16c1.44 0 2.448-.528 3.024-1.6h.096l.08 1.44h.928V73.336h-1.008v4.976h-.096c-.576-1.072-1.584-1.6-3.024-1.6-2.192 0-3.472 1.536-3.472 4.224s1.28 4.224 3.472 4.224Zm.192-.864c-1.6 0-2.624-.976-2.624-2.464V80.04c0-1.488 1.024-2.464 2.624-2.464 1.728 0 2.928 1.12 2.928 2.784v1.152c0 1.664-1.2 2.784-2.928 2.784Zm11.829-7.568c-.656 0-.976.304-.976.928V85h1.008v-7.408h2.864v-.864h-2.896Zm7.252-.16c-2.368 0-3.808 1.584-3.808 4.256 0 1.328.336 2.384 1.024 3.168.688.784 1.616 1.168 2.784 1.168.912 0 1.712-.24 2.368-.72.672-.48 1.088-1.104 1.264-1.888h-1.008c-.304 1.04-1.28 1.744-2.576 1.744-1.712 0-2.816-1.088-2.816-2.752v-.48h6.32c.032-.24.048-.496.048-.8 0-1.136-.32-2.048-.976-2.704-.656-.656-1.52-.992-2.624-.992Zm-2.768 3.408c0-1.52 1.12-2.544 2.768-2.544 1.552 0 2.592.976 2.592 2.432v.368h-5.36v-.256Zm7.943 2.544c0 1.6 1.248 2.64 3.28 2.64 1.92 0 3.168-.944 3.168-2.464 0-1.2-.704-1.92-2.112-2.192l-1.712-.32c-.944-.176-1.424-.608-1.424-1.328 0-.896.72-1.456 2-1.456 1.312 0 1.984.56 2.032 1.664h1.008c-.016-1.52-1.152-2.496-3.056-2.496-1.84 0-3.008.912-3.008 2.4 0 1.136.704 1.84 2.128 2.112l1.872.368c.8.144 1.2.576 1.2 1.28 0 .976-.816 1.584-2.112 1.584-1.392 0-2.256-.704-2.256-1.792h-1.008Zm9.73 5.152v-4.256h.096c.576 1.072 1.584 1.6 3.024 1.6 2.192 0 3.472-1.536 3.472-4.224s-1.28-4.224-3.472-4.224c-1.44 0-2.448.528-3.024 1.6h-.096l-.08-1.44h-.928v10.944h1.008Zm2.928-3.52c-1.728 0-2.928-1.12-2.928-2.784v-1.152c0-1.664 1.2-2.784 2.928-2.784 1.6 0 2.624.976 2.624 2.464v1.792c0 1.488-1.024 2.464-2.624 2.464Zm9.23-7.584c-2.368 0-3.808 1.584-3.808 4.256 0 1.328.336 2.384 1.024 3.168.688.784 1.616 1.168 2.784 1.168.912 0 1.712-.24 2.368-.72.672-.48 1.088-1.104 1.264-1.888h-1.008c-.304 1.04-1.28 1.744-2.576 1.744-1.712 0-2.816-1.088-2.816-2.752v-.48h6.32c.032-.24.048-.496.048-.8 0-1.136-.32-2.048-.976-2.704-.656-.656-1.52-.992-2.624-.992Zm-2.768 3.408c0-1.52 1.12-2.544 2.768-2.544 1.552 0 2.592.976 2.592 2.432v.368h-5.36v-.256Zm14.611 2.288c-.24 1.264-1.232 2.032-2.592 2.032-.848 0-1.52-.256-2.048-.752-.512-.512-.768-1.184-.768-2v-1.2c0-.848.256-1.536.784-2.08s1.216-.816 2.032-.816c1.264 0 2.208.608 2.544 1.872h1.008c-.304-1.68-1.664-2.752-3.504-2.752-1.168 0-2.112.384-2.832 1.152-.72.752-1.072 1.808-1.072 3.152 0 1.296.336 2.336 1.024 3.12.688.784 1.632 1.168 2.832 1.168 1.936 0 3.296-1.12 3.6-2.896h-1.008Zm4.488-4.672h1.776v-.864h-1.776v-2.8h-.992v2.8h-1.52v.864h1.52v6.496c0 .608.32.912.976.912h1.808v-.88h-1.792v-6.528ZM447.859 811v-1.008h-6.528v-4.512h5.776v-.96h-5.776v-4.176h6.528v-1.008h-7.568V811h7.568Zm3.248 0v-4.304c0-1.968.976-3.248 2.448-3.248 1.312 0 1.968.848 1.968 2.528V811h1.008v-4.304c0-1.984.88-3.248 2.368-3.248 1.344 0 2.016.816 2.016 2.464V811h1.008v-5.232c0-2.048-1.056-3.2-2.768-3.2-1.36 0-2.272.608-2.768 1.84h-.112c-.272-1.072-1.2-1.84-2.432-1.84-1.264 0-2.128.576-2.624 1.712h-.112l-.144-1.552h-.864V811h1.008Zm14.765 2.672v-4.256h.096c.576 1.072 1.584 1.6 3.024 1.6 2.192 0 3.472-1.536 3.472-4.224s-1.28-4.224-3.472-4.224c-1.44 0-2.448.528-3.024 1.6h-.096l-.08-1.44h-.928v10.944h1.008Zm2.928-3.52c-1.728 0-2.928-1.12-2.928-2.784v-1.152c0-1.664 1.2-2.784 2.928-2.784 1.6 0 2.624.976 2.624 2.464v1.792c0 1.488-1.024 2.464-2.624 2.464Zm5.422-3.28c0 1.296.336 2.336 1.024 3.12.688.784 1.648 1.168 2.88 1.168s2.176-.384 2.864-1.168c.688-.784 1.04-1.824 1.04-3.12 0-1.344-.352-2.4-1.072-3.152-.72-.768-1.664-1.152-2.832-1.152s-2.112.384-2.832 1.152c-.72.752-1.072 1.808-1.072 3.152Zm1.04-.608c0-.832.272-1.504.816-2.032.544-.528 1.232-.784 2.048-.784.816 0 1.504.256 2.048.784s.816 1.2.816 2.032v1.28c0 .864-.272 1.536-.832 2.032-.544.48-1.216.72-2.032.72-.816 0-1.488-.24-2.048-.72-.544-.496-.816-1.168-.816-2.032v-1.28Zm16.45 1.264-.56 2.432h-.064l-1.936-7.232h-1.312l-1.84 7.28h-.08l-.576-2.528-1.312-4.752h-1.184L485.28 811h1.44l1.136-4.528.576-2.544h.096l.608 2.544 1.2 4.528h1.392l2.384-8.272h-1.136l-1.264 4.8Zm7.177-4.96c-2.368 0-3.808 1.584-3.808 4.256 0 1.328.336 2.384 1.024 3.168.688.784 1.616 1.168 2.784 1.168.912 0 1.712-.24 2.368-.72.672-.48 1.088-1.104 1.264-1.888h-1.008c-.304 1.04-1.28 1.744-2.576 1.744-1.712 0-2.816-1.088-2.816-2.752v-.48h6.32c.032-.24.048-.496.048-.8 0-1.136-.32-2.048-.976-2.704-.656-.656-1.52-.992-2.624-.992Zm-2.768 3.408c0-1.52 1.12-2.544 2.768-2.544 1.552 0 2.592.976 2.592 2.432v.368h-5.36v-.256Zm9.719-3.248c-.656 0-.976.304-.976.928V811h1.008v-7.408h2.864v-.864h-2.896Zm7.252-.16c-2.368 0-3.808 1.584-3.808 4.256 0 1.328.336 2.384 1.024 3.168.688.784 1.616 1.168 2.784 1.168.912 0 1.712-.24 2.368-.72.672-.48 1.088-1.104 1.264-1.888h-1.008c-.304 1.04-1.28 1.744-2.576 1.744-1.712 0-2.816-1.088-2.816-2.752v-.48h6.32c.032-.24.048-.496.048-.8 0-1.136-.32-2.048-.976-2.704-.656-.656-1.52-.992-2.624-.992Zm-2.768 3.408c0-1.52 1.12-2.544 2.768-2.544 1.552 0 2.592.976 2.592 2.432v.368h-5.36v-.256Zm11.636 5.184c1.44 0 2.448-.528 3.024-1.6h.096l.08 1.44h.928v-11.664h-1.008v4.976h-.096c-.576-1.072-1.584-1.6-3.024-1.6-2.192 0-3.472 1.536-3.472 4.224s1.28 4.224 3.472 4.224Zm.192-.864c-1.6 0-2.624-.976-2.624-2.464v-1.792c0-1.488 1.024-2.464 2.624-2.464 1.728 0 2.928 1.12 2.928 2.784v1.152c0 1.664-1.2 2.784-2.928 2.784Zm-61.267 19.296h1.776v-.864h-1.776v-2.8h-.992v2.8h-1.52v.864h1.52v6.496c0 .608.32.912.976.912h1.808v-.88h-1.792v-6.528Zm3.235 3.28c0 1.296.336 2.336 1.024 3.12.688.784 1.648 1.168 2.88 1.168s2.176-.384 2.864-1.168c.688-.784 1.04-1.824 1.04-3.12 0-1.344-.352-2.4-1.072-3.152-.72-.768-1.664-1.152-2.832-1.152s-2.112.384-2.832 1.152c-.72.752-1.072 1.808-1.072 3.152Zm1.04-.608c0-.832.272-1.504.816-2.032.544-.528 1.232-.784 2.048-.784.816 0 1.504.256 2.048.784s.816 1.2.816 2.032v1.28c0 .864-.272 1.536-.832 2.032-.544.48-1.216.72-2.032.72-.816 0-1.488-.24-2.048-.72-.544-.496-.816-1.168-.816-2.032v-1.28Zm20.45 1.264-.56 2.432h-.064l-1.936-7.232h-1.312l-1.84 7.28h-.08l-.576-2.528-1.312-4.752h-1.184l2.432 8.272h1.44l1.136-4.528.576-2.544h.096l.608 2.544 1.2 4.528h1.392l2.384-8.272h-1.136l-1.264 4.8Zm3.37-.656c0 1.296.336 2.336 1.024 3.12.688.784 1.648 1.168 2.88 1.168s2.176-.384 2.864-1.168c.688-.784 1.04-1.824 1.04-3.12 0-1.344-.352-2.4-1.072-3.152-.72-.768-1.664-1.152-2.832-1.152s-2.112.384-2.832 1.152c-.72.752-1.072 1.808-1.072 3.152Zm1.04-.608c0-.832.272-1.504.816-2.032.544-.528 1.232-.784 2.048-.784.816 0 1.504.256 2.048.784s.816 1.2.816 2.032v1.28c0 .864-.272 1.536-.832 2.032-.544.48-1.216.72-2.032.72-.816 0-1.488-.24-2.048-.72-.544-.496-.816-1.168-.816-2.032v-1.28Zm10.078-3.536c-.656 0-.976.304-.976.928V837h1.008v-7.408h2.864v-.864h-2.896ZM511.435 837l-3.392-5.04 3.232-3.232h-1.328l-4.176 4.24v-7.632h-1.008V837h1.008v-2.768l1.568-1.568 2.928 4.336h1.168ZM775.316 763v-4.768h5.712v-.976h-5.712v-4.912h6.352v-1.008h-7.392V763h1.04Zm11.245-8.432c-2.368 0-3.808 1.584-3.808 4.256 0 1.328.336 2.384 1.024 3.168.688.784 1.616 1.168 2.784 1.168.912 0 1.712-.24 2.368-.72.672-.48 1.088-1.104 1.264-1.888h-1.008c-.304 1.04-1.28 1.744-2.576 1.744-1.712 0-2.816-1.088-2.816-2.752v-.48h6.32c.032-.24.048-.496.048-.8 0-1.136-.32-2.048-.976-2.704-.656-.656-1.52-.992-2.624-.992Zm-2.768 3.408c0-1.52 1.12-2.544 2.768-2.544 1.552 0 2.592.976 2.592 2.432v.368h-5.36v-.256Zm11.971-3.408c-2.368 0-3.808 1.584-3.808 4.256 0 1.328.336 2.384 1.024 3.168.688.784 1.616 1.168 2.784 1.168.912 0 1.712-.24 2.368-.72.672-.48 1.088-1.104 1.264-1.888h-1.008c-.304 1.04-1.28 1.744-2.576 1.744-1.712 0-2.816-1.088-2.816-2.752v-.48h6.32c.032-.24.048-.496.048-.8 0-1.136-.32-2.048-.976-2.704-.656-.656-1.52-.992-2.624-.992Zm-2.768 3.408c0-1.52 1.12-2.544 2.768-2.544 1.552 0 2.592.976 2.592 2.432v.368h-5.36v-.256Zm9.735 5.024v-11.664h-.992V763h.992Zm10.434-10.8v-.864h-2.096c-.704 0-1.056.304-1.056.896v2.496h-1.648v.864h1.648V763h.992v-7.408h1.84v-.864h-1.84V752.2h2.16Zm7.361 2.528v4.32c0 .976-.24 1.76-.736 2.352-.496.592-1.152.88-1.968.88-1.328 0-1.984-.784-1.984-2.352v-5.2h-1.008v5.312c0 2 1.072 3.12 2.736 3.12 1.296 0 2.416-.688 2.864-1.696h.112l.16 1.536h.832v-8.272h-1.008Zm5.065 8.272v-11.664h-.992V763h.992Zm4.414-8.272V752.2h2.176v-.864h-2.224c-.624 0-.944.32-.944.944v2.448h-1.632v.864h1.632V763h.992v-7.408h3.84V763h.992v-8.272h-4.832Zm3.84-1.76h.992v-1.632h-.992v1.632ZM838.903 763v-11.664h-.992V763h.992Zm4.063 0v-11.664h-.992V763h.992Zm5.986-8.432c-2.368 0-3.808 1.584-3.808 4.256 0 1.328.336 2.384 1.024 3.168.688.784 1.616 1.168 2.784 1.168.912 0 1.712-.24 2.368-.72.672-.48 1.088-1.104 1.264-1.888h-1.008c-.304 1.04-1.28 1.744-2.576 1.744-1.712 0-2.816-1.088-2.816-2.752v-.48h6.32c.032-.24.048-.496.048-.8 0-1.136-.32-2.048-.976-2.704-.656-.656-1.52-.992-2.624-.992Zm-2.768 3.408c0-1.52 1.12-2.544 2.768-2.544 1.552 0 2.592.976 2.592 2.432v.368h-5.36v-.256Zm11.635 5.184c1.44 0 2.448-.528 3.024-1.6h.096l.08 1.44h.928v-11.664h-1.008v4.976h-.096c-.576-1.072-1.584-1.6-3.024-1.6-2.192 0-3.472 1.536-3.472 4.224s1.28 4.224 3.472 4.224Zm.192-.864c-1.6 0-2.624-.976-2.624-2.464v-1.792c0-1.488 1.024-2.464 2.624-2.464 1.728 0 2.928 1.12 2.928 2.784v1.152c0 1.664-1.2 2.784-2.928 2.784ZM869.667 578.336h-1.04V590h1.04v-11.664Zm6.035 11.824c1.44 0 2.448-.528 3.024-1.6h.096l.08 1.44h.928v-11.664h-1.008v4.976h-.096c-.576-1.072-1.584-1.6-3.024-1.6-2.192 0-3.472 1.536-3.472 4.224s1.28 4.224 3.472 4.224Zm.192-.864c-1.6 0-2.624-.976-2.624-2.464v-1.792c0-1.488 1.024-2.464 2.624-2.464 1.728 0 2.928 1.12 2.928 2.784v1.152c0 1.664-1.2 2.784-2.928 2.784Zm10.081-7.728c-2.368 0-3.808 1.584-3.808 4.256 0 1.328.336 2.384 1.024 3.168.688.784 1.616 1.168 2.784 1.168.912 0 1.712-.24 2.368-.72.672-.48 1.088-1.104 1.264-1.888h-1.008c-.304 1.04-1.28 1.744-2.576 1.744-1.712 0-2.816-1.088-2.816-2.752v-.48h6.32c.032-.24.048-.496.048-.8 0-1.136-.32-2.048-.976-2.704-.656-.656-1.52-.992-2.624-.992Zm-2.768 3.408c0-1.52 1.12-2.544 2.768-2.544 1.552 0 2.592.976 2.592 2.432v.368h-5.36v-.256Zm9.751 5.024v-4.32c0-.944.24-1.696.736-2.272.496-.592 1.152-.88 1.952-.88 1.408 0 2.112.816 2.112 2.432V590h1.008v-5.136c0-2.032-1.104-3.296-2.88-3.296-1.232 0-2.304.64-2.816 1.712h-.096l-.144-1.552h-.88V590h1.008Zm13.739-9.856h.992v-1.632h-.992v1.632Zm-3.984 1.584v-2.8h-.992v2.8h-1.536v.864h1.536v6.464c.016.72.352.944.976.944h1.792v-.88h-1.776v-6.528h3.984V590h.992v-8.272h-4.976Zm11.57-2.528v-.864h-2.096c-.704 0-1.056.304-1.056.896v2.496h-1.648v.864h1.648V590h.992v-7.408h1.84v-.864h-1.84V579.2h2.16Zm3.916 9.856v2.752h-2v.864h2.08c.608 0 .912-.32.912-.944v-2.64l3.472-7.36h-1.136l-2.8 6.16h-.096l-1.488-3.376-1.264-2.784h-1.152l3.472 7.328Zm17.38-2.528-.56 2.432h-.064l-1.936-7.232h-1.312l-1.84 7.28h-.08l-.576-2.528-1.312-4.752h-1.184l2.432 8.272h1.44l1.136-4.528.576-2.544h.096l.608 2.544 1.2 4.528h1.392l2.384-8.272h-1.136l-1.264 4.8Zm5.097-6.56v-1.632h-.992v1.632h.992Zm0 10.032v-8.272h-.992V590h.992Zm4.287-7.408h1.776v-.864h-1.776v-2.8h-.992v2.8h-1.52v.864h1.52v6.496c0 .608.32.912.976.912h1.808v-.88h-1.792v-6.528Zm5.058 7.408v-4.368c0-1.92 1.072-3.184 2.672-3.184 1.408 0 2.112.832 2.112 2.496V590h1.008v-5.152c0-2.032-1.136-3.28-2.88-3.28-1.232 0-2.304.64-2.816 1.68h-.096v-4.912h-1.008V590h1.008Zm13.801-7.408h1.776v-.864h-1.776v-2.8h-.992v2.8h-1.52v.864h1.52v6.496c0 .608.32.912.976.912h1.808v-.88h-1.792v-6.528ZM968.88 590v-4.368c0-1.92 1.072-3.184 2.672-3.184 1.408 0 2.112.832 2.112 2.496V590h1.008v-5.152c0-2.032-1.136-3.28-2.88-3.28-1.232 0-2.304.64-2.816 1.68h-.096v-4.912h-1.008V590h1.008Zm11.814-8.432c-2.368 0-3.808 1.584-3.808 4.256 0 1.328.336 2.384 1.024 3.168.688.784 1.616 1.168 2.784 1.168.912 0 1.712-.24 2.368-.72.672-.48 1.088-1.104 1.264-1.888h-1.008c-.304 1.04-1.28 1.744-2.576 1.744-1.712 0-2.816-1.088-2.816-2.752v-.48h6.32c.032-.24.048-.496.048-.8 0-1.136-.32-2.048-.976-2.704-.656-.656-1.52-.992-2.624-.992Zm-2.768 3.408c0-1.52 1.12-2.544 2.768-2.544 1.552 0 2.592.976 2.592 2.432v.368h-5.36v-.256Zm-113.229 23.616h1.776v-.864h-1.776v-2.8h-.992v2.8h-1.52v.864h1.52v6.496c0 .608.32.912.976.912h1.808v-.88h-1.792v-6.528Zm7.044-1.024c-2.368 0-3.808 1.584-3.808 4.256 0 1.328.336 2.384 1.024 3.168.688.784 1.616 1.168 2.784 1.168.912 0 1.712-.24 2.368-.72.672-.48 1.088-1.104 1.264-1.888h-1.008c-.304 1.04-1.28 1.744-2.576 1.744-1.712 0-2.816-1.088-2.816-2.752v-.48h6.32c.032-.24.048-.496.048-.8 0-1.136-.32-2.048-.976-2.704-.656-.656-1.52-.992-2.624-.992Zm-2.768 3.408c0-1.52 1.12-2.544 2.768-2.544 1.552 0 2.592.976 2.592 2.432v.368h-5.36v-.256Zm8.007 2.656c0 1.536.992 2.528 2.656 2.528 1.408 0 2.528-.608 2.912-1.568h.096v.48c0 .624.24.928.944.928h1.296v-.784h-1.312v-4.8c0-.336.032-.544-.208-1.168a2.502 2.502 0 0 0-.448-.816c-.384-.448-1.232-.864-2.384-.864-1.92 0-3.136.976-3.216 2.56h.992c.064-1.088.816-1.728 2.176-1.728 1.392 0 2.096.672 2.096 2v.688h-2.592c-1.872 0-3.008.928-3.008 2.544Zm1.04-.352c0-.816.736-1.344 1.968-1.344h2.592v.496c0 1.68-1.088 2.864-2.816 2.864-1.072 0-1.744-.496-1.744-1.44v-.576Zm9.766 2.72v-4.304c0-1.968.976-3.248 2.448-3.248 1.312 0 1.968.848 1.968 2.528V616h1.008v-4.304c0-1.984.88-3.248 2.368-3.248 1.344 0 2.016.816 2.016 2.464V616h1.008v-5.232c0-2.048-1.056-3.2-2.768-3.2-1.36 0-2.272.608-2.768 1.84h-.112c-.272-1.072-1.2-1.84-2.432-1.84-1.264 0-2.128.576-2.624 1.712h-.112l-.144-1.552h-.864V616h1.008Zm13.726 0 4.736-11.664h-.896L900.6 616h.912Zm11.291-2.736c-.24 1.264-1.232 2.032-2.592 2.032-.848 0-1.52-.256-2.048-.752-.512-.512-.768-1.184-.768-2v-1.2c0-.848.256-1.536.784-2.08s1.216-.816 2.032-.816c1.264 0 2.208.608 2.544 1.872h1.008c-.304-1.68-1.664-2.752-3.504-2.752-1.168 0-2.112.384-2.832 1.152-.72.752-1.072 1.808-1.072 3.152 0 1.296.336 2.336 1.024 3.12.688.784 1.632 1.168 2.832 1.168 1.936 0 3.296-1.12 3.6-2.896h-1.008Zm2.536-1.392c0 1.296.336 2.336 1.024 3.12.688.784 1.648 1.168 2.88 1.168s2.176-.384 2.864-1.168c.688-.784 1.04-1.824 1.04-3.12 0-1.344-.352-2.4-1.072-3.152-.72-.768-1.664-1.152-2.832-1.152s-2.112.384-2.832 1.152c-.72.752-1.072 1.808-1.072 3.152Zm1.04-.608c0-.832.272-1.504.816-2.032.544-.528 1.232-.784 2.048-.784.816 0 1.504.256 2.048.784s.816 1.2.816 2.032v1.28c0 .864-.272 1.536-.832 2.032-.544.48-1.216.72-2.032.72-.816 0-1.488-.24-2.048-.72-.544-.496-.816-1.168-.816-2.032v-1.28Zm10.11 4.736v-4.304c0-1.968.976-3.248 2.448-3.248 1.312 0 1.968.848 1.968 2.528V616h1.008v-4.304c0-1.984.88-3.248 2.368-3.248 1.344 0 2.016.816 2.016 2.464V616h1.008v-5.232c0-2.048-1.056-3.2-2.768-3.2-1.36 0-2.272.608-2.768 1.84h-.112c-.272-1.072-1.2-1.84-2.432-1.84-1.264 0-2.128.576-2.624 1.712h-.112l-.144-1.552h-.864V616h1.008Zm14.766 0v-4.304c0-1.968.976-3.248 2.448-3.248 1.312 0 1.968.848 1.968 2.528V616h1.008v-4.304c0-1.984.88-3.248 2.368-3.248 1.344 0 2.016.816 2.016 2.464V616h1.008v-5.232c0-2.048-1.056-3.2-2.768-3.2-1.36 0-2.272.608-2.768 1.84h-.112c-.272-1.072-1.2-1.84-2.432-1.84-1.264 0-2.128.576-2.624 1.712h-.112l-.144-1.552h-.864V616h1.008Zm19.169-8.272v4.32c0 .976-.24 1.76-.736 2.352-.496.592-1.152.88-1.968.88-1.328 0-1.984-.784-1.984-2.352v-5.2h-1.008v5.312c0 2 1.072 3.12 2.736 3.12 1.296 0 2.416-.688 2.864-1.696h.112l.16 1.536h.832v-8.272h-1.008Zm5.081 8.272v-4.32c0-.944.24-1.696.736-2.272.496-.592 1.152-.88 1.952-.88 1.408 0 2.112.816 2.112 2.432V616h1.008v-5.136c0-2.032-1.104-3.296-2.88-3.296-1.232 0-2.304.64-2.816 1.712h-.096l-.144-1.552h-.88V616h1.008Zm9.75-10.032v-1.632h-.992v1.632h.992Zm0 10.032v-8.272h-.992V616h.992Zm4.286-7.408h1.776v-.864h-1.776v-2.8h-.992v2.8h-1.52v.864h1.52v6.496c0 .608.32.912.976.912h1.808v-.88h-1.792v-6.528Zm6.018 6.464v2.752h-2v.864h2.08c.608 0 .912-.32.912-.944v-2.64l3.472-7.36h-1.136l-2.8 6.16h-.096l-1.488-3.376-1.264-2.784h-1.152l3.472 7.328Zm-114.564 24.576c0 1.536.992 2.528 2.656 2.528 1.408 0 2.528-.608 2.912-1.568h.096v.48c0 .624.24.928.944.928h1.296v-.784h-1.312v-4.8c0-.336.032-.544-.208-1.168a2.502 2.502 0 0 0-.448-.816c-.384-.448-1.232-.864-2.384-.864-1.92 0-3.136.976-3.216 2.56h.992c.064-1.088.816-1.728 2.176-1.728 1.392 0 2.096.672 2.096 2v.688h-2.592c-1.872 0-3.008.928-3.008 2.544Zm1.04-.352c0-.816.736-1.344 1.968-1.344h2.592v.496c0 1.68-1.088 2.864-2.816 2.864-1.072 0-1.744-.496-1.744-1.44v-.576Zm9.767 2.72v-4.32c0-.944.24-1.696.736-2.272.496-.592 1.152-.88 1.952-.88 1.408 0 2.112.816 2.112 2.432V642h1.008v-5.136c0-2.032-1.104-3.296-2.88-3.296-1.232 0-2.304.64-2.816 1.712h-.096l-.144-1.552h-.88V642h1.008Zm11.493.16c1.44 0 2.448-.528 3.024-1.6h.096l.08 1.44h.928v-11.664h-1.008v4.976h-.096c-.576-1.072-1.584-1.6-3.024-1.6-2.192 0-3.472 1.536-3.472 4.224s1.28 4.224 3.472 4.224Zm.192-.864c-1.6 0-2.624-.976-2.624-2.464v-1.792c0-1.488 1.024-2.464 2.624-2.464 1.728 0 2.928 1.12 2.928 2.784v1.152c0 1.664-1.2 2.784-2.928 2.784Zm11.846-9.328v-1.632h-.992v1.632h.992Zm0 10.032v-8.272h-.992V642h.992Zm4.286-7.408h1.776v-.864h-1.776v-2.8h-.992v2.8h-1.52v.864h1.52v6.496c0 .608.32.912.976.912h1.808v-.88h-1.792v-6.528Zm3.25 4.928c0 1.6 1.248 2.64 3.28 2.64 1.92 0 3.168-.944 3.168-2.464 0-1.2-.704-1.92-2.112-2.192l-1.712-.32c-.944-.176-1.424-.608-1.424-1.328 0-.896.72-1.456 2-1.456 1.312 0 1.984.56 2.032 1.664h1.008c-.016-1.52-1.152-2.496-3.056-2.496-1.84 0-3.008.912-3.008 2.4 0 1.136.704 1.84 2.128 2.112l1.872.368c.8.144 1.2.576 1.2 1.28 0 .976-.816 1.584-2.112 1.584-1.392 0-2.256-.704-2.256-1.792h-1.008Zm13.573 2.48v-4.304c0-1.968.976-3.248 2.448-3.248 1.312 0 1.968.848 1.968 2.528V642h1.008v-4.304c0-1.984.88-3.248 2.368-3.248 1.344 0 2.016.816 2.016 2.464V642h1.008v-5.232c0-2.048-1.056-3.2-2.768-3.2-1.36 0-2.272.608-2.768 1.84h-.112c-.272-1.072-1.2-1.84-2.432-1.84-1.264 0-2.128.576-2.624 1.712h-.112l-.144-1.552h-.864V642h1.008Zm14.75-10.032v-1.632h-.992v1.632h.992Zm0 10.032v-8.272h-.992V642h.992Zm2.271-2.48c0 1.6 1.248 2.64 3.28 2.64 1.92 0 3.168-.944 3.168-2.464 0-1.2-.704-1.92-2.112-2.192l-1.712-.32c-.944-.176-1.424-.608-1.424-1.328 0-.896.72-1.456 2-1.456 1.312 0 1.984.56 2.032 1.664h1.008c-.016-1.52-1.152-2.496-3.056-2.496-1.84 0-3.008.912-3.008 2.4 0 1.136.704 1.84 2.128 2.112l1.872.368c.8.144 1.2.576 1.2 1.28 0 .976-.816 1.584-2.112 1.584-1.392 0-2.256-.704-2.256-1.792h-1.008Zm7.921 0c0 1.6 1.248 2.64 3.28 2.64 1.92 0 3.168-.944 3.168-2.464 0-1.2-.704-1.92-2.112-2.192l-1.712-.32c-.944-.176-1.424-.608-1.424-1.328 0-.896.72-1.456 2-1.456 1.312 0 1.984.56 2.032 1.664h1.008c-.016-1.52-1.152-2.496-3.056-2.496-1.84 0-3.008.912-3.008 2.4 0 1.136.704 1.84 2.128 2.112l1.872.368c.8.144 1.2.576 1.2 1.28 0 .976-.816 1.584-2.112 1.584-1.392 0-2.256-.704-2.256-1.792h-1.008Zm9.714-7.552v-1.632h-.992v1.632h.992Zm0 10.032v-8.272h-.992V642h.992Zm2.335-4.128c0 1.296.336 2.336 1.024 3.12.688.784 1.648 1.168 2.88 1.168s2.176-.384 2.864-1.168c.688-.784 1.04-1.824 1.04-3.12 0-1.344-.352-2.4-1.072-3.152-.72-.768-1.664-1.152-2.832-1.152s-2.112.384-2.832 1.152c-.72.752-1.072 1.808-1.072 3.152Zm1.04-.608c0-.832.272-1.504.816-2.032.544-.528 1.232-.784 2.048-.784.816 0 1.504.256 2.048.784s.816 1.2.816 2.032v1.28c0 .864-.272 1.536-.832 2.032-.544.48-1.216.72-2.032.72-.816 0-1.488-.24-2.048-.72-.544-.496-.816-1.168-.816-2.032v-1.28Zm10.11 4.736v-4.32c0-.944.24-1.696.736-2.272.496-.592 1.152-.88 1.952-.88 1.408 0 2.112.816 2.112 2.432V642h1.008v-5.136c0-2.032-1.104-3.296-2.88-3.296-1.232 0-2.304.64-2.816 1.712h-.096l-.144-1.552h-.88V642h1.008ZM43.451 374h1.488l3.12-10.736h.08L51.26 374h1.488l2.384-11.664h-1.088l-1.488 7.328-.56 3.168H51.9l-3.04-10.496h-1.52l-3.04 10.496h-.096l-.56-3.168-1.488-7.328h-1.088L43.451 374Zm16.016-8.432c-2.368 0-3.808 1.584-3.808 4.256 0 1.328.336 2.384 1.024 3.168.688.784 1.616 1.168 2.784 1.168.912 0 1.712-.24 2.368-.72.672-.48 1.088-1.104 1.264-1.888h-1.008c-.304 1.04-1.28 1.744-2.576 1.744-1.712 0-2.816-1.088-2.816-2.752v-.48h6.32c.032-.24.048-.496.048-.8 0-1.136-.32-2.048-.976-2.704-.656-.656-1.52-.992-2.624-.992Zm-2.768 3.408c0-1.52 1.12-2.544 2.768-2.544 1.552 0 2.592.976 2.592 2.432v.368H56.7v-.256Zm7.943 2.544c0 1.6 1.248 2.64 3.28 2.64 1.92 0 3.168-.944 3.168-2.464 0-1.2-.704-1.92-2.112-2.192l-1.712-.32c-.944-.176-1.424-.608-1.424-1.328 0-.896.72-1.456 2-1.456 1.312 0 1.984.56 2.032 1.664h1.008c-.016-1.52-1.152-2.496-3.056-2.496-1.84 0-3.008.912-3.008 2.4 0 1.136.704 1.84 2.128 2.112l1.872.368c.8.144 1.2.576 1.2 1.28 0 .976-.816 1.584-2.112 1.584-1.392 0-2.256-.704-2.256-1.792h-1.008Zm9.938-4.928h1.776v-.864H74.58v-2.8h-.992v2.8h-1.52v.864h1.52v6.496c0 .608.32.912.976.912h1.808v-.88H74.58v-6.528Zm5.026-.864c-.656 0-.976.304-.976.928V374h1.008v-7.408h2.864v-.864h-2.896Zm10.232 0v4.32c0 .976-.24 1.76-.736 2.352-.496.592-1.152.88-1.968.88-1.328 0-1.984-.784-1.984-2.352v-5.2h-1.008v5.312c0 2 1.072 3.12 2.736 3.12 1.296 0 2.416-.688 2.864-1.696h.112l.16 1.536h.832v-8.272h-1.008ZM94.92 374v-4.304c0-1.968.976-3.248 2.448-3.248 1.312 0 1.968.848 1.968 2.528V374h1.008v-4.304c0-1.984.88-3.248 2.368-3.248 1.344 0 2.016.816 2.016 2.464V374h1.008v-5.232c0-2.048-1.056-3.2-2.768-3.2-1.36 0-2.272.608-2.768 1.84h-.112c-.272-1.072-1.2-1.84-2.432-1.84-1.264 0-2.128.576-2.624 1.712h-.112l-.144-1.552h-.864V374h1.008Zm-39.57 23.264c-.24 1.264-1.231 2.032-2.591 2.032-.848 0-1.52-.256-2.048-.752-.512-.512-.768-1.184-.768-2v-1.2c0-.848.256-1.536.784-2.08s1.216-.816 2.032-.816c1.264 0 2.208.608 2.544 1.872h1.008c-.304-1.68-1.664-2.752-3.504-2.752-1.168 0-2.112.384-2.832 1.152-.72.752-1.072 1.808-1.072 3.152 0 1.296.336 2.336 1.024 3.12.688.784 1.632 1.168 2.832 1.168 1.936 0 3.296-1.12 3.6-2.896H55.35Zm8.84-5.536v4.32c0 .976-.24 1.76-.735 2.352-.496.592-1.152.88-1.968.88-1.328 0-1.984-.784-1.984-2.352v-5.2h-1.008v5.312c0 2 1.072 3.12 2.736 3.12 1.296 0 2.416-.688 2.864-1.696h.112l.16 1.536h.832v-8.272H64.19ZM69.256 400v-11.664h-.992V400h.992Zm4.286-7.408h1.776v-.864h-1.776v-2.8h-.992v2.8h-1.52v.864h1.52v6.496c0 .608.32.912.976.912h1.808v-.88h-1.792v-6.528Zm9.618-.864v4.32c0 .976-.24 1.76-.736 2.352-.496.592-1.152.88-1.968.88-1.328 0-1.984-.784-1.984-2.352v-5.2h-1.008v5.312c0 2 1.072 3.12 2.736 3.12 1.296 0 2.416-.688 2.864-1.696h.112l.16 1.536h.832v-8.272h-1.008Zm5.048 0c-.656 0-.976.304-.976.928V400h1.008v-7.408h2.864v-.864h-2.896Zm7.253-.16c-2.368 0-3.808 1.584-3.808 4.256 0 1.328.336 2.384 1.024 3.168.688.784 1.616 1.168 2.784 1.168.912 0 1.712-.24 2.368-.72.672-.48 1.088-1.104 1.264-1.888h-1.008c-.304 1.04-1.28 1.744-2.576 1.744-1.712 0-2.816-1.088-2.816-2.752v-.48h6.32c.032-.24.048-.496.048-.8 0-1.136-.32-2.048-.976-2.704-.656-.656-1.52-.992-2.624-.992Zm-2.768 3.408c0-1.52 1.12-2.544 2.768-2.544 1.552 0 2.592.976 2.592 2.432v.368h-5.36v-.256ZM238.766 690.16c1.376 0 2.512-.352 3.424-1.072.912-.72 1.472-1.68 1.68-2.896h-1.072c-.432 1.84-1.936 2.992-3.984 2.992-1.232 0-2.224-.368-3.008-1.12-.768-.752-1.152-1.728-1.152-2.896v-1.872c0-1.264.384-2.272 1.152-3.008.768-.752 1.792-1.12 3.072-1.12 2.192 0 3.584 1.152 3.92 2.992h1.072c-.176-1.216-.688-2.176-1.568-2.896-.88-.72-2.016-1.088-3.408-1.088-3.44 0-5.344 2.208-5.344 6 0 3.824 1.952 5.984 5.216 5.984Zm6.8-4.288c0 1.296.336 2.336 1.024 3.12.688.784 1.648 1.168 2.88 1.168s2.176-.384 2.864-1.168c.688-.784 1.04-1.824 1.04-3.12 0-1.344-.352-2.4-1.072-3.152-.72-.768-1.664-1.152-2.832-1.152s-2.112.384-2.832 1.152c-.72.752-1.072 1.808-1.072 3.152Zm1.04-.608c0-.832.272-1.504.816-2.032.544-.528 1.232-.784 2.048-.784.816 0 1.504.256 2.048.784s.816 1.2.816 2.032v1.28c0 .864-.272 1.536-.832 2.032-.544.48-1.216.72-2.032.72-.816 0-1.488-.24-2.048-.72-.544-.496-.816-1.168-.816-2.032v-1.28ZM256.7 690v-11.664h-.992V690h.992Zm4.062 0v-11.664h-.992V690h.992Zm2.335-2.368c0 1.536.992 2.528 2.656 2.528 1.408 0 2.528-.608 2.912-1.568h.096v.48c0 .624.24.928.944.928h1.296v-.784h-1.312v-4.8c0-.336.032-.544-.208-1.168a2.502 2.502 0 0 0-.448-.816c-.384-.448-1.232-.864-2.384-.864-1.92 0-3.136.976-3.216 2.56h.992c.064-1.088.816-1.728 2.176-1.728 1.392 0 2.096.672 2.096 2v.688h-2.592c-1.872 0-3.008.928-3.008 2.544Zm1.04-.352c0-.816.736-1.344 1.968-1.344h2.592v.496c0 1.68-1.088 2.864-2.816 2.864-1.072 0-1.744-.496-1.744-1.44v-.576Zm9.718 2.72.048-1.44h.096c.496.976 1.616 1.6 2.832 1.6 2.368 0 3.664-1.504 3.664-4.256 0-2.688-1.184-4.336-3.552-4.336-1.296 0-2.48.704-2.944 1.776h-.096v-5.008h-1.008V690h.96Zm.048-4.704c0-.816.272-1.504.832-2.032.56-.544 1.248-.816 2.096-.816 1.6 0 2.624.992 2.624 2.528v1.856c0 1.488-1.024 2.464-2.624 2.464-.832 0-1.536-.272-2.096-.8-.56-.544-.832-1.2-.832-1.984v-1.216Zm8.35.576c0 1.296.336 2.336 1.024 3.12.688.784 1.648 1.168 2.88 1.168s2.176-.384 2.864-1.168c.688-.784 1.04-1.824 1.04-3.12 0-1.344-.352-2.4-1.072-3.152-.72-.768-1.664-1.152-2.832-1.152s-2.112.384-2.832 1.152c-.72.752-1.072 1.808-1.072 3.152Zm1.04-.608c0-.832.272-1.504.816-2.032.544-.528 1.232-.784 2.048-.784.816 0 1.504.256 2.048.784s.816 1.2.816 2.032v1.28c0 .864-.272 1.536-.832 2.032-.544.48-1.216.72-2.032.72-.816 0-1.488-.24-2.048-.72-.544-.496-.816-1.168-.816-2.032v-1.28Zm10.078-3.536c-.656 0-.976.304-.976.928V690h1.008v-7.408h2.864v-.864h-2.896Zm3.445 5.904c0 1.536.992 2.528 2.656 2.528 1.408 0 2.528-.608 2.912-1.568h.096v.48c0 .624.24.928.944.928h1.296v-.784h-1.312v-4.8c0-.336.032-.544-.208-1.168a2.502 2.502 0 0 0-.448-.816c-.384-.448-1.232-.864-2.384-.864-1.92 0-3.136.976-3.216 2.56h.992c.064-1.088.816-1.728 2.176-1.728 1.392 0 2.096.672 2.096 2v.688h-2.592c-1.872 0-3.008.928-3.008 2.544Zm1.04-.352c0-.816.736-1.344 1.968-1.344h2.592v.496c0 1.68-1.088 2.864-2.816 2.864-1.072 0-1.744-.496-1.744-1.44v-.576Zm9.896-4.688h1.776v-.864h-1.776v-2.8h-.992v2.8h-1.52v.864h1.52v6.496c0 .608.32.912.976.912h1.808v-.88h-1.792v-6.528Zm7.044-1.024c-2.368 0-3.808 1.584-3.808 4.256 0 1.328.336 2.384 1.024 3.168.688.784 1.616 1.168 2.784 1.168.912 0 1.712-.24 2.368-.72.672-.48 1.088-1.104 1.264-1.888h-1.008c-.304 1.04-1.28 1.744-2.576 1.744-1.712 0-2.816-1.088-2.816-2.752v-.48h6.32c.032-.24.048-.496.048-.8 0-1.136-.32-2.048-.976-2.704-.656-.656-1.52-.992-2.624-.992Zm-2.768 3.408c0-1.52 1.12-2.544 2.768-2.544 1.552 0 2.592.976 2.592 2.432v.368h-5.36v-.256Zm-67.613 27.552-.56 2.432h-.064l-1.936-7.232h-1.312l-1.84 7.28h-.08l-.576-2.528-1.312-4.752h-1.184l2.432 8.272h1.44l1.136-4.528.576-2.544h.096l.608 2.544 1.2 4.528h1.392l2.384-8.272h-1.136l-1.264 4.8Zm5.097-6.56v-1.632h-.992v1.632h.992Zm0 10.032v-8.272h-.992V716h.992Zm4.287-7.408h1.776v-.864h-1.776v-2.8h-.992v2.8h-1.52v.864h1.52v6.496c0 .608.32.912.976.912h1.808v-.88h-1.792v-6.528Zm5.058 7.408v-4.368c0-1.92 1.072-3.184 2.672-3.184 1.408 0 2.112.832 2.112 2.496V716h1.008v-5.152c0-2.032-1.136-3.28-2.88-3.28-1.233 0-2.304.64-2.816 1.68h-.096v-4.912h-1.008V716h1.008Zm11.849-4.128c0 1.296.336 2.336 1.024 3.12.688.784 1.648 1.168 2.88 1.168s2.176-.384 2.864-1.168c.688-.784 1.04-1.824 1.04-3.12 0-1.344-.352-2.4-1.072-3.152-.72-.768-1.664-1.152-2.832-1.152s-2.112.384-2.832 1.152c-.72.752-1.072 1.808-1.072 3.152Zm1.04-.608c0-.832.272-1.504.816-2.032.544-.528 1.232-.784 2.048-.784.816 0 1.504.256 2.048.784s.816 1.2.816 2.032v1.28c0 .864-.272 1.536-.832 2.032-.544.48-1.216.72-2.032.72-.816 0-1.488-.24-2.048-.72-.544-.496-.816-1.168-.816-2.032v-1.28Zm10.319-2.672h1.776v-.864h-1.776v-2.8h-.992v2.8h-1.52v.864h1.52v6.496c0 .608.32.912.976.912h1.808v-.88h-1.792v-6.528Zm5.057 7.408v-4.368c0-1.92 1.072-3.184 2.672-3.184 1.408 0 2.112.832 2.112 2.496V716h1.008v-5.152c0-2.032-1.136-3.28-2.88-3.28-1.232 0-2.304.64-2.816 1.68h-.096v-4.912h-1.008V716h1.008Zm11.814-8.432c-2.368 0-3.808 1.584-3.808 4.256 0 1.328.336 2.384 1.024 3.168.688.784 1.616 1.168 2.784 1.168.912 0 1.712-.24 2.368-.72.672-.48 1.088-1.104 1.264-1.888h-1.008c-.304 1.04-1.28 1.744-2.576 1.744-1.712 0-2.816-1.088-2.816-2.752v-.48h6.32c.032-.24.048-.496.048-.8 0-1.136-.32-2.048-.976-2.704-.656-.656-1.52-.992-2.624-.992Zm-2.768 3.408c0-1.52 1.12-2.544 2.768-2.544 1.552 0 2.592.976 2.592 2.432v.368h-5.36v-.256Zm9.719-3.248c-.656 0-.976.304-.976.928V716h1.008v-7.408h2.864v-.864h-2.896Zm3.552 5.792c0 1.6 1.248 2.64 3.28 2.64 1.92 0 3.168-.944 3.168-2.464 0-1.2-.704-1.92-2.112-2.192l-1.712-.32c-.944-.176-1.424-.608-1.424-1.328 0-.896.72-1.456 2-1.456 1.312 0 1.984.56 2.032 1.664h1.008c-.016-1.52-1.152-2.496-3.056-2.496-1.84 0-3.008.912-3.008 2.4 0 1.136.704 1.84 2.128 2.112l1.872.368c.8.144 1.2.576 1.2 1.28 0 .976-.816 1.584-2.112 1.584-1.392 0-2.256-.704-2.256-1.792h-1.008Z"/>
</svg>
